<svg width="33" height="20" viewBox="0 0 33 20" fill="none" xmlns="http://www.w3.org/2000/svg">
<path d="M32.1674 18.6102C31.0275 18.9002 30.3225 18.6227 29.69 17.6727C28.27 15.5452 26.7025 13.5152 25.19 11.4477C24.995 11.1802 24.7925 10.9177 24.54 10.5852C22.75 13.0002 20.9625 15.3002 19.285 17.6927C18.6849 18.5477 18.055 18.9202 16.9349 18.6177L23.665 9.58516L17.4 1.42766C18.4774 1.21766 19.2225 1.32516 19.8825 2.29016C21.34 4.42016 22.9474 6.44766 24.5499 8.59266C26.1624 6.45516 27.75 4.42516 29.25 2.31516C29.8525 1.46016 30.5 1.13516 31.5825 1.45016C30.7625 2.53766 29.96 3.60766 29.1525 4.67016C28.0625 6.10266 26.9924 7.55266 25.8624 8.95516C25.4599 9.45516 25.525 9.78016 25.885 10.2527C27.975 13.0002 30.0399 15.7752 32.1674 18.6102ZM0.832451 9.43516C1.01245 8.53266 1.13245 7.61266 1.38245 6.72766C2.88245 1.37016 9.03245 -0.857339 13.2575 2.46266C15.7325 4.41016 16.3475 7.15516 16.225 10.2502H2.27495C2.06495 15.8027 6.06245 19.1552 11.1575 17.4452C12.945 16.8452 13.9975 15.4452 14.525 13.6952C14.7925 12.8177 15.235 12.6802 16.06 12.9302C15.6375 15.1202 14.68 16.9502 12.68 18.0952C9.67995 19.8102 5.39745 19.2552 3.14495 16.8727C1.81495 15.4727 1.24995 13.7302 0.999951 11.8477C0.962451 11.5477 0.884951 11.2527 0.824951 10.9552C0.829951 10.4485 0.832451 9.94183 0.832451 9.43516ZM2.29995 9.06266H14.9075C14.825 5.04766 12.325 2.19516 8.90745 2.17016C5.15745 2.14016 2.46245 4.92516 2.29995 9.06266Z" fill="black"/>
</svg>
