<svg width="300" height="159" viewBox="0 0 300 159" fill="none" xmlns="http://www.w3.org/2000/svg">
<g clip-path="url(#clip0_441_1558)">
<path d="M300 3.12012H0V155.488H300V3.12012Z" fill="#4A90E2"/>
<path d="M135.591 36.8941V54.7646C135.591 54.9297 135.525 55.088 135.408 55.2047C135.292 55.3215 135.134 55.3872 134.969 55.3877H134.526V148.482C134.526 151.058 133.504 153.528 131.684 155.35C129.865 157.171 127.398 158.195 124.825 158.195H66.7296C65.4558 158.195 64.1945 157.944 63.0178 157.455C61.841 156.967 60.7718 156.252 59.8712 155.35C58.9706 154.448 58.2563 153.377 57.769 152.198C57.2817 151.02 57.031 149.757 57.0313 148.482V58.6527H56.7106C56.5943 58.6529 56.4826 58.6069 56.4001 58.5248C56.3176 58.4426 56.2709 58.3311 56.2704 58.2146V48.0441C56.2704 47.9862 56.2818 47.9289 56.3039 47.8754C56.326 47.8219 56.3584 47.7733 56.3993 47.7324C56.4402 47.6915 56.4887 47.659 56.5421 47.6369C56.5955 47.6147 56.6528 47.6033 56.7106 47.6033H57.0313V43.7724H56.7079C56.5858 43.7719 56.4688 43.7229 56.3827 43.6362C56.2966 43.5495 56.2484 43.4321 56.2487 43.3098V33.2781C56.249 33.1562 56.2975 33.0394 56.3835 32.9533C56.4696 32.8671 56.5862 32.8186 56.7079 32.8182H57.0313V27.5888H56.7024C56.6489 27.5888 56.5958 27.5783 56.5464 27.5578C56.4969 27.5374 56.4519 27.5073 56.414 27.4694C56.3762 27.4315 56.3462 27.3865 56.3257 27.3369C56.3052 27.2874 56.2947 27.2343 56.2948 27.1806V21.7063C56.2946 21.5977 56.3374 21.4935 56.4138 21.4165C56.4902 21.3395 56.594 21.2959 56.7024 21.2955H57.0313V10.2107C57.0313 7.6353 58.0532 5.16539 59.8719 3.3443C61.6907 1.52321 64.1575 0.500094 66.7296 0.5H124.825C127.397 0.499988 129.864 1.52299 131.683 3.34403C133.503 5.16506 134.525 7.63501 134.526 10.2107V36.271H134.969C135.134 36.2714 135.292 36.3372 135.408 36.454C135.525 36.5707 135.591 36.729 135.591 36.8941Z" fill="#3F3D56"/>
<path opacity="0.1" d="M257.799 3.12012L129.353 91.4117L120.587 78.6264L230.435 3.12012H257.799Z" fill="#1C1E21"/>
<path opacity="0.1" d="M300 3.12012V15.9054L119.299 140.115L110.533 127.33L291.236 3.12012H300Z" fill="#1C1E21"/>
<path opacity="0.1" d="M300 40.7549V59.5641L160.451 155.488H133.084L300 40.7549Z" fill="#1C1E21"/>
<path d="M290.761 157.945H8.19897V158.489H290.761V157.945Z" fill="#3F3D56"/>
<path d="M228.167 113.766L216.645 105.576L208.465 117.113L219.988 125.303L228.167 113.766Z" fill="#F0F0F0"/>
<path d="M219.884 128.277C219.239 128.277 218.608 128.086 218.072 127.727C217.536 127.368 217.118 126.858 216.871 126.262C216.624 125.665 216.56 125.008 216.686 124.375C216.811 123.742 217.122 123.16 217.578 122.703C218.034 122.247 218.615 121.936 219.248 121.81C219.88 121.684 220.536 121.748 221.132 121.996C221.728 122.243 222.237 122.661 222.595 123.198C222.953 123.735 223.145 124.366 223.145 125.012C223.144 125.878 222.8 126.708 222.188 127.32C221.577 127.932 220.748 128.276 219.884 128.277ZM219.884 122.291C219.346 122.291 218.821 122.451 218.374 122.75C217.927 123.049 217.579 123.474 217.373 123.971C217.168 124.468 217.114 125.015 217.219 125.543C217.323 126.071 217.582 126.556 217.962 126.936C218.342 127.317 218.827 127.576 219.354 127.681C219.881 127.786 220.427 127.732 220.924 127.526C221.42 127.32 221.845 126.971 222.143 126.524C222.442 126.076 222.601 125.55 222.601 125.012C222.6 124.291 222.314 123.599 221.804 123.089C221.295 122.579 220.604 122.292 219.884 122.291Z" fill="#3F3D56"/>
<path d="M154.938 27.8777C154.293 27.8777 153.663 27.6862 153.126 27.3274C152.59 26.9687 152.172 26.4587 151.925 25.8621C151.679 25.2655 151.614 24.6091 151.74 23.9757C151.866 23.3424 152.176 22.7606 152.632 22.304C153.088 21.8473 153.669 21.5364 154.302 21.4104C154.935 21.2844 155.59 21.3491 156.186 21.5962C156.782 21.8433 157.291 22.2618 157.649 22.7987C158.008 23.3357 158.199 23.9669 158.199 24.6127C158.198 25.4783 157.854 26.3082 157.243 26.9203C156.631 27.5324 155.803 27.8767 154.938 27.8777ZM154.938 21.8918C154.401 21.8918 153.875 22.0514 153.428 22.3504C152.982 22.6493 152.633 23.0743 152.428 23.5715C152.222 24.0686 152.168 24.6157 152.273 25.1435C152.378 25.6713 152.637 26.1561 153.017 26.5366C153.397 26.9171 153.881 27.1763 154.408 27.2812C154.935 27.3862 155.481 27.3323 155.978 27.1264C156.475 26.9205 156.899 26.5717 157.198 26.1243C157.496 25.6769 157.656 25.1508 157.656 24.6127C157.655 23.8913 157.368 23.1997 156.859 22.6896C156.349 22.1795 155.659 21.8926 154.938 21.8918Z" fill="#F0F0F0"/>
<path d="M37.8118 138.201H37.2683V158.447H37.8118V138.201Z" fill="#3F3D56"/>
<path d="M37.5401 141.064C39.1194 141.064 40.3996 139.782 40.3996 138.201C40.3996 136.619 39.1194 135.337 37.5401 135.337C35.9609 135.337 34.6807 136.619 34.6807 138.201C34.6807 139.782 35.9609 141.064 37.5401 141.064Z" fill="#3F3D56"/>
<path d="M37.5401 150.679C37.5401 150.679 37.1316 141.882 28.7574 142.904L37.5401 150.679Z" fill="#3F3D56"/>
<path d="M98.5762 5.48096H89.136C88.7546 5.48096 88.4453 5.7906 88.4453 6.17257V6.98954C88.4453 7.37151 88.7546 7.68115 89.136 7.68115H98.5762C98.9577 7.68115 99.2669 7.37151 99.2669 6.98954V6.17257C99.2669 5.7906 98.9577 5.48096 98.5762 5.48096Z" fill="#E6E8EC"/>
<path d="M102.149 7.82917C102.838 7.82917 103.396 7.27044 103.396 6.58121C103.396 5.89198 102.838 5.33325 102.149 5.33325C101.461 5.33325 100.903 5.89198 100.903 6.58121C100.903 7.27044 101.461 7.82917 102.149 7.82917Z" fill="#E6E8EC"/>
<path d="M129.88 12.1315V149.287C129.88 150.921 129.231 152.488 128.077 153.643C126.923 154.798 125.357 155.447 123.726 155.447H68.1141C67.3057 155.448 66.5049 155.29 65.7577 154.981C65.0105 154.672 64.3316 154.218 63.7598 153.646C63.188 153.074 62.7346 152.394 62.4257 151.646C62.1167 150.898 61.9582 150.096 61.9592 149.287V12.1315C61.9592 11.3222 62.1184 10.5208 62.4277 9.77306C62.737 9.02535 63.1903 8.34596 63.7619 7.7737C64.3334 7.20143 65.0119 6.74749 65.7587 6.43779C66.5055 6.1281 67.3058 5.96872 68.1141 5.96875H76.4375V7.03805C76.4375 8.38385 76.9714 9.67453 77.9219 10.6262C78.8723 11.5778 80.1613 12.1124 81.5054 12.1124H109.788C111.132 12.1124 112.421 11.5778 113.372 10.6262C114.322 9.67454 114.856 8.38385 114.856 7.03805V5.96875H123.726C124.534 5.96849 125.334 6.12771 126.081 6.43733C126.828 6.74694 127.507 7.20087 128.078 7.77319C128.65 8.3455 129.103 9.02498 129.412 9.77279C129.722 10.5206 129.881 11.3221 129.88 12.1315Z" fill="#4A90E2"/>
<path d="M127.717 46.3816H64.674V77.1272H127.717V46.3816Z" fill="#3F3D56"/>
<path d="M127.717 97.5337H64.674V128.279H127.717V97.5337Z" fill="#3F3D56"/>
<path d="M121.196 28.152C124.197 28.152 126.63 25.7156 126.63 22.7103C126.63 19.7049 124.197 17.2686 121.196 17.2686C118.194 17.2686 115.761 19.7049 115.761 22.7103C115.761 25.7156 118.194 28.152 121.196 28.152Z" fill="white"/>
<path d="M123.641 22.5353H121.37V20.2615H121.021V22.5353H118.75V22.8852H121.021V25.159H121.37V22.8852H123.641V22.5353Z" fill="#3F3D56"/>
<path d="M90.0567 67.493C91.707 73.6013 97.3597 77.3844 97.3597 77.3844C97.3597 77.3844 100.337 71.2638 98.6864 65.1555C97.0361 59.0472 91.3834 55.2642 91.3834 55.2642C91.3834 55.2642 88.4064 61.3847 90.0567 67.493Z" fill="white"/>
<path d="M92.4817 66.1803C97.0102 70.5942 97.5633 77.3795 97.5633 77.3795C97.5633 77.3795 90.7743 77.0083 86.2458 72.5944C81.7173 68.1805 81.1642 61.3953 81.1642 61.3953C81.1642 61.3953 87.9532 61.7664 92.4817 66.1803Z" fill="#4A90E2"/>
<path d="M90.0567 118.645C91.707 124.753 97.3597 128.536 97.3597 128.536C97.3597 128.536 100.337 122.416 98.6864 116.307C97.0361 110.199 91.3834 106.416 91.3834 106.416C91.3834 106.416 88.4064 112.537 90.0567 118.645Z" fill="white"/>
<path d="M92.4817 117.332C97.0102 121.746 97.5633 128.531 97.5633 128.531C97.5633 128.531 90.7743 128.16 86.2458 123.746C81.7173 119.332 81.1642 112.547 81.1642 112.547C81.1642 112.547 87.9532 112.918 92.4817 117.332Z" fill="#4A90E2"/>
<path d="M105.07 118.645C103.42 124.753 97.767 128.536 97.767 128.536C97.767 128.536 94.7899 122.416 96.4403 116.307C98.0906 110.199 103.743 106.416 103.743 106.416C103.743 106.416 106.72 112.537 105.07 118.645Z" fill="white"/>
<path d="M102.645 117.332C98.1165 121.746 97.5634 128.531 97.5634 128.531C97.5634 128.531 104.352 128.16 108.881 123.746C113.409 119.332 113.962 112.547 113.962 112.547C113.962 112.547 107.173 112.918 102.645 117.332Z" fill="#4A90E2"/>
<path d="M265.217 33.3984H259.853V28.0271H265.217V33.3984ZM260.266 32.9852H264.805V28.4403H260.266V32.9852Z" fill="#3F3D56"/>
<path d="M268.382 155.042L264.723 151.114L268.645 147.451L272.304 151.379L268.382 155.042ZM265.306 151.135L268.402 154.458L271.721 151.358L268.625 148.035L265.306 151.135Z" fill="#F0F0F0"/>
<path d="M37.3125 30.8063C38.8251 30.8063 40.0512 29.5785 40.0512 28.064C40.0512 26.5495 38.8251 25.3218 37.3125 25.3218C35.7999 25.3218 34.5737 26.5495 34.5737 28.064C34.5737 29.5785 35.7999 30.8063 37.3125 30.8063Z" fill="#F0F0F0"/>
<path d="M37.3125 35.9861C35.7476 35.9861 34.2179 35.5215 32.9168 34.651C31.6157 33.7806 30.6016 32.5433 30.0028 31.0957C29.4039 29.6482 29.2473 28.0553 29.5525 26.5186C29.8578 24.9819 30.6114 23.5703 31.7179 22.4624C32.8244 21.3545 34.2342 20.6 35.7689 20.2943C37.3037 19.9886 38.8945 20.1455 40.3402 20.7451C41.786 21.3447 43.0216 22.3601 43.891 23.6629C44.7604 24.9656 45.2244 26.4973 45.2244 28.0641C45.2221 30.1644 44.3877 32.1781 42.9045 33.6632C41.4212 35.1484 39.4101 35.9838 37.3125 35.9861ZM37.3125 20.7515C35.868 20.7515 34.456 21.1804 33.2549 21.9839C32.0539 22.7874 31.1178 23.9295 30.5651 25.2657C30.0123 26.6019 29.8677 28.0722 30.1495 29.4907C30.4313 30.9093 31.1268 32.2122 32.1482 33.2349C33.1696 34.2576 34.4709 34.9541 35.8877 35.2362C37.3044 35.5184 38.7728 35.3736 40.1073 34.8201C41.4419 34.2666 42.5825 33.3294 43.385 32.1268C44.1875 30.9242 44.6158 29.5104 44.6158 28.0641C44.6136 26.1254 43.8434 24.2667 42.4743 22.8958C41.1051 21.5249 39.2488 20.7537 37.3125 20.7515Z" fill="#2F2E41"/>
<path d="M264.674 58.8975H175.543V66.2438H264.674V58.8975Z" fill="#F0F0F0"/>
<path d="M253.397 76.0388H186.821V78.8841H253.397V76.0388Z" fill="#F0F0F0"/>
<path d="M253.397 80.6228H186.821V83.468H253.397V80.6228Z" fill="#F0F0F0"/>
<path d="M253.397 85.2068H186.821V88.052H253.397V85.2068Z" fill="#F0F0F0"/>
<path d="M253.397 89.7908H186.821V92.636H253.397V89.7908Z" fill="#F0F0F0"/>
</g>
<defs>
<clipPath id="clip0_441_1558">
<rect width="300" height="158" fill="white" transform="translate(0 0.5)"/>
</clipPath>
</defs>
</svg>
