<svg width="300" height="193" viewBox="0 0 300 193" fill="none" xmlns="http://www.w3.org/2000/svg">
<g clip-path="url(#clip0_441_1267)">
<path d="M184.71 28.3208H183.975C182.807 28.3208 181.86 29.2671 181.86 30.4344V46.4045C181.86 47.5718 182.807 48.5181 183.975 48.5181H184.71C185.878 48.5181 186.825 47.5718 186.825 46.4045V30.4344C186.825 29.2671 185.878 28.3208 184.71 28.3208Z" fill="#535461"/>
<path d="M231.146 39.0044H180.026V91.9899H231.146V39.0044Z" fill="#090814"/>
<path d="M181.771 82.9486L184.858 105.356L186.312 115.888L186.847 119.756L191.329 128.486L199.558 144.506L215.431 146.411L243.355 107.062C243.355 107.062 257.976 79.1421 235.747 81.6773C223.283 83.1025 224.545 71.0362 224.323 60.9668C224.267 55.8971 220.499 51.752 221.466 46.7751L199.241 57.5641C199.758 59.9693 200.146 62.1791 200.407 64.1936C201.49 72.4369 200.592 77.5763 198.713 80.6906C193.71 88.9854 181.771 82.9486 181.771 82.9486Z" fill="#ED9DA0"/>
<path d="M207.491 68.7517C221.695 68.7517 233.21 57.2456 233.21 43.0521C233.21 28.8586 221.695 17.3525 207.491 17.3525C193.286 17.3525 181.771 28.8586 181.771 43.0521C181.771 57.2456 193.286 68.7517 207.491 68.7517Z" fill="#ED9DA0"/>
<path d="M185.825 157.238C186.6 160.323 184.645 165.622 182.054 170.827C194.483 172.163 208.113 171.467 208.113 171.467L222.099 175.277L261.469 186.699C263.183 184.482 264.556 181.697 265.69 178.558L261.788 174.008C249.51 166.512 245.497 157.141 244.911 148.891C244.678 145.146 245.043 141.389 245.994 137.759C246.752 134.693 247.898 131.735 249.403 128.957L212.855 129.129H212.546L209.542 135.95L209.405 136.259L207.17 141.333L199.551 127.691L196.907 123.422L195.426 121.024C195.426 121.024 173.516 115.939 173.197 128.959C173.159 130.453 173.217 131.947 173.372 133.433C174.462 143.904 180.195 150.866 184.944 155.611C185.382 156.063 185.686 156.626 185.825 157.238Z" fill="#4A90E2"/>
<path d="M103.34 173.69C103.974 181.303 122.39 171.152 122.39 171.152C122.39 171.152 128.106 169.247 147.476 156.875C157.31 150.595 165.064 141.548 169.763 130.874C170.504 129.224 171.124 127.522 171.618 125.783L158.273 115.939L154.381 121.883L141.444 141.635L122.394 154.312C122.394 154.312 102.705 166.077 103.34 173.69Z" fill="#ED9DA0"/>
<path d="M65.9371 192.5H300L272.043 182.891L202.153 158.867L157.587 143.547H100.184L65.9371 192.5Z" fill="#F2F2F2"/>
<path opacity="0.1" d="M184.864 105.355L186.853 119.745L191.334 128.475C194.111 127.764 196.983 127.495 199.844 127.676C196.687 127.242 194.646 107.522 194.646 107.522L194.465 107.481L184.864 105.355Z" fill="#1C1E21"/>
<path d="M155.732 121.657C162.081 120.705 169.386 129.908 169.386 129.908C169.386 129.908 177.958 138.158 183.674 132.446C189.212 126.913 198.919 127.65 199.522 127.684C196.365 127.245 194.325 107.527 194.325 107.527L194.144 107.486L163.67 100.717C163.67 100.717 161.853 103.499 159.802 107.041C156.103 113.424 151.645 122.271 155.732 121.657Z" fill="#4A90E2"/>
<path opacity="0.1" d="M181.772 82.9478L184.859 105.355L186.313 115.887C190.57 115.568 195.733 114.998 195.733 114.998C195.733 114.998 190.336 92.4704 199.227 80.7357C199.227 80.7357 199.038 80.7357 198.699 80.7007C193.71 88.9849 181.772 82.9478 181.772 82.9478Z" fill="#1C1E21"/>
<path d="M198.915 80.728C198.915 80.728 182.721 79.4602 176.371 83.9008C170.02 88.3414 162.297 102.095 162.297 102.095L159.866 107.29C159.866 107.29 163.665 107.695 163.35 108.333C163.034 108.97 168.431 112.139 170.969 111.186C173.506 110.234 179.859 115.298 180.494 115.945C181.129 116.593 195.416 114.993 195.416 114.993C195.416 114.993 190.024 92.4662 198.915 80.728Z" fill="#4A90E2"/>
<path d="M164.624 166.077C171.928 174.642 209.395 172.741 209.395 172.741L223.367 176.544L262.738 187.967C271.999 175.975 271.792 147.397 271.287 135.838C271.15 132.734 270.996 130.856 270.996 130.856C270.996 130.856 257.661 122.606 251.627 130.856C250.55 132.326 245.719 133.453 244.955 135.838C241.454 146.832 244.955 165.755 244.955 165.755L229.079 164.169L206.014 158.687C204.425 158.309 202.796 158.119 201.162 158.121C191.599 158.149 158.356 158.724 164.624 166.077Z" fill="#ED9DA0"/>
<path d="M209.409 135.62C209.409 135.62 212.265 136.254 217.981 134.986C223.697 133.719 225.919 136.254 229.094 137.525C232.269 138.796 240.526 139.43 243.701 138.159C246.876 136.888 250.05 134.352 256.73 137.206C263.411 140.061 267.843 134.349 274.509 134.973C281.175 135.596 285.622 132.434 285.622 132.434L278.536 116.084L276.41 111.175L223.288 107.544H223.034L209.409 135.62Z" fill="#4A90E2"/>
<path d="M233.21 82.9486C233.21 82.9486 250.673 79.4572 258.927 83.901C267.18 88.3447 273.53 98.1778 273.53 98.1778C273.53 98.1778 278.533 111.449 277.845 115.309C277.156 119.168 266.232 115.309 266.232 115.309C266.232 115.309 252.578 112.136 250.672 116.895C248.765 121.654 239.874 119.115 239.874 119.115C239.874 119.115 221.458 114.038 217.964 119.749L233.21 82.9486Z" fill="#4A90E2"/>
<path d="M173.243 108.628C174.814 112.76 179.47 114.819 183.825 115.603C188.118 116.373 192.517 116.334 196.796 115.486C193.006 111.544 190.553 106.51 189.784 101.097C188.615 92.6846 191.621 84.0996 190.384 75.7021C189.112 67.0797 183.489 59.5136 182.515 50.8511C184.449 52.0982 186.674 49.7274 187.689 47.6615C189.549 43.8632 191.12 39.9303 192.389 35.896C193.963 30.8869 195.371 25.2757 199.7 22.3009C200.464 21.7734 201.496 21.3486 202.288 21.8382C202.868 22.1807 215.092 32.1568 217.123 37.5273C219.149 42.8687 220.085 49.5182 222.085 54.8802C226.666 67.1459 214.576 82.2689 213.855 95.3432C213.533 101.116 214.013 106.903 214.493 112.662C214.572 113.584 214.719 114.625 215.484 115.143C215.985 115.415 216.555 115.534 217.123 115.485C219.692 115.501 222.245 115.074 224.67 114.224C225.647 113.881 226.627 113.463 227.663 113.446C229.192 113.422 230.584 114.261 232.052 114.7C237 116.187 242.15 113.004 245.743 109.297C249.337 105.59 252.381 101.098 257.003 98.8058C258.516 98.0522 260.494 96.9625 260.09 95.3214C259.896 94.7633 259.556 94.2672 259.106 93.8844C257.233 92.0035 255.265 90.1841 253.733 88.0186C251.422 84.7466 250.218 80.8441 249.045 77.0127C247.352 71.4691 245.641 65.7887 245.959 60.0019C246.109 57.134 246.761 54.3145 247.011 51.4365C247.505 45.7355 246.387 40.0341 245.276 34.4222C244.522 30.5985 243.702 26.6346 241.347 23.527C239.746 21.4166 237.545 19.8509 235.748 17.9013C233.067 14.9921 231.386 11.3265 229.213 8.02017C227.039 4.71383 224.091 1.58239 220.222 0.742929C217.88 0.23259 215.442 0.623055 213.076 1.01703C211.187 1.33564 209.253 1.66441 207.467 2.38751C206.058 2.94832 204.761 4.33704 203.318 4.60097C200.444 5.139 197.286 4.01176 194.211 4.73801C188.227 6.146 182.768 10.1548 180.115 15.7566C179.596 16.8654 179.158 18.0105 178.805 19.1828C178.297 20.8274 177.91 22.5095 177.526 24.1884C177.444 24.5308 177.365 24.901 177.29 25.2539C174.939 36.4095 176.456 44.5318 177.481 56.1375C178.506 67.7432 178.757 83.2899 175.527 94.5104C174.179 99.1988 171.515 104.081 173.243 108.628Z" fill="#090814"/>
<path opacity="0.2" d="M170.977 184.637C171.241 184.637 171.454 184.423 171.454 184.16C171.454 183.897 171.241 183.684 170.977 183.684C170.714 183.684 170.501 183.897 170.501 184.16C170.501 184.423 170.714 184.637 170.977 184.637Z" fill="#1C1E21"/>
<path d="M222.437 174.616L144.414 166.671L143.461 181.9L178.836 184.764C181.274 184.965 183.729 184.778 186.108 184.209L222.502 175.612C222.618 175.584 222.72 175.516 222.791 175.419C222.861 175.323 222.896 175.205 222.888 175.086C222.88 174.967 222.83 174.855 222.748 174.769C222.665 174.683 222.555 174.628 222.437 174.615L222.437 174.616Z" fill="#090814"/>
<path d="M160.19 106.855L80.2508 105.87C78.2635 106 76.3867 106.83 74.954 108.212C74.328 108.813 73.8523 109.552 73.5652 110.37C73.2781 111.188 73.1877 112.062 73.3014 112.921L82.3688 174.194C82.8164 177.232 85.8766 179.575 89.6412 179.759L171.347 183.864C173.603 184.007 175.827 183.277 177.558 181.826C179.145 180.424 179.869 178.514 179.528 176.629L168.679 112.235C168.075 108.888 164.336 106.519 160.19 106.855Z" fill="#090814"/>
<path d="M122.617 139.224C124.721 139.224 126.427 137.52 126.427 135.417C126.427 133.315 124.721 131.611 122.617 131.611C120.514 131.611 118.808 133.315 118.808 135.417C118.808 137.52 120.514 139.224 122.617 139.224Z" fill="#F2F2F2"/>
<path d="M79.6274 0.583496H22.0992C18.9995 0.583496 16.4867 3.09434 16.4867 6.19162V8.99568C16.4867 12.093 18.9995 14.6038 22.0992 14.6038H79.6274C82.7271 14.6038 85.2399 12.093 85.2399 8.99568V6.19162C85.2399 3.09434 82.7271 0.583496 79.6274 0.583496Z" fill="#E6E6E6"/>
<path d="M24.9055 11.0988V4.08867H27.3894C27.8076 4.07324 28.2233 4.15961 28.6006 4.34034C28.899 4.4891 29.1463 4.72325 29.311 5.01296C29.4676 5.29905 29.5478 5.62064 29.5439 5.94671C29.5535 6.20477 29.4986 6.46115 29.3839 6.69259C29.2843 6.88092 29.1397 7.04177 28.963 7.16087C28.7891 7.27682 28.5977 7.36416 28.3961 7.41954V7.48544C28.6307 7.50305 28.8567 7.5808 29.0524 7.71117C29.28 7.85938 29.4675 8.0614 29.5983 8.29932C29.7519 8.58523 29.8274 8.90659 29.8171 9.23097C29.8219 9.56356 29.7382 9.89145 29.5747 10.1812C29.3972 10.478 29.1317 10.7123 28.815 10.8517C28.3901 11.0314 27.9307 11.1152 27.4697 11.0971L24.9055 11.0988ZM25.7993 10.3084H27.4459C27.8594 10.3477 28.2731 10.2356 28.6101 9.99297C28.7203 9.89726 28.8084 9.77869 28.8681 9.64552C28.9279 9.51235 28.9578 9.36778 28.956 9.22186C28.9577 8.99309 28.8957 8.76835 28.7771 8.57271C28.654 8.37137 28.4787 8.20703 28.2698 8.09708C28.0297 7.97264 27.7619 7.91113 27.4915 7.91832H25.7993V10.3084ZM25.7993 7.16578H27.3427C27.6905 7.17566 28.03 7.05853 28.2976 6.8363C28.4248 6.73064 28.5262 6.59727 28.5938 6.44641C28.6615 6.29555 28.6937 6.13121 28.688 5.96599C28.6908 5.82258 28.6641 5.68011 28.6095 5.54745C28.5549 5.4148 28.4735 5.29478 28.3705 5.19487C28.0922 4.96159 27.7327 4.84814 27.3708 4.87942H25.7993V7.16578Z" fill="#090814"/>
<path d="M45.5388 9.22543C45.4864 9.22521 45.4346 9.21452 45.3864 9.194C45.3382 9.17347 45.2946 9.14352 45.2582 9.10591C45.1832 9.02856 45.1413 8.92511 45.1413 8.81744C45.1413 8.70977 45.1832 8.60632 45.2582 8.52898L47.6509 6.08173C47.6874 6.04391 47.7313 6.01383 47.7797 5.99329C47.8282 5.97274 47.8803 5.96216 47.9329 5.96216C47.9855 5.96216 48.0376 5.97274 48.0861 5.99329C48.1345 6.01383 48.1784 6.04391 48.2149 6.08173C48.2899 6.15908 48.3318 6.26253 48.3318 6.3702C48.3318 6.47787 48.2899 6.58132 48.2149 6.65867L45.8208 9.10591C45.7842 9.14369 45.7404 9.17374 45.692 9.19427C45.6435 9.2148 45.5914 9.2254 45.5388 9.22543Z" fill="#1C1E21"/>
<path d="M48.7292 8.81826C48.6718 8.81824 48.615 8.80569 48.563 8.78147C48.5109 8.75725 48.4648 8.72195 48.4278 8.67805C48.3583 8.5958 48.3236 8.48975 48.3309 8.38234C48.3382 8.27494 48.3871 8.17459 48.4671 8.10252L48.6688 7.92306C49.329 7.23747 49.6366 5.8088 49.0586 5.21714C48.4805 4.62549 47.0844 4.93989 46.4137 5.61497L46.2383 5.82177C46.2046 5.86199 46.1632 5.89505 46.1165 5.91901C46.0699 5.94297 46.0189 5.95733 45.9665 5.96125C45.9142 5.96517 45.8616 5.95857 45.8119 5.94184C45.7622 5.92511 45.7163 5.89858 45.677 5.86383C45.5968 5.79201 45.5477 5.69186 45.5401 5.58453C45.5324 5.4772 45.5668 5.3711 45.636 5.28865L45.8194 5.06783C45.8257 5.06035 45.8323 5.05311 45.8391 5.0461C46.3409 4.56209 46.9788 4.2431 47.6674 4.13197C48.01 4.05007 48.3675 4.05352 48.7085 4.14202C49.0495 4.23052 49.3635 4.40135 49.623 4.63951C49.8574 4.91036 50.0246 5.23271 50.1107 5.58032C50.1969 5.92792 50.1998 6.29095 50.119 6.63985C50.0126 7.33763 49.701 7.98804 49.2238 8.50841C49.2172 8.51519 49.2104 8.52173 49.2034 8.52804L48.9905 8.71731C48.9188 8.78199 48.8258 8.81794 48.7292 8.81826Z" fill="#1C1E21"/>
<path d="M45.3076 11.0987C45.0407 11.1094 44.7744 11.0663 44.5245 10.9718C44.2746 10.8774 44.0464 10.7337 43.8533 10.5492C43.4005 10.0862 43.1467 9.46466 43.1461 8.81729C43.1461 8.09525 43.8663 7.06721 44.2518 6.67744L44.2686 6.66132L44.4791 6.4724C44.5179 6.43723 44.5634 6.4102 44.6129 6.39289C44.6624 6.37558 44.7148 6.36835 44.7671 6.37161C44.8194 6.37488 44.8706 6.38858 44.9175 6.41191C44.9644 6.43524 45.0062 6.46772 45.0404 6.50745C45.1105 6.5892 45.146 6.69501 45.1395 6.80248C45.1329 6.90996 45.0848 7.01068 45.0053 7.08333L44.805 7.26419C44.4265 7.64975 43.9435 8.46819 43.9435 8.81659C43.9438 9.24725 44.1126 9.66072 44.4139 9.96871C44.9944 10.5558 46.3923 10.2491 47.0731 9.5814L47.2134 9.38967C47.244 9.34685 47.2829 9.3106 47.3278 9.28308C47.3727 9.25557 47.4226 9.23735 47.4747 9.2295C47.5267 9.22165 47.5798 9.22434 47.6308 9.23741C47.6818 9.25047 47.7297 9.27364 47.7715 9.30555C47.8563 9.37153 47.9122 9.46783 47.9273 9.57415C47.9424 9.68047 47.9156 9.78851 47.8526 9.87547L47.6944 10.0931C47.6823 10.1097 47.6691 10.1252 47.6547 10.1398C47.1492 10.6231 46.5087 10.9417 45.818 11.0535C45.6494 11.0826 45.4787 11.0977 45.3076 11.0987Z" fill="#1C1E21"/>
<path d="M55.0727 0.583496H54.3712V14.6038H55.0727V0.583496Z" fill="white"/>
<path d="M35.4289 11.0986L36.2873 6.00609H37.1222L36.2642 11.0986H35.4289ZM36.8489 5.17259C36.7776 5.1753 36.7065 5.16233 36.6407 5.13459C36.575 5.10685 36.5161 5.06502 36.4683 5.01205C36.4217 4.96111 36.3879 4.89986 36.3696 4.83333C36.3513 4.76679 36.3491 4.69687 36.3631 4.6293C36.389 4.47498 36.4739 4.33676 36.5998 4.24374C36.7227 4.14268 36.8767 4.0872 37.0359 4.08671C37.1077 4.08338 37.1795 4.0957 37.2461 4.12282C37.3127 4.14993 37.3726 4.19119 37.4217 4.24374C37.4687 4.29502 37.5027 4.35675 37.521 4.4238C37.5393 4.49085 37.5414 4.5613 37.527 4.6293C37.4995 4.78247 37.4146 4.91939 37.2895 5.01205C37.1659 5.11537 37.01 5.17217 36.8489 5.17259Z" fill="#1C1E21"/>
<path d="M63.4915 5.49072C63.6302 5.49072 63.7659 5.53184 63.8812 5.60887C63.9966 5.68589 64.0865 5.79538 64.1396 5.92347C64.1927 6.05156 64.2066 6.19252 64.1795 6.3285C64.1525 6.46448 64.0857 6.58939 63.9875 6.68743C63.8894 6.78547 63.7644 6.85223 63.6283 6.87928C63.4922 6.90633 63.3512 6.89245 63.223 6.83939C63.0948 6.78633 62.9852 6.69648 62.9081 6.5812C62.831 6.46592 62.7899 6.33039 62.7899 6.19174C62.7899 6.00582 62.8638 5.82751 62.9954 5.69605C63.127 5.56458 63.3054 5.49072 63.4915 5.49072Z" fill="#090814"/>
<path d="M60.6852 4.08862H64.8946C65.2667 4.08862 65.6236 4.23634 65.8868 4.49927C66.1499 4.7622 66.2977 5.11881 66.2977 5.49065V9.69674C66.2977 10.0686 66.1499 10.4252 65.8868 10.6881C65.6236 10.9511 65.2667 11.0988 64.8946 11.0988H60.6852C60.3131 11.0988 59.9562 10.9511 59.6931 10.6881C59.4299 10.4252 59.2821 10.0686 59.2821 9.69674V5.49065C59.2821 5.11881 59.4299 4.7622 59.6931 4.49927C59.9562 4.23634 60.3131 4.08862 60.6852 4.08862ZM64.8946 10.3978C65.0807 10.3978 65.2591 10.3239 65.3907 10.1924C65.5222 10.061 65.5962 9.88267 65.5962 9.69674V5.49065C65.5962 5.30473 65.5222 5.12643 65.3907 4.99496C65.2591 4.86349 65.0807 4.78964 64.8946 4.78964H60.6852C60.4991 4.78964 60.3207 4.86349 60.1891 4.99496C60.0576 5.12643 59.9837 5.30473 59.9837 5.49065V9.69674C59.9837 9.88267 60.0576 10.061 60.1891 10.1924C60.3207 10.3239 60.4991 10.3978 60.6852 10.3978H64.8946Z" fill="#1C1E21"/>
<path d="M64.193 9.34625C64.1 9.34623 64.0108 9.30929 63.945 9.24356L62.1936 7.49347C62.16 7.45133 62.1173 7.4173 62.0687 7.39392C62.0201 7.37053 61.9669 7.35838 61.913 7.35838C61.859 7.35838 61.8058 7.37053 61.7572 7.39392C61.7086 7.4173 61.6659 7.45133 61.6323 7.49347L59.8809 9.24356C59.8485 9.27703 59.8098 9.30374 59.767 9.32211C59.7242 9.34047 59.6782 9.35014 59.6316 9.35055C59.585 9.35095 59.5388 9.34208 59.4957 9.32446C59.4526 9.30684 59.4135 9.28081 59.3805 9.2479C59.3476 9.21499 59.3215 9.17586 59.3039 9.13278C59.2863 9.0897 59.2774 9.04355 59.2778 8.99701C59.2782 8.95047 59.2879 8.90447 59.3063 8.86171C59.3246 8.81895 59.3514 8.78027 59.3849 8.74794L61.1388 6.9954L61.1437 6.99084C61.2425 6.88604 61.3618 6.80253 61.4941 6.74546C61.6264 6.68838 61.769 6.65894 61.9131 6.65894C62.0573 6.65894 62.1999 6.68838 62.3322 6.74546C62.4645 6.80253 62.5837 6.88604 62.6826 6.99084L62.6875 6.9954L64.4414 8.74794C64.4905 8.79698 64.5239 8.85946 64.5374 8.92747C64.5509 8.99549 64.5439 9.06598 64.5173 9.13003C64.4907 9.19408 64.4457 9.24882 64.388 9.28731C64.3303 9.32579 64.2624 9.34631 64.193 9.34625Z" fill="#1C1E21"/>
<path d="M65.9469 9.34617C65.8539 9.34615 65.7647 9.30921 65.6989 9.24347L64.649 8.1944C64.6154 8.15226 64.5727 8.11823 64.5242 8.09484C64.4756 8.07146 64.4223 8.05931 64.3684 8.05931C64.3145 8.05931 64.2613 8.07146 64.2127 8.09484C64.1641 8.11823 64.1214 8.15226 64.0878 8.1944L63.7395 8.54245C63.6733 8.6063 63.5847 8.64163 63.4927 8.64083C63.4007 8.64003 63.3128 8.60317 63.2477 8.53818C63.1827 8.4732 63.1458 8.38529 63.145 8.29338C63.1442 8.20148 63.1796 8.11294 63.2435 8.04684L63.5942 7.69633L63.5992 7.69177C63.698 7.58697 63.8172 7.50346 63.9496 7.44638C64.0819 7.38931 64.2245 7.35986 64.3686 7.35986C64.5127 7.35986 64.6553 7.38931 64.7876 7.44638C64.9199 7.50346 65.0392 7.58697 65.138 7.69177L65.1429 7.69633L66.1953 8.74785C66.2443 8.79689 66.2778 8.85937 66.2913 8.92739C66.3048 8.9954 66.2978 9.06589 66.2712 9.12994C66.2446 9.194 66.1996 9.24873 66.1419 9.28722C66.0842 9.32571 66.0163 9.34622 65.9469 9.34617Z" fill="#1C1E21"/>
<path d="M77.2158 11.0988C76.955 11.0938 76.7069 10.9855 76.526 10.7977C76.3451 10.6099 76.2463 10.358 76.2512 10.0974V7.09324C76.2512 5.52577 77.0471 4.49283 78.5456 4.10376C78.608 4.08843 78.6728 4.08573 78.7363 4.09583C78.7997 4.10593 78.8605 4.12862 78.915 4.16256C78.9696 4.1965 79.0167 4.241 79.0538 4.29345C79.0908 4.3459 79.117 4.40523 79.1307 4.46794C79.1631 4.5949 79.1445 4.72948 79.079 4.84296C79.0135 4.95643 78.9062 5.03984 78.7799 5.07537C77.7059 5.35578 77.2158 5.9902 77.2158 7.09324V7.59377H78.6628C78.9105 7.59842 79.1474 7.69648 79.3258 7.86828C79.5043 8.04009 79.6111 8.27294 79.625 8.52016L79.6274 8.59517V10.0974C79.6323 10.358 79.5335 10.6099 79.3526 10.7977C79.1717 10.9855 78.9236 11.0938 78.6628 11.0988H77.2158Z" fill="#1C1E21"/>
<path d="M72.8749 11.0987C72.6141 11.0937 72.366 10.9853 72.1851 10.7976C72.0042 10.6098 71.9054 10.3579 71.9102 10.0973V7.09314C71.9102 5.52602 72.7062 4.49307 74.2047 4.10401C74.2671 4.08867 74.3319 4.08598 74.3954 4.09607C74.4588 4.10617 74.5196 4.12886 74.5741 4.1628C74.6286 4.19674 74.6758 4.24125 74.7129 4.2937C74.7499 4.34615 74.7761 4.40547 74.7898 4.46819C74.8222 4.59515 74.8036 4.72972 74.7381 4.8432C74.6725 4.95668 74.5652 5.04008 74.439 5.07561C73.3649 5.35602 72.8749 5.99044 72.8749 7.09349V7.59366H74.3219C74.5696 7.59832 74.8065 7.69637 74.9849 7.86818C75.1633 8.03998 75.2702 8.27283 75.2841 8.52005L75.2865 8.59506V10.0973C75.2914 10.3579 75.1925 10.6098 75.0116 10.7976C74.8308 10.9853 74.5826 11.0937 74.3219 11.0987H72.8749Z" fill="#1C1E21"/>
<path d="M71.6342 41.2549C71.4715 41.3122 71.3382 41.4317 71.2635 41.587C71.1888 41.7424 71.1788 41.9211 71.2357 42.0838L80.3339 68.2857C80.3913 68.4482 80.5108 68.5814 80.6663 68.6561C80.8218 68.7307 81.0006 68.7407 81.1635 68.6838L134.102 50.1245C134.265 50.0671 134.398 49.9477 134.473 49.7923C134.547 49.6369 134.557 49.4582 134.501 49.2955L125.402 23.0933C125.345 22.9307 125.225 22.7975 125.07 22.7229C124.914 22.6483 124.736 22.6383 124.573 22.6951L71.6342 41.2549Z" fill="#E6E6E6"/>
<path d="M85.0337 64.9022C83.9918 64.9019 82.9756 64.5792 82.1247 63.9785C81.2738 63.3778 80.63 62.5286 80.2816 61.5475L75.2851 47.422C75.0647 46.7991 74.9693 46.1389 75.0043 45.4791C75.0393 44.8193 75.204 44.1729 75.489 43.5767C75.7741 42.9805 76.1738 42.4463 76.6654 42.0045C77.1571 41.5627 77.731 41.222 78.3544 41.0018L112.308 29.706C122.736 26.0358 126.97 33.34 130.668 43.7522C130.888 44.3752 130.984 45.0354 130.949 45.6951C130.914 46.3549 130.749 47.0014 130.464 47.5975C130.179 48.1937 129.779 48.7279 129.288 49.1698C128.796 49.6116 128.222 49.9523 127.599 50.1725L86.7065 64.6134C86.1692 64.8036 85.6034 64.9009 85.0333 64.9011L85.0337 64.9022Z" fill="white"/>
<path d="M120.515 37.0578L96.5565 45.4567C96.2191 45.5752 95.8006 45.2586 95.622 44.7504C95.4435 44.2422 95.5726 43.7339 95.91 43.6155L119.868 35.2163C120.206 35.0978 120.624 35.4143 120.803 35.9225C120.981 36.4308 120.853 36.9404 120.515 37.0578Z" fill="#090814"/>
<path d="M122.368 42.3338L98.4093 50.7331C98.0719 50.8515 97.6534 50.535 97.4748 50.0268C97.2963 49.5186 97.4254 49.0103 97.7628 48.8918L121.721 40.4926C122.059 40.3742 122.477 40.6907 122.656 41.1989C122.834 41.7071 122.705 42.2171 122.368 42.3338Z" fill="#090814"/>
<path d="M86.4129 51.5118C87.2526 51.5118 87.9332 50.8317 87.9332 49.9927C87.9332 49.1538 87.2526 48.4736 86.4129 48.4736C85.5733 48.4736 84.8927 49.1538 84.8927 49.9927C84.8927 50.8317 85.5733 51.5118 86.4129 51.5118Z" fill="#090814"/>
<path d="M80.5791 56.0353C80.9695 55.1303 81.4308 53.7494 82.4993 54.252C83.0272 54.4809 83.9725 55.1756 84.3566 54.3673L87.3628 48.0795C87.4198 47.9623 87.4997 47.8576 87.5977 47.7716C87.6958 47.6856 87.8101 47.6201 87.9338 47.5788C88.0576 47.5376 88.1883 47.5215 88.3184 47.5314C88.4485 47.5414 88.5752 47.5772 88.6913 47.6368L94.0354 50.4307C94.0292 50.8641 93.9864 51.2962 93.9074 51.7224L80.8934 56.3189L80.5791 56.0353Z" fill="#4A90E2"/>
<path d="M37.4524 100.426L4.24718 93.9794C3.12122 93.7594 2.12867 93.1021 1.48734 92.1515C0.846012 91.2009 0.6083 90.0347 0.826369 88.9089L8.41189 49.9343C8.6322 48.8092 9.29007 47.8171 10.2412 47.1759C11.1923 46.5347 12.359 46.2966 13.4852 46.514L44.3771 52.5111L49.9204 59.011L42.5259 97.0042C42.3058 98.1296 41.648 99.1219 40.6969 99.7634C39.7457 100.405 38.5788 100.643 37.4524 100.426Z" fill="#E6E6E6"/>
<path d="M13.2474 47.7359C12.4454 47.5816 11.6148 47.7513 10.9376 48.2079C10.2604 48.6644 9.7918 49.3706 9.63448 50.1716L2.04883 89.1469C1.89424 89.9485 2.06385 90.7785 2.52049 91.4552C2.97714 92.1319 3.68359 92.6 4.48508 92.757L37.6903 99.2033C38.4923 99.3576 39.3229 99.1878 40.0001 98.7313C40.6773 98.2747 41.1459 97.5686 41.3032 96.7675L48.5833 59.362L43.7117 53.65L13.2474 47.7359Z" fill="white"/>
<path d="M37.7881 64.2643L22.6685 61.3282C22.4808 61.2918 22.3154 61.1823 22.2085 61.0239C22.1017 60.8655 22.0621 60.6712 22.0986 60.4836C22.1351 60.296 22.2447 60.1306 22.4031 60.0237C22.5616 59.9169 22.7561 59.8773 22.9437 59.9137L38.0633 62.8498C38.251 62.8862 38.4164 62.9957 38.5233 63.1541C38.6301 63.3125 38.6696 63.5068 38.6332 63.6944C38.5967 63.882 38.4871 64.0474 38.3286 64.1543C38.1702 64.2611 37.9757 64.3007 37.7881 64.2643Z" fill="#4A90E2"/>
<path d="M40.242 67.2163L22.2044 63.7135C22.0168 63.6771 21.8514 63.5676 21.7445 63.4092C21.6376 63.2508 21.5981 63.0565 21.6346 62.8689C21.6711 62.6813 21.7806 62.5159 21.9391 62.409C22.0976 62.3021 22.292 62.2626 22.4796 62.299L40.5172 65.8017C40.7048 65.8382 40.8703 65.9476 40.9771 66.106C41.084 66.2644 41.1235 66.4588 41.087 66.6464C41.0505 66.834 40.941 66.9994 40.7825 67.1063C40.624 67.2131 40.4296 67.2527 40.242 67.2163Z" fill="#4A90E2"/>
<path d="M35.9842 73.5396L20.8649 70.6036C20.6773 70.5672 20.4829 70.6068 20.3244 70.7136C20.166 70.8205 20.0565 70.9859 20.02 71.1734C19.9835 71.3609 20.023 71.5552 20.1299 71.7136C20.2367 71.8719 20.4021 71.9814 20.5897 72.0178L35.709 74.9538C35.8966 74.9902 36.091 74.9506 36.2494 74.8438C36.4078 74.7369 36.5173 74.5716 36.5538 74.384C36.5903 74.1965 36.5508 74.0022 36.444 73.8438C36.3371 73.6855 36.1717 73.5761 35.9842 73.5396Z" fill="#CCCCCC"/>
<path d="M38.4379 76.4923L20.4007 72.9896C20.2131 72.9532 20.0187 72.9928 19.8603 73.0996C19.7018 73.2065 19.5923 73.3719 19.5558 73.5594C19.5194 73.7469 19.5589 73.9412 19.6657 74.0996C19.7725 74.258 19.9379 74.3674 20.1255 74.4038L38.1627 77.9065C38.3503 77.9429 38.5447 77.9034 38.7031 77.7965C38.8616 77.6897 38.9711 77.5243 39.0076 77.3368C39.0441 77.1492 39.0045 76.9549 38.8977 76.7965C38.7909 76.6382 38.6255 76.5287 38.4379 76.4923Z" fill="#CCCCCC"/>
<path d="M33.6289 85.6445L18.5093 82.7085C18.3217 82.672 18.1563 82.5626 18.0495 82.4043C17.9426 82.2459 17.9031 82.0516 17.9396 81.8641C17.9761 81.6765 18.0856 81.5111 18.244 81.4043C18.4025 81.2975 18.5969 81.2579 18.7844 81.2943L33.9041 84.2304C34.0917 84.2668 34.2572 84.3763 34.364 84.5347C34.4709 84.6931 34.5104 84.8874 34.4739 85.075C34.4374 85.2626 34.3279 85.428 34.1694 85.5349C34.0109 85.6417 33.8165 85.6813 33.6289 85.6449L33.6289 85.6445Z" fill="#CCCCCC"/>
<path d="M36.0827 88.5971L18.0452 85.0944C17.8576 85.0579 17.6921 84.9485 17.5853 84.7901C17.4784 84.6317 17.4389 84.4373 17.4754 84.2497C17.5119 84.0622 17.6214 83.8967 17.7799 83.7899C17.9383 83.683 18.1328 83.6434 18.3204 83.6799L36.358 87.1826C36.5456 87.219 36.711 87.3285 36.8179 87.4869C36.9247 87.6453 36.9643 87.8397 36.9278 88.0272C36.8913 88.2148 36.7817 88.3802 36.6233 88.4871C36.4648 88.594 36.2704 88.6336 36.0827 88.5971Z" fill="#CCCCCC"/>
<path d="M15.7915 63.0889C17.1722 63.3569 18.5091 62.4556 18.7777 61.0757C19.0463 59.6957 18.1447 58.3598 16.7641 58.0918C15.3834 57.8237 14.0464 58.7251 13.7778 60.105C13.5093 61.4849 14.4108 62.8209 15.7915 63.0889Z" fill="#4A90E2"/>
<path d="M15.8444 61.4951C15.7882 61.4843 15.737 61.4554 15.6986 61.4129L15.6951 61.4104L15.1973 60.8474C15.155 60.7941 15.1347 60.7266 15.1408 60.6588C15.1468 60.591 15.1786 60.5281 15.2297 60.483C15.2807 60.438 15.3471 60.4143 15.4152 60.4167C15.4832 60.4191 15.5478 60.4476 15.5954 60.4962L15.9186 60.8589L17.0456 59.8635C17.0717 59.8402 17.1021 59.8223 17.1351 59.8108C17.1681 59.7993 17.203 59.7944 17.2379 59.7964C17.2728 59.7984 17.3069 59.8072 17.3384 59.8224C17.3699 59.8376 17.398 59.8589 17.4212 59.885L17.4139 59.8918L17.4212 59.8853C17.4678 59.9381 17.4916 60.0073 17.4873 60.0776C17.483 60.148 17.4509 60.2137 17.3982 60.2605L16.0722 61.4337C16.0418 61.4609 16.0055 61.4807 15.9662 61.4916C15.9269 61.5026 15.8856 61.5043 15.8455 61.4968L15.8444 61.4951Z" fill="white"/>
<path d="M16.9551 71.8153C16.8913 72.1435 16.7635 72.4559 16.5789 72.7347C16.3943 73.0135 16.1566 73.2533 15.8793 73.4403C15.602 73.6273 15.2906 73.7579 14.9628 73.8247C14.6351 73.8914 14.2974 73.893 13.969 73.8293C13.9475 73.8256 13.9261 73.8206 13.9051 73.8144C13.4161 73.7064 12.9698 73.4566 12.6221 73.0964C12.2745 72.7361 12.0408 72.2813 11.9505 71.789C11.8602 71.2966 11.9172 70.7886 12.1144 70.3283C12.3115 69.8681 12.6401 69.4762 13.059 69.2016C13.4778 68.927 13.9684 68.7819 14.4693 68.7845C14.9702 68.7872 15.4591 68.9374 15.8749 69.2163C16.2907 69.4953 16.615 69.8907 16.807 70.3529C16.9991 70.8152 17.0508 71.3239 16.9551 71.8153Z" fill="#4A90E2"/>
<path d="M11.6322 84.4695C13.0129 84.7376 14.3499 83.8362 14.6185 82.4563C14.887 81.0764 13.9855 79.7404 12.6048 79.4724C11.2241 79.2043 9.88716 80.1057 9.61859 81.4856C9.35002 82.8656 10.2516 84.2015 11.6322 84.4695Z" fill="#4A90E2"/>
<path d="M49.7599 59.1589L44.6205 58.1612C44.2454 58.0883 43.9146 57.8694 43.701 57.5528C43.4873 57.2361 43.4083 56.8476 43.4813 56.4726L44.2196 52.6791C44.223 52.6626 44.2309 52.6473 44.2425 52.6351C44.254 52.6228 44.2688 52.614 44.2852 52.6098C44.3015 52.6055 44.3187 52.6059 44.3348 52.6109C44.3509 52.6159 44.3652 52.6253 44.3762 52.6381L49.8453 59.0119C49.8574 59.0261 49.8648 59.0437 49.8665 59.0623C49.8682 59.0809 49.8641 59.0995 49.8547 59.1156C49.8453 59.1318 49.8312 59.1446 49.8142 59.1524C49.7972 59.1601 49.7782 59.1624 49.7599 59.1589Z" fill="#E6E6E6"/>
</g>
<defs>
<clipPath id="clip0_441_1267">
<rect width="300" height="192" fill="white" transform="translate(0 0.5)"/>
</clipPath>
</defs>
</svg>
