<svg width="300" height="251" viewBox="0 0 300 251" fill="none" xmlns="http://www.w3.org/2000/svg">
<g clip-path="url(#clip0_441_1485)">
<path d="M256.742 113.23H264.771V122.778H256.742V113.23Z" fill="#ED9DA0"/>
<path d="M278.532 245.965H273.845L271.614 227.905H278.533L278.532 245.965Z" fill="#ED9DA0"/>
<path d="M260.563 245.965H255.875L253.645 227.905H260.563L260.563 245.965Z" fill="#ED9DA0"/>
<path d="M65.5159 249.836V111.232C65.5159 110.378 65.8554 109.559 66.4597 108.955C67.064 108.352 67.8836 108.013 68.7383 108.013H83.1176C83.9723 108.013 84.7919 108.352 85.3962 108.955C86.0005 109.559 86.34 110.378 86.34 111.232V250.197L65.5159 249.836Z" fill="#3F3D56"/>
<path d="M113.009 250.27V140.061C113.009 139.638 113.093 139.22 113.255 138.829C113.416 138.439 113.654 138.084 113.953 137.785C114.252 137.486 114.608 137.249 114.998 137.087C115.389 136.925 115.808 136.842 116.232 136.842H130.611C131.466 136.842 132.285 137.181 132.89 137.785C133.494 138.388 133.833 139.207 133.833 140.061V250.033L113.009 250.27Z" fill="#3F3D56"/>
<path d="M28.617 119.332C28.4053 119.332 28.1981 119.271 28.0205 119.156C27.8428 119.041 27.7024 118.877 27.6161 118.684C27.5298 118.491 27.5014 118.277 27.5343 118.068C27.5672 117.859 27.6599 117.664 27.8014 117.507L75.8809 63.9379L123.198 90.4793L170.797 8.55298L219.287 48.4199C219.507 48.6059 219.644 48.8708 219.67 49.1573C219.696 49.4437 219.608 49.7288 219.425 49.9509C219.242 50.1729 218.978 50.3141 218.692 50.344C218.406 50.3738 218.119 50.29 217.894 50.1104L171.398 11.8823L124.009 93.4453L76.3399 66.7065L29.4334 118.967C29.3307 119.082 29.2049 119.174 29.0642 119.237C28.9236 119.3 28.7711 119.332 28.617 119.332Z" fill="#3F3D56"/>
<path d="M28.4344 128.456C34.0838 128.456 38.6636 123.881 38.6636 118.238C38.6636 112.595 34.0838 108.02 28.4344 108.02C22.7849 108.02 18.2051 112.595 18.2051 118.238C18.2051 123.881 22.7849 128.456 28.4344 128.456Z" fill="#4A90E2"/>
<path d="M75.9277 75.5407C81.5772 75.5407 86.157 70.966 86.157 65.3227C86.157 59.6795 81.5772 55.1047 75.9277 55.1047C70.2783 55.1047 65.6985 59.6795 65.6985 65.3227C65.6985 70.966 70.2783 75.5407 75.9277 75.5407Z" fill="#E6E6E6"/>
<path d="M123.421 102.181C129.071 102.181 133.65 97.6059 133.65 91.9626C133.65 86.3194 129.071 81.7446 123.421 81.7446C117.772 81.7446 113.192 86.3194 113.192 91.9626C113.192 97.6059 117.772 102.181 123.421 102.181Z" fill="#E6E6E6"/>
<path d="M170.914 20.436C176.564 20.436 181.144 15.8612 181.144 10.218C181.144 4.57475 176.564 0 170.914 0C165.265 0 160.685 4.57475 160.685 10.218C160.685 15.8612 165.265 20.436 170.914 20.436Z" fill="#4A90E2"/>
<path d="M261.665 89.6899C267.578 89.6899 272.37 84.9023 272.37 78.9966C272.37 73.0908 267.578 68.3032 261.665 68.3032C255.753 68.3032 250.96 73.0908 250.96 78.9966C250.96 84.9023 255.753 89.6899 261.665 89.6899Z" fill="#4A90E2"/>
<path d="M260.155 161.982C264.162 162.464 274.408 158.813 274.963 164.368C280.237 179.876 280.081 239.32 280.081 239.32L272.052 239.702C272.052 239.702 265.636 192.47 262.602 182.365C261.079 194.647 261.346 241.612 261.346 241.612L254.082 241.993C254.082 241.993 247.566 202.001 247.529 190.263C246.737 181.665 248.679 168.923 247.848 160.611C251.821 161.869 256.002 162.335 260.155 161.982Z" fill="#090814"/>
<path d="M207.996 249.779V90.0287C207.996 87.9801 209.439 86.3203 211.218 86.3203H225.598C227.377 86.3203 228.82 87.9812 228.82 90.0287V250.197L207.996 249.779Z" fill="#3F3D56"/>
<path d="M246.526 116.994C244.919 113.712 242.957 110.617 240.673 107.763C240.196 107.206 239.762 106.613 239.373 105.991C238.551 104.567 238.306 102.893 237.787 101.336C236.334 96.9663 232.709 93.4568 231.826 88.9385C231.505 87.2964 228.792 92.0693 229.505 94.1056C230.78 97.7912 230.943 101.694 232.564 105.254C234.185 108.813 236.089 112.227 237.488 115.867C238.284 117.933 238.918 120.068 240.084 121.978C241.251 123.887 243.07 125.487 245.269 125.774C245.254 124.389 245.464 123.012 245.892 121.695C246.37 120.19 247.219 118.418 246.526 116.994Z" fill="#ED9DA0"/>
<path d="M270.579 119.468C270.481 116.768 270.903 114.074 271.822 111.532C272.174 110.558 272.586 109.569 272.552 108.536C272.502 107.573 272.043 106.691 271.627 105.82C270.189 102.823 269.18 99.6447 268.186 96.4749L266.273 90.498C265.65 90.0414 269.29 89.8833 270.066 90.9565C272.605 94.4776 274.529 98.5232 276.539 102.368C277.052 103.284 277.489 104.241 277.847 105.228C278.338 106.829 278.57 108.497 278.535 110.17C278.535 113.298 278.122 116.415 277.694 119.515C277.422 121.46 277.067 123.575 275.594 124.862C274.066 122.905 272.529 120.996 270.579 119.468Z" fill="#ED9DA0"/>
<path d="M260.47 117.269C264.852 117.269 268.404 113.721 268.404 109.344C268.404 104.967 264.852 101.419 260.47 101.419C256.089 101.419 252.537 104.967 252.537 109.344C252.537 113.721 256.089 117.269 260.47 117.269Z" fill="#ED9DA0"/>
<path d="M254.019 101.436C253.93 101.196 253.91 100.935 253.961 100.683C254.012 100.432 254.133 100.199 254.31 100.013C254.508 99.857 254.771 99.7985 254.985 99.6498C255.287 99.3963 255.534 99.0841 255.711 98.7321C256.253 97.9746 257.046 97.4332 257.949 97.2041C258.853 96.975 259.808 97.073 260.646 97.4806C261.959 98.1661 262.749 99.5386 263.915 100.463C264.507 100.941 265.193 101.297 265.79 101.776C266.983 102.805 267.831 104.175 268.219 105.701C268.607 107.217 268.833 108.769 268.894 110.332C268.957 110.801 268.938 111.277 268.84 111.74C268.719 112.128 268.539 112.495 268.306 112.828C267.106 114.642 265.528 116.289 263.549 117.225C261.57 118.161 259.161 118.313 257.211 117.334C257.014 117.255 256.845 117.12 256.724 116.946C256.613 116.681 256.587 116.388 256.649 116.108C256.755 114.999 256.535 113.883 256.017 112.897C255.654 112.172 255.109 111.549 254.817 110.797C254.547 109.956 254.431 109.074 254.475 108.192C254.439 105.911 254.594 103.636 254.019 101.436Z" fill="#090814"/>
<path d="M18.0221 249.996V172.871C18.0221 171.882 19.4648 171.08 21.2445 171.08H35.6239C37.4033 171.08 38.8463 171.883 38.8463 172.871V250.197L18.0221 249.996Z" fill="#4A90E2"/>
<path d="M299.635 251H0.36525C0.268379 251 0.175477 250.962 0.106979 250.893C0.0384817 250.825 0 250.732 0 250.635C0 250.539 0.0384817 250.446 0.106979 250.377C0.175477 250.309 0.268379 250.271 0.36525 250.271H299.635C299.732 250.271 299.825 250.309 299.893 250.377C299.962 250.446 300 250.539 300 250.635C300 250.732 299.962 250.825 299.893 250.893C299.825 250.962 299.732 251 299.635 251Z" fill="#E6E6E6"/>
<path d="M160.502 249.723V68.4375C160.502 66.1125 161.945 64.2275 163.725 64.2275H178.104C179.883 64.2275 181.326 66.1125 181.326 68.4375V250.197L160.502 249.723Z" fill="#4A90E2"/>
<path d="M229.284 93.1281C231.184 93.1281 232.725 91.5892 232.725 89.6909C232.725 87.7926 231.184 86.2537 229.284 86.2537C227.383 86.2537 225.843 87.7926 225.843 89.6909C225.843 91.5892 227.383 93.1281 229.284 93.1281Z" fill="#ED9DA0"/>
<path d="M267.517 91.6005C269.417 91.6005 270.958 90.0616 270.958 88.1633C270.958 86.265 269.417 84.7261 267.517 84.7261C265.616 84.7261 264.076 86.265 264.076 88.1633C264.076 90.0616 265.616 91.6005 267.517 91.6005Z" fill="#ED9DA0"/>
<path d="M275.879 130.711C276.216 130.405 278.952 114.414 278.936 114.053C278.893 112.084 272.876 109.833 271.671 110.616C270.535 111.355 268.557 119.831 267.284 121.373L265.937 119.018H255.231L254.582 120.222C253.178 119.376 251.914 118.597 251.463 118.339C251.308 118.234 251.14 118.151 250.962 118.093C249.849 117.844 248.805 117.354 247.904 116.656C247.024 115.982 242.943 108.903 241.85 109.09C240.615 109.296 236.45 112.894 236.497 116.346C237.022 116.335 243.843 129.96 243.939 130.468C244.464 132.614 246.192 163.916 246.751 165.375C249.323 165.126 247.293 164.683 249.782 165.375C252.462 166.119 255.291 165.313 258.055 165.016C259.206 164.902 260.362 164.851 261.519 164.863C265.725 164.882 271.727 165.115 275.799 166.157C275.822 163.492 273.478 157.725 272.612 155.208C272.498 154.456 272.502 153.691 272.623 152.94C272.732 152.018 274.971 131.73 275.879 130.711Z" fill="#E6E6E6"/>
<path d="M255.322 243.358C255.322 243.358 250.524 246.704 247.642 246.56C244.759 246.416 244.327 249.692 247.642 250.124C250.956 250.556 259.714 250.699 260.579 250.124C261.444 249.548 261.156 243.502 260.579 243.358C260.003 243.214 255.322 243.358 255.322 243.358Z" fill="#090814"/>
<path d="M273.717 243.358C273.717 243.358 268.919 246.704 266.037 246.56C263.155 246.416 262.722 249.692 266.037 250.124C269.352 250.556 278.11 250.699 278.974 250.124C279.839 249.548 279.551 243.502 278.974 243.358C278.398 243.214 273.717 243.358 273.717 243.358Z" fill="#090814"/>
</g>
<defs>
<clipPath id="clip0_441_1485">
<rect width="300" height="251" fill="white"/>
</clipPath>
</defs>
</svg>
