<svg width="300" height="181" viewBox="0 0 300 181" fill="none" xmlns="http://www.w3.org/2000/svg">
<g clip-path="url(#clip0_441_1330)">
<path d="M47.3737 32.8933C47.3748 27.9445 48.7488 23.0928 51.343 18.877C53.9373 14.6611 57.6503 11.2461 62.0699 9.01102C66.4894 6.77595 71.4426 5.80833 76.3793 6.21558C81.3161 6.62284 86.0433 8.38904 90.036 11.3181C94.0287 14.2471 97.1308 18.2244 98.9977 22.8083C100.865 27.3921 101.423 32.4032 100.612 37.2852C99.8005 42.1671 97.6506 46.7289 94.4009 50.4639C91.1512 54.199 86.929 56.9612 82.203 58.4438L81.306 109.971L40.3447 69.5792C40.3447 69.5792 56.3163 63.401 59.3763 55.2144C55.6847 52.775 52.6561 49.4593 50.5615 45.5639C48.467 41.6686 47.3714 37.3151 47.3737 32.8933Z" fill="#ED9DA0"/>
<path d="M59.496 55.2302C59.496 55.2302 50.352 51.9768 45.6645 42.4748C41.3587 33.7457 40.8866 18.8792 53.112 15.2681C53.112 15.2681 46.0687 9.1929 59.0542 5.48995L57.327 7.08217C57.327 7.08217 58.8514 4.33194 66.3784 5.95825C66.3784 5.95825 94.1921 2.72174 99.129 11.8708C99.129 11.8708 114.057 14.9271 106.107 26.272C106.107 26.272 105.695 28.4798 102.86 28.4382L104.277 26.5863L99.9577 28.4382C99.9577 28.4382 93.9506 18.8792 88.281 24.1647C88.281 24.1647 77.4375 23.7087 72.2512 22.7598C72.2512 22.7598 73.2922 36.6754 63.3382 39.3855C53.3842 42.0957 59.4964 55.2283 59.4964 55.2283L59.496 55.2302Z" fill="#090814"/>
<path d="M151.451 145.155L102.468 174.348L98.3944 155.381L144.807 133.352C145.686 130.018 148.116 126.831 151.722 124.806C158.03 121.262 165.524 122.617 168.46 127.832C171.396 133.048 168.662 140.149 162.354 143.693C158.748 145.719 154.759 146.138 151.452 145.157L151.451 145.155Z" fill="#ED9DA0"/>
<path d="M155.609 143.653H145.632C144.795 143.649 143.985 143.361 143.334 142.837C142.682 142.313 142.228 141.583 142.046 140.768C141.911 140.143 141.942 139.493 142.135 138.883C142.328 138.274 142.677 137.725 143.147 137.291L173.57 109.316C174.041 108.883 174.663 108.653 175.303 108.675L184.961 109.008C185.432 109.024 185.888 109.177 186.274 109.447C186.659 109.717 186.959 110.093 187.135 110.529C187.311 110.965 187.357 111.443 187.267 111.905C187.176 112.367 186.954 112.793 186.626 113.131L158.027 142.631C157.712 142.954 157.336 143.21 156.921 143.386C156.506 143.561 156.06 143.652 155.609 143.653Z" fill="#090814"/>
<path d="M49.3972 62.7886C60.687 74.1218 71.4097 77.1643 81.2722 67.7147L95.2046 169.706L89.412 178.092L54.183 178.192L49.3972 62.7886Z" fill="#4A90E2"/>
<path d="M47.5436 61.7631L41.6527 66.6005L23.7682 76.7982C19.9516 78.215 16.5107 80.4866 13.7097 83.4387C10.9086 86.3907 8.82178 89.9447 7.60945 93.8279C4.75182 103.002 2.72505 112.413 1.55358 121.95C-1.38605 146.062 0.748828 177.857 0.748828 177.857L27.939 178.093L26.757 162.148L22.383 122.699L22.4988 178.191H54.1837C54.1837 178.191 56.352 84.0734 51.627 63.1437C51.5293 62.7235 51.3259 62.3352 51.0359 62.0156C50.7459 61.696 50.379 61.4557 49.97 61.3174C49.561 61.1792 49.1235 61.1476 48.6988 61.2257C48.2742 61.3037 47.8765 61.4889 47.5436 61.7635V61.7631Z" fill="#090814"/>
<path d="M81.2727 67.7144L102.696 78.0061C106.321 79.7473 109.495 82.3011 111.97 85.4684C114.445 88.6358 116.154 92.3312 116.966 96.2668L125.943 139.826L128.877 166.174C128.877 166.174 116.256 177.466 107.974 173.721L108.565 178.091H89.4125L81.2727 67.7144Z" fill="#090814"/>
<path d="M112.702 147.148L137.883 133.212L145.094 153.171C145.094 153.171 130.619 171.089 107.973 173.722L112.702 147.148V147.148Z" fill="#090814"/>
<path d="M155.053 141.144C155 141.144 154.946 141.14 154.893 141.133L145.342 139.797C145.125 139.767 144.922 139.676 144.754 139.536C144.587 139.395 144.462 139.211 144.395 139.003C144.327 138.795 144.32 138.573 144.373 138.361C144.426 138.149 144.538 137.956 144.696 137.805L173.236 110.411C173.464 110.199 173.765 110.083 174.076 110.086L184.14 110.375C184.368 110.381 184.59 110.455 184.777 110.586C184.964 110.717 185.108 110.901 185.191 111.114C185.275 111.326 185.294 111.559 185.246 111.782C185.198 112.005 185.085 112.21 184.922 112.369L155.87 140.812C155.651 141.025 155.358 141.144 155.053 141.144V141.144Z" fill="#F2F2F2"/>
<path d="M112.778 180.223C107.716 171.638 103.888 162.383 101.407 152.732C98.9287 143.133 97.7812 133.239 97.9969 123.327C98.1187 117.754 98.686 112.2 99.6934 106.717C99.8142 106.061 98.8084 105.781 98.6866 106.44C97.7764 111.377 97.2174 116.372 97.0137 121.388C96.8119 126.408 96.9611 131.435 97.4603 136.434C97.9544 141.406 98.7862 146.339 99.9499 151.199C101.121 156.085 102.631 160.883 104.469 165.559C106.302 170.231 108.465 174.768 110.94 179.135C111.248 179.676 111.56 180.214 111.878 180.749C111.952 180.859 112.065 180.937 112.195 180.967C112.325 180.997 112.461 180.976 112.576 180.909C112.691 180.842 112.776 180.733 112.813 180.606C112.851 180.478 112.838 180.341 112.778 180.222V180.223Z" fill="white"/>
<path d="M130.644 134.66C129.307 136.979 127.488 138.984 125.309 140.541C123.13 142.097 120.642 143.168 118.013 143.682C117.354 143.809 117.633 144.814 118.29 144.688C121.05 144.14 123.661 143.008 125.947 141.369C128.233 139.731 130.142 137.623 131.546 135.186C131.606 135.068 131.619 134.931 131.581 134.803C131.544 134.675 131.459 134.567 131.344 134.5C131.229 134.433 131.093 134.412 130.963 134.441C130.833 134.471 130.72 134.549 130.646 134.66L130.644 134.66Z" fill="white"/>
<path d="M28.0666 177.75C27.5416 172.317 27.9166 166.787 28.4101 161.363C28.9404 155.114 29.8926 148.908 31.2601 142.787C31.8447 140.048 32.6489 137.361 33.6649 134.751C33.8933 134.191 32.8849 133.95 32.6581 134.506C31.7535 136.814 31.0234 139.187 30.4741 141.605C29.7646 144.54 29.2043 147.504 28.7292 150.476C27.7112 156.711 27.086 163.004 26.8572 169.318C26.73 172.129 26.7849 174.945 27.0214 177.749C27.0784 178.337 28.1228 178.342 28.0654 177.749L28.0666 177.75Z" fill="white"/>
<path d="M62.6475 170.383L23.8534 174.812L27.5771 159.93L61.9781 156.856C64.2548 154.265 67.8544 152.497 71.9854 152.294C79.2139 151.937 85.3136 156.492 85.6091 162.468C85.9046 168.445 80.2841 173.579 73.056 173.936C68.9246 174.14 65.1683 172.737 62.6471 170.382L62.6475 170.383Z" fill="#ED9DA0"/>
<path d="M27.0851 154.879L55.845 153.643L53.3756 174.719C53.3756 174.719 32.4157 184.293 10.9758 176.547L27.0847 154.879L27.0851 154.879Z" fill="#090814"/>
<path d="M81.4148 68.2202L95.2092 169.203L96.4092 167.463L82.4787 65.4722C73.4659 74.1058 63.7377 72.3116 53.5144 63.2937C53.2781 63.0857 52.9872 62.9496 52.676 62.9015C52.3648 62.8534 52.0463 62.8952 51.7582 63.0221C51.47 63.149 51.2242 63.3556 51.0498 63.6175C50.8754 63.8795 50.7797 64.1858 50.7739 64.5004C61.6114 74.8303 71.9104 77.3254 81.4148 68.2213V68.2202Z" fill="#090814"/>
<path d="M241.156 62.8752H191.698C190.536 62.8752 189.421 63.3364 188.6 64.1572C187.778 64.978 187.317 66.0913 187.317 67.2522V91.3258C187.317 92.4866 187.778 93.5999 188.6 94.4208C189.421 95.2416 190.536 95.7027 191.698 95.7027H241.156C242.318 95.7027 243.432 95.2416 244.254 94.4208C245.075 93.5999 245.537 92.4866 245.537 91.3258V67.2525C245.537 66.6777 245.424 66.1085 245.204 65.5774C244.983 65.0464 244.661 64.5638 244.254 64.1573C243.847 63.7509 243.364 63.4284 242.832 63.2085C242.301 62.9885 241.731 62.8752 241.156 62.8752ZM190.474 65.8611C190.572 65.8435 192.888 65.449 194.805 66.6025C196.723 67.7561 197.46 69.984 197.49 70.0781L197.568 70.3186L197.319 70.3628C196.964 70.4181 196.605 70.4445 196.245 70.4415C195.106 70.4632 193.981 70.1799 192.987 69.621C191.07 68.4686 190.333 66.2399 190.303 66.1455L190.225 65.9053L190.474 65.8611ZM201.21 88.2122H192.389C191.745 88.2122 191.128 87.9568 190.673 87.5023C190.218 87.0478 189.963 86.4314 189.963 85.7886C189.963 85.1458 190.218 84.5294 190.673 84.0749C191.128 83.6204 191.745 83.3651 192.389 83.3651H201.21C201.853 83.3651 202.47 83.6204 202.925 84.0749C203.38 84.5294 203.636 85.1458 203.636 85.7886C203.636 86.4314 203.38 87.0478 202.925 87.5023C202.47 87.9568 201.853 88.2122 201.21 88.2122H201.21ZM241.347 87.7716C241.345 88.4721 241.065 89.1434 240.569 89.6388C240.073 90.1341 239.401 90.4134 238.7 90.4154H232.085C231.383 90.4134 230.711 90.1341 230.216 89.6388C229.72 89.1434 229.44 88.4721 229.438 87.7716V83.806C229.44 83.1055 229.72 82.4342 230.216 81.9388C230.711 81.4435 231.383 81.1643 232.085 81.1622H238.701C239.402 81.1643 240.074 81.4435 240.57 81.9388C241.066 82.4342 241.345 83.1055 241.347 83.806L241.347 87.7716Z" fill="#4A90E2"/>
<path d="M234.217 86.9546H231.558C231.368 86.9546 231.186 87.03 231.051 87.1642C230.917 87.2984 230.841 87.4804 230.841 87.6701C230.841 87.8599 230.917 88.0419 231.051 88.1761C231.186 88.3103 231.368 88.3857 231.558 88.3857H234.218C234.408 88.3857 234.59 88.3103 234.724 88.1761C234.859 88.0419 234.934 87.8599 234.934 87.6701C234.934 87.4804 234.859 87.2984 234.724 87.1642C234.59 87.03 234.408 86.9546 234.218 86.9546H234.217Z" fill="#3F3D56"/>
<path d="M239.129 86.9546H236.468C236.278 86.9546 236.096 87.03 235.962 87.1642C235.828 87.2984 235.752 87.4804 235.752 87.6701C235.752 87.8599 235.828 88.0419 235.962 88.1761C236.096 88.3103 236.278 88.3857 236.468 88.3857H239.129C239.319 88.3857 239.501 88.3103 239.635 88.1761C239.769 88.0419 239.845 87.8599 239.845 87.6701C239.845 87.4804 239.769 87.2984 239.635 87.1642C239.501 87.03 239.319 86.9546 239.129 86.9546Z" fill="#3F3D56"/>
<path d="M234.217 84.9343H231.558C231.368 84.9343 231.186 85.0097 231.052 85.1439C230.917 85.2781 230.842 85.4601 230.842 85.6499C230.842 85.8397 230.917 86.0217 231.052 86.1559C231.186 86.2901 231.368 86.3655 231.558 86.3655H234.218C234.408 86.3655 234.59 86.2901 234.725 86.1559C234.859 86.0217 234.935 85.8397 234.935 85.6499C234.935 85.4601 234.859 85.2781 234.725 85.1439C234.59 85.0097 234.408 84.9343 234.218 84.9343H234.217Z" fill="#3F3D56"/>
<path d="M239.128 84.9343H236.467C236.277 84.9343 236.095 85.0097 235.961 85.1439C235.827 85.2781 235.751 85.4601 235.751 85.6499C235.751 85.8397 235.827 86.0217 235.961 86.1559C236.095 86.2901 236.277 86.3655 236.467 86.3655H239.128C239.318 86.3655 239.5 86.2901 239.634 86.1559C239.769 86.0217 239.844 85.8397 239.844 85.6499C239.844 85.4601 239.769 85.2781 239.634 85.1439C239.5 85.0097 239.318 84.9343 239.128 84.9343Z" fill="#3F3D56"/>
<path d="M234.217 82.9561H231.558C231.368 82.9561 231.186 83.0315 231.052 83.1656C230.917 83.2998 230.842 83.4818 230.842 83.6716C230.842 83.8614 230.917 84.0434 231.052 84.1776C231.186 84.3118 231.368 84.3872 231.558 84.3872H234.218C234.408 84.3872 234.59 84.3118 234.725 84.1776C234.859 84.0434 234.935 83.8614 234.935 83.6716C234.935 83.4818 234.859 83.2998 234.725 83.1656C234.59 83.0315 234.408 82.9561 234.218 82.9561H234.217Z" fill="#3F3D56"/>
<path d="M239.128 82.9561H236.467C236.277 82.9561 236.095 83.0315 235.961 83.1656C235.827 83.2998 235.751 83.4818 235.751 83.6716C235.751 83.8614 235.827 84.0434 235.961 84.1776C236.095 84.3118 236.277 84.3872 236.467 84.3872H239.128C239.318 84.3872 239.5 84.3118 239.634 84.1776C239.769 84.0434 239.844 83.8614 239.844 83.6716C239.844 83.4818 239.769 83.2998 239.634 83.1656C239.5 83.0315 239.318 82.9561 239.128 82.9561Z" fill="#3F3D56"/>
<path d="M217.329 100.946C213.598 105.631 209.282 109.82 204.487 113.411C198.321 118.079 191.744 121.637 185.465 123.701L185.374 123.423C191.622 121.369 198.17 117.826 204.31 113.178C209.859 108.977 214.686 104.147 218.268 99.2154L218.505 99.3871C218.127 99.9075 217.735 100.427 217.329 100.946Z" fill="#090814"/>
<path d="M238.874 35.6938C238.371 39.5119 237.382 43.2501 235.93 46.8174C234.239 51.165 231.85 55.2084 228.857 58.7886L228.715 58.6658C231.694 55.1013 234.071 51.0759 235.755 46.7476C237.367 42.8111 238.398 38.6617 238.818 34.4292L239.005 34.4453C238.969 34.8577 238.925 35.2738 238.874 35.6938Z" fill="#090814"/>
<path d="M294 0H184.053C180.739 0 178.053 2.68372 178.053 5.99425V24.3483C178.053 27.6588 180.739 30.3425 184.053 30.3425H294C297.314 30.3425 300 27.6588 300 24.3483V5.99425C300 2.68372 297.314 0 294 0Z" fill="#090814"/>
<path d="M292.995 1.37915H185.059C181.952 1.37915 179.434 3.89513 179.434 6.99876V23.3436C179.434 26.4472 181.952 28.9632 185.059 28.9632H292.995C296.101 28.9632 298.62 26.4472 298.62 23.3436V6.99876C298.62 3.89513 296.101 1.37915 292.995 1.37915Z" fill="white"/>
<path d="M286.791 19.6818C286.639 19.6816 286.489 19.6458 286.352 19.5774C286.216 19.509 286.098 19.4098 286.007 19.2876L283.601 16.0845C283.444 15.8766 283.377 15.6153 283.414 15.358C283.451 15.1008 283.588 14.8687 283.796 14.7127C284.005 14.5568 284.266 14.4898 284.524 14.5265C284.781 14.5632 285.013 14.7006 285.17 14.9085L286.745 17.0046L290.786 10.9485C290.93 10.7323 291.154 10.5821 291.409 10.5311C291.664 10.48 291.929 10.5323 292.146 10.6763C292.362 10.8204 292.513 11.0445 292.564 11.2993C292.615 11.5541 292.563 11.8187 292.418 12.035L287.608 19.2453C287.521 19.3759 287.404 19.4837 287.267 19.5599C287.13 19.6361 286.977 19.6784 286.82 19.6833L286.791 19.6818Z" fill="#4A90E2"/>
<path d="M277.899 5.93018H288.912C289.885 5.93018 290.819 6.31652 291.507 7.00421C292.195 7.6919 292.582 8.62461 292.582 9.59716V20.5988C292.582 21.5714 292.195 22.5041 291.507 23.1918C290.819 23.8795 289.885 24.2658 288.912 24.2658H277.899C276.926 24.2658 275.992 23.8795 275.304 23.1918C274.616 22.5041 274.229 21.5714 274.229 20.5988V9.59716C274.229 8.62461 274.616 7.6919 275.304 7.00421C275.992 6.31652 276.926 5.93018 277.899 5.93018Z" fill="#4A90E2"/>
<path d="M283.073 21.211V20.0233C282.24 20.0094 281.437 19.7086 280.8 19.1718C280.514 18.9026 280.287 18.5768 280.134 18.2153C279.98 17.8537 279.904 17.4642 279.909 17.0716H281.522C281.526 17.2679 281.571 17.4612 281.654 17.6393C281.737 17.8174 281.856 17.9764 282.003 18.1063C282.308 18.3573 282.681 18.5119 283.074 18.5506V15.7116L282.583 15.576C281.919 15.4225 281.306 15.1016 280.802 14.6439C280.587 14.4298 280.42 14.1737 280.309 13.8916C280.199 13.6096 280.149 13.3077 280.161 13.0052C280.152 12.5152 280.283 12.0327 280.539 11.6145C280.794 11.2079 281.15 10.8739 281.573 10.645C282.036 10.3932 282.547 10.2418 283.073 10.2007V8.98682H283.807V10.1954C284.348 10.2196 284.876 10.3643 285.353 10.6191C285.774 10.8464 286.129 11.1781 286.385 11.5823C286.637 11.9876 286.773 12.454 286.779 12.931H285.194C285.17 12.5977 285.018 12.2863 284.77 12.0622C284.499 11.832 284.163 11.6907 283.809 11.6573V14.3367L284.219 14.4453C284.666 14.5606 285.099 14.7278 285.507 14.9436C285.907 15.1508 286.252 15.4502 286.512 15.8169C286.784 16.2251 286.92 16.7087 286.901 17.1986C286.912 17.564 286.845 17.9276 286.705 18.2655C286.565 18.6033 286.355 18.9077 286.089 19.1587C285.457 19.7088 284.649 20.0145 283.811 20.0203V21.2095L283.073 21.211ZM283.807 18.5446C284.198 18.5092 284.567 18.3519 284.863 18.0951C284.992 17.9822 285.094 17.8426 285.164 17.6861C285.233 17.5296 285.267 17.3599 285.264 17.1888C285.272 17.0316 285.24 16.8749 285.17 16.7337C285.1 16.5925 284.996 16.4714 284.866 16.3818C284.542 16.169 284.184 16.0116 283.808 15.9162L283.807 18.5446ZM283.073 14.1437V11.6711C282.726 11.7081 282.401 11.8568 282.146 12.0948C282.038 12.1999 281.953 12.326 281.896 12.4652C281.838 12.6044 281.81 12.7539 281.813 12.9044C281.804 13.0607 281.836 13.2164 281.903 13.3575C281.971 13.4985 282.073 13.6202 282.201 13.7114C282.467 13.9015 282.762 14.0481 283.075 14.1456L283.073 14.1437Z" fill="white"/>
<path d="M219.3 7.45728H263.469C264.825 7.45728 265.923 8.82546 265.923 10.5132C265.923 12.201 264.824 13.5692 263.469 13.5692H219.3C217.945 13.5692 216.847 12.201 216.847 10.5132C216.847 8.82546 217.945 7.45728 219.3 7.45728Z" fill="#E6E6E6"/>
<path d="M219.278 16.6262H243.589C244.932 16.6262 246.022 17.9944 246.022 19.6822C246.022 21.3699 244.934 22.7381 243.591 22.7381H219.278C217.934 22.7381 216.847 21.3699 216.847 19.6822C216.847 17.9944 217.934 16.6262 219.278 16.6262Z" fill="#E6E6E6"/>
<path d="M208.629 15.0979C208.617 17.6329 207.727 20.0856 206.11 22.0389C204.493 23.9922 202.248 25.3254 199.758 25.8116C197.267 26.2979 194.685 25.9071 192.451 24.706C190.216 23.5048 188.467 21.5673 187.502 19.2231C186.536 16.879 186.413 14.2729 187.153 11.8483C187.894 9.42376 189.453 7.33039 191.564 5.92438C193.675 4.51838 196.209 3.88656 198.734 4.13643C201.259 4.3863 203.619 5.50242 205.414 7.29492C206.437 8.32061 207.247 9.53774 207.799 10.8767C208.35 12.2156 208.632 13.65 208.629 15.0979Z" fill="#F2F2F2"/>
<path d="M202.112 12.4624L202.058 12.5605C202.543 11.3651 202.102 9.89198 201.235 8.99022C200.347 8.14584 199.2 7.62539 197.979 7.51301C197.099 7.35782 196.194 7.42806 195.348 7.71718C194.136 8.18361 193.211 9.26334 192.437 10.3869C192.03 10.8788 191.796 11.4908 191.771 12.1286C191.804 12.7246 192.158 13.2304 192.446 13.7358C192.735 14.2412 192.978 14.8687 192.77 15.4217C192.615 15.7294 192.413 16.011 192.17 16.2564C192.05 16.3844 191.961 16.5389 191.912 16.7074C191.862 16.8759 191.853 17.0536 191.885 17.2263C191.931 17.3554 192.009 17.4706 192.113 17.5604C192.216 17.6502 192.341 17.7117 192.475 17.7388C192.736 17.7823 193.002 17.7761 193.26 17.7205L200.018 16.7003C200.477 16.631 200.913 16.4517 201.288 16.1778C201.663 15.9039 201.966 15.5435 202.171 15.1273C202.377 14.7111 202.478 14.2514 202.467 13.7876C202.457 13.3237 202.334 12.8693 202.109 12.4631L202.112 12.4624Z" fill="#090814"/>
<path d="M196.053 15.5933L198.806 15.8514L199.047 19.5517H196.418L196.053 15.5933Z" fill="#ED9DA0"/>
<path d="M205.883 22.3701C203.973 24.5414 201.285 25.8752 198.399 26.0836C195.513 26.292 192.66 25.3582 190.458 23.4839L191.403 20.8475C191.617 20.3793 191.954 19.978 192.379 19.6866C192.804 19.3953 193.3 19.225 193.814 19.1939L194.414 19.1564L195.848 17.9201C195.848 17.9201 199.713 17.7822 199.656 17.7163L201.998 19.1231L201.996 19.1133L202.916 19.1695C203.43 19.2005 203.926 19.3708 204.351 19.6621C204.776 19.9535 205.113 20.3548 205.326 20.8232L205.883 22.3701Z" fill="#4A90E2"/>
<path d="M200.347 13.8794C200.639 12.0797 199.416 10.384 197.614 10.0919C195.813 9.7999 194.116 11.0221 193.823 12.8219C193.531 14.6216 194.754 16.3173 196.556 16.6094C198.357 16.9014 200.055 15.6792 200.347 13.8794Z" fill="#ED9DA0"/>
<path d="M200.221 10.2873C200.136 9.83778 199.676 9.63022 199.281 9.53056C198.138 9.23898 196.948 9.17369 195.779 9.33837C194.899 9.40865 194.071 9.78041 193.434 10.3907C192.935 10.9502 192.653 11.669 192.637 12.4179C192.612 12.8657 192.712 13.3118 192.926 13.7059C193.022 13.8894 193.164 14.0448 193.338 14.1569C193.512 14.269 193.712 14.334 193.919 14.3454L193.959 14.4833C194.814 14.3456 195.63 14.0249 196.35 13.5432C197.07 13.0615 197.677 12.4301 198.13 11.6922C197.947 12.3414 197.585 12.9259 197.084 13.3781C198.204 12.9304 199.178 12.1807 199.897 11.2127C200.012 11.089 200.1 10.943 200.156 10.7838C200.211 10.6246 200.234 10.4556 200.221 10.2873Z" fill="#090814"/>
</g>
<defs>
<clipPath id="clip0_441_1330">
<rect width="300" height="181" fill="white"/>
</clipPath>
</defs>
</svg>
