<svg width="300" height="183" viewBox="0 0 300 183" fill="none" xmlns="http://www.w3.org/2000/svg">
<g clip-path="url(#clip0_441_583)">
<path d="M295.323 0.5H86.7315C85.937 0.500724 85.1752 0.817234 84.6134 1.38005C84.0516 1.94287 83.7357 2.706 83.735 3.50194V145.103C83.7357 145.899 84.0516 146.662 84.6134 147.225C85.1752 147.787 85.937 148.104 86.7315 148.105H295.323C295.756 148.105 296.184 148.01 296.577 147.829C296.971 147.647 297.32 147.381 297.601 147.051C297.625 147.025 297.647 146.998 297.666 146.969C297.845 146.749 297.99 146.505 298.096 146.242C298.247 145.881 298.324 145.494 298.323 145.103V3.50195C298.322 2.70545 298.005 1.94188 297.443 1.37899C296.88 0.816105 296.118 0.499954 295.323 0.5ZM297.467 145.103C297.467 145.521 297.344 145.931 297.113 146.28C296.908 146.587 296.629 146.838 296.302 147.01C295.999 147.167 295.663 147.248 295.323 147.247H86.7315C86.1639 147.247 85.6197 147.021 85.2184 146.618C84.817 146.216 84.5913 145.671 84.5906 145.103V3.50195C84.5913 2.93334 84.817 2.38822 85.2184 1.98615C85.6197 1.58409 86.1639 1.3579 86.7315 1.35721H295.323C295.891 1.35714 296.436 1.58297 296.838 1.9851C297.24 2.38723 297.466 2.93278 297.467 3.50195V145.103Z" fill="#3F3D56"/>
<path d="M297.893 12.5315H84.162V13.3897H297.893V12.5315Z" fill="#3F3D56"/>
<path d="M91.4434 9.51086C92.8628 9.51086 94.0133 8.35821 94.0133 6.93634C94.0133 5.51447 92.8628 4.36182 91.4434 4.36182C90.0241 4.36182 88.8735 5.51447 88.8735 6.93634C88.8735 8.35821 90.0241 9.51086 91.4434 9.51086Z" fill="#3F3D56"/>
<path d="M98.8319 9.51086C100.251 9.51086 101.402 8.35821 101.402 6.93634C101.402 5.51447 100.251 4.36182 98.8319 4.36182C97.4126 4.36182 96.262 5.51447 96.262 6.93634C96.262 8.35821 97.4126 9.51086 98.8319 9.51086Z" fill="#3F3D56"/>
<path d="M106.22 9.51086C107.64 9.51086 108.79 8.35821 108.79 6.93634C108.79 5.51447 107.64 4.36182 106.22 4.36182C104.801 4.36182 103.651 5.51447 103.651 6.93634C103.651 8.35821 104.801 9.51086 106.22 9.51086Z" fill="#3F3D56"/>
<path d="M272.548 74.7468H105.881C104.332 74.745 102.847 74.1279 101.752 73.0307C100.657 71.9336 100.041 70.446 100.039 68.8944V33.4357C100.041 31.884 100.657 30.3965 101.752 29.2993C102.847 28.2022 104.332 27.585 105.881 27.5833H272.548C274.097 27.585 275.582 28.2022 276.677 29.2993C277.772 30.3965 278.388 31.884 278.39 33.4357V68.8944C278.388 70.446 277.772 71.9336 276.677 73.0307C275.582 74.1279 274.097 74.745 272.548 74.7468ZM105.881 28.2718C104.515 28.2733 103.204 28.8179 102.238 29.786C101.272 30.754 100.728 32.0666 100.727 33.4357V68.8944C100.728 70.2634 101.272 71.576 102.238 72.5441C103.204 73.5122 104.515 74.0567 105.881 74.0583H272.548C273.914 74.0567 275.225 73.5122 276.191 72.5441C277.157 71.576 277.701 70.2634 277.702 68.8944V33.4357C277.701 32.0666 277.157 30.754 276.191 29.786C275.225 28.8179 273.914 28.2733 272.548 28.2718H105.881Z" fill="#F2F2F2"/>
<path d="M142.651 138.779H105.881C104.332 138.777 102.847 138.16 101.752 137.063C100.657 135.966 100.041 134.478 100.039 132.927V106.763C100.041 105.211 100.657 103.724 101.752 102.627C102.847 101.53 104.332 100.912 105.881 100.911H142.651C144.2 100.912 145.685 101.53 146.78 102.627C147.875 103.724 148.491 105.211 148.493 106.763V132.927C148.491 134.478 147.875 135.966 146.78 137.063C145.685 138.16 144.2 138.777 142.651 138.779ZM105.881 101.599C104.515 101.601 103.204 102.145 102.238 103.113C101.272 104.081 100.728 105.394 100.727 106.763V132.927C100.728 134.296 101.272 135.608 102.238 136.576C103.204 137.545 104.515 138.089 105.881 138.091H142.651C144.018 138.089 145.328 137.545 146.294 136.576C147.26 135.608 147.804 134.296 147.806 132.927V106.763C147.804 105.394 147.26 104.081 146.294 103.113C145.328 102.145 144.018 101.601 142.651 101.599H105.881Z" fill="#F2F2F2"/>
<path d="M272.548 138.779H235.778C234.229 138.777 232.744 138.16 231.649 137.063C230.554 135.966 229.938 134.478 229.936 132.927V106.763C229.938 105.211 230.554 103.724 231.649 102.627C232.744 101.53 234.229 100.912 235.778 100.911H272.548C274.097 100.912 275.582 101.53 276.677 102.627C277.772 103.724 278.388 105.211 278.39 106.763V132.927C278.388 134.478 277.772 135.966 276.677 137.063C275.582 138.16 274.097 138.777 272.548 138.779ZM235.778 101.599C234.411 101.601 233.101 102.145 232.135 103.113C231.169 104.081 230.625 105.394 230.623 106.763V132.927C230.625 134.296 231.169 135.608 232.135 136.576C233.101 137.545 234.411 138.089 235.778 138.091H272.548C273.914 138.089 275.225 137.545 276.191 136.576C277.157 135.608 277.701 134.296 277.702 132.927V106.763C277.701 105.394 277.157 104.081 276.191 103.113C275.225 102.145 273.914 101.601 272.548 101.599H235.778Z" fill="#F2F2F2"/>
<path d="M210.349 138.779H173.579C172.03 138.777 170.545 138.16 169.45 137.063C168.355 135.966 167.739 134.478 167.737 132.927V106.763C167.739 105.211 168.355 103.724 169.45 102.627C170.545 101.53 172.03 100.912 173.579 100.911H210.349C211.897 100.912 213.382 101.53 214.477 102.627C215.573 103.724 216.189 105.211 216.19 106.763V132.927C216.189 134.478 215.573 135.966 214.477 137.063C213.382 138.16 211.897 138.777 210.349 138.779ZM173.579 101.599C172.212 101.601 170.902 102.145 169.936 103.113C168.969 104.081 168.426 105.394 168.424 106.763V132.927C168.426 134.296 168.969 135.608 169.936 136.576C170.902 137.545 172.212 138.089 173.579 138.091H210.349C211.715 138.089 213.025 137.545 213.992 136.576C214.958 135.608 215.502 134.296 215.503 132.927V106.763C215.502 105.394 214.958 104.081 213.992 103.113C213.025 102.145 211.715 101.601 210.349 101.599H173.579Z" fill="#F2F2F2"/>
<path d="M102.084 29.198L101.921 29.8667L277.964 73.0158L278.128 72.3471L102.084 29.198Z" fill="#F2F2F2"/>
<path d="M276.341 29.1872L101.922 72.4746L102.088 73.143L276.507 29.8555L276.341 29.1872Z" fill="#F2F2F2"/>
<path d="M279.421 86.6237H112.754C111.251 86.622 109.81 86.023 108.747 84.9581C107.684 83.8932 107.086 82.4494 107.084 80.9434V45.4847C107.086 43.9787 107.684 42.5349 108.747 41.47C109.81 40.4051 111.251 39.8061 112.754 39.8044H279.421C280.924 39.8062 282.365 40.4052 283.428 41.4701C284.491 42.535 285.089 43.9787 285.091 45.4847V80.9434C285.089 82.4494 284.491 83.8932 283.428 84.9581C282.365 86.023 280.924 86.622 279.421 86.6237Z" fill="white"/>
<path d="M170.042 102.465L169.619 103.008L213.662 137.426L214.085 136.883L170.042 102.465Z" fill="#F2F2F2"/>
<path d="M213.882 102.465L170.417 137.308L170.846 137.846L214.311 103.003L213.882 102.465Z" fill="#F2F2F2"/>
<path d="M102.344 102.465L101.921 103.008L145.964 137.427L146.387 136.884L102.344 102.465Z" fill="#F2F2F2"/>
<path d="M146.184 102.465L102.719 137.308L103.149 137.846L146.614 103.003L146.184 102.465Z" fill="#F2F2F2"/>
<path d="M232.241 102.465L231.818 103.008L275.862 137.426L276.284 136.883L232.241 102.465Z" fill="#F2F2F2"/>
<path d="M276.081 102.465L232.616 137.308L233.045 137.846L276.511 103.003L276.081 102.465Z" fill="#F2F2F2"/>
<path d="M215.503 163.738H178.733C177.23 163.736 175.789 163.137 174.726 162.072C173.663 161.007 173.065 159.564 173.063 158.058V131.894C173.065 130.388 173.663 128.944 174.726 127.879C175.789 126.814 177.23 126.215 178.733 126.214H215.503C217.006 126.215 218.448 126.814 219.511 127.879C220.574 128.944 221.172 130.388 221.173 131.894V158.058C221.172 159.564 220.574 161.007 219.511 162.072C218.448 163.137 217.006 163.736 215.503 163.738Z" fill="#4A90E2"/>
<path d="M234.708 164.254H159.45C159.359 164.254 159.272 164.218 159.207 164.153C159.143 164.089 159.107 164.001 159.107 163.91C159.107 163.819 159.143 163.731 159.207 163.666C159.272 163.602 159.359 163.566 159.45 163.566H234.708C234.799 163.566 234.886 163.602 234.951 163.666C235.015 163.731 235.052 163.819 235.052 163.91C235.052 164.001 235.015 164.089 234.951 164.153C234.886 164.218 234.799 164.254 234.708 164.254Z" fill="#CCCCCC"/>
<path d="M75.6014 182.5H0.343643C0.252503 182.5 0.165096 182.464 0.10065 182.399C0.0362048 182.335 0 182.247 0 182.156C0 182.064 0.0362048 181.977 0.10065 181.912C0.165096 181.848 0.252503 181.812 0.343643 181.812H75.6014C75.6925 181.812 75.7799 181.848 75.8444 181.912C75.9088 181.977 75.945 182.064 75.945 182.156C75.945 182.247 75.9088 182.335 75.8444 182.399C75.7799 182.464 75.6925 182.5 75.6014 182.5Z" fill="#CCCCCC"/>
<path d="M201.913 143.082H192.291C191.562 143.082 190.863 142.792 190.347 142.276C189.832 141.759 189.542 141.059 189.542 140.328C189.542 139.598 189.832 138.897 190.347 138.381C190.863 137.864 191.562 137.574 192.291 137.574H201.913C202.642 137.574 203.341 137.864 203.857 138.381C204.373 138.897 204.662 139.598 204.662 140.328C204.662 141.059 204.373 141.759 203.857 142.276C203.341 142.792 202.642 143.082 201.913 143.082Z" fill="white"/>
<path d="M207.599 152.377H186.637C185.908 152.377 185.209 152.087 184.693 151.571C184.178 151.054 183.888 150.354 183.888 149.623C183.888 148.893 184.178 148.192 184.693 147.676C185.209 147.159 185.908 146.869 186.637 146.869H207.599C208.329 146.869 209.028 147.159 209.543 147.676C210.059 148.192 210.349 148.893 210.349 149.623C210.349 150.354 210.059 151.054 209.543 151.571C209.028 152.087 208.329 152.377 207.599 152.377Z" fill="white"/>
<path d="M148.493 143.771H111.723C110.22 143.769 108.779 143.17 107.716 142.105C106.653 141.04 106.055 139.597 106.053 138.091V111.927C106.055 110.421 106.653 108.977 107.716 107.912C108.779 106.847 110.22 106.248 111.723 106.247H148.493C149.996 106.248 151.437 106.847 152.5 107.912C153.563 108.977 154.161 110.421 154.163 111.927V138.091C154.161 139.597 153.563 141.04 152.5 142.105C151.437 143.17 149.996 143.769 148.493 143.771Z" fill="#4A90E2"/>
<path d="M134.903 123.115H125.281C124.552 123.115 123.852 122.825 123.337 122.309C122.821 121.792 122.532 121.092 122.532 120.361C122.532 119.631 122.821 118.93 123.337 118.414C123.852 117.897 124.552 117.607 125.281 117.607H134.903C135.632 117.607 136.331 117.897 136.847 118.414C137.362 118.93 137.652 119.631 137.652 120.361C137.652 121.092 137.362 121.792 136.847 122.309C136.331 122.825 135.632 123.115 134.903 123.115Z" fill="white"/>
<path d="M140.589 132.41H119.627C118.898 132.41 118.198 132.12 117.683 131.604C117.167 131.087 116.878 130.387 116.878 129.656C116.878 128.926 117.167 128.225 117.683 127.709C118.198 127.192 118.898 126.902 119.627 126.902H140.589C141.318 126.902 142.017 127.192 142.533 127.709C143.049 128.225 143.338 128.926 143.338 129.656C143.338 130.387 143.049 131.087 142.533 131.604C142.017 132.12 141.318 132.41 140.589 132.41Z" fill="white"/>
<path d="M280.452 153.754H243.682C242.179 153.753 240.737 153.154 239.674 152.089C238.611 151.024 238.013 149.58 238.012 148.074V121.91C238.013 120.404 238.611 118.96 239.674 117.896C240.737 116.831 242.179 116.232 243.682 116.23H280.452C281.955 116.232 283.396 116.831 284.459 117.896C285.522 118.96 286.12 120.404 286.122 121.91V148.074C286.12 149.58 285.522 151.024 284.459 152.089C283.396 153.154 281.955 153.753 280.452 153.754Z" fill="#E6E6E6"/>
<path d="M266.861 133.099H257.239C256.51 133.099 255.811 132.809 255.296 132.292C254.78 131.776 254.49 131.075 254.49 130.345C254.49 129.614 254.78 128.914 255.296 128.397C255.811 127.881 256.51 127.591 257.239 127.591H266.861C267.591 127.591 268.29 127.881 268.805 128.397C269.321 128.914 269.611 129.614 269.611 130.345C269.611 131.075 269.321 131.776 268.805 132.292C268.29 132.809 267.591 133.099 266.861 133.099Z" fill="white"/>
<path d="M272.548 142.394H251.586C250.857 142.394 250.157 142.104 249.642 141.587C249.126 141.071 248.836 140.37 248.836 139.64C248.836 138.909 249.126 138.209 249.642 137.692C250.157 137.176 250.857 136.886 251.586 136.886H272.548C273.277 136.886 273.976 137.176 274.492 137.692C275.007 138.209 275.297 138.909 275.297 139.64C275.297 140.37 275.007 141.071 274.492 141.587C273.976 142.104 273.277 142.394 272.548 142.394Z" fill="white"/>
<path d="M103.555 119.823V115.602L87.3048 113.594L87.3052 119.824L103.555 119.823Z" fill="#A0616A"/>
<path d="M107.467 107.463L107.467 120.727L102.351 120.727L102.351 112.588C102.351 111.229 102.89 109.925 103.849 108.964C104.809 108.003 106.11 107.463 107.467 107.463Z" fill="#2F2E41"/>
<path d="M31.1873 177.767L35.4003 177.767L37.4045 161.487L31.1866 161.488L31.1873 177.767Z" fill="#A0616A"/>
<path d="M43.5255 181.686L30.2847 181.686L30.2845 176.561L38.4096 176.561C39.7663 176.561 41.0676 177.101 42.027 178.062C42.9864 179.023 43.5255 180.326 43.5255 181.686Z" fill="#2F2E41"/>
<path d="M36.3975 171.901C36.3474 171.901 36.2968 171.898 36.246 171.894L30.5079 171.415C30.27 171.395 30.0386 171.327 29.8277 171.216C29.6167 171.104 29.4306 170.95 29.2805 170.764C29.1305 170.578 29.0196 170.364 28.9545 170.134C28.8895 169.904 28.8717 169.663 28.9022 169.426L31.88 146.223C31.8916 146.133 31.8916 146.042 31.8802 145.952L27.1499 108.555C27.1187 108.308 27.1399 108.057 27.2122 107.818C27.2844 107.58 27.406 107.36 27.5691 107.172C27.7322 106.984 27.933 106.832 28.1585 106.727C28.384 106.622 28.6291 106.566 28.8777 106.563L45.6107 106.325C45.696 106.325 45.7811 106.33 45.8658 106.34L45.9115 106.353L49.13 107.748L95.9211 112.911C96.3465 112.967 96.7371 113.176 97.0204 113.499C97.3037 113.822 97.4606 114.237 97.4619 114.666V120.702C97.4619 120.951 97.4091 121.198 97.3071 121.426C97.2051 121.654 97.0562 121.857 96.8701 122.023C96.684 122.19 96.4649 122.314 96.2273 122.389C95.9896 122.465 95.7388 122.489 95.4912 122.46L68.4596 119.304C68.3229 119.287 68.1843 119.298 68.0518 119.335L46.6756 125.237C46.4808 125.291 46.3053 125.399 46.1692 125.549C46.0332 125.699 45.9423 125.884 45.9069 126.084L38.1336 170.437C38.0628 170.847 37.8498 171.218 37.5321 171.486C37.2145 171.754 36.8126 171.901 36.3975 171.901Z" fill="#2F2E41"/>
<path d="M35.0263 72.4432C41.3968 72.4432 46.5612 67.2696 46.5612 60.8876C46.5612 54.5056 41.3968 49.332 35.0263 49.332C28.6558 49.332 23.4914 54.5056 23.4914 60.8876C23.4914 67.2696 28.6558 72.4432 35.0263 72.4432Z" fill="#2F2E41"/>
<path d="M30.9912 53.5071C33.6273 53.5071 35.7643 51.3663 35.7643 48.7255C35.7643 46.0846 33.6273 43.9438 30.9912 43.9438C28.3552 43.9438 26.2182 46.0846 26.2182 48.7255C26.2182 51.3663 28.3552 53.5071 30.9912 53.5071Z" fill="#2F2E41"/>
<path d="M24.6272 46.1354C24.6272 44.9535 25.0642 43.8134 25.8538 42.9352C26.6434 42.057 27.7297 41.5028 28.903 41.3796C28.7379 41.3624 28.5719 41.3538 28.4059 41.3538C27.1407 41.3548 25.9277 41.8591 25.0334 42.7557C24.1392 43.6523 23.6369 44.8679 23.6369 46.1354C23.6369 47.4028 24.1392 48.6184 25.0334 49.5151C25.9277 50.4117 27.1407 50.9159 28.4059 50.917C28.5719 50.9169 28.7379 50.9083 28.903 50.8911C27.7297 50.7679 26.6434 50.2137 25.8538 49.3355C25.0642 48.4573 24.6272 47.3173 24.6272 46.1354Z" fill="#2F2E41"/>
<path d="M36.3851 112.846C33.5198 112.846 30.3326 112.051 27.0145 109.835L26.9583 109.797L26.9427 109.732C26.9118 109.602 23.8591 96.6577 23.7989 86.6322C23.7804 84.8717 24.1824 83.1323 24.9715 81.5592C25.7606 79.9861 26.9137 78.6248 28.3348 77.589C29.7007 76.564 31.2915 75.8813 32.9744 75.5978C34.6574 75.3143 36.3836 75.4383 38.009 75.9595C38.2237 76.0277 38.4391 76.1009 38.655 76.179C40.9083 77.0218 42.8233 78.582 44.1064 80.6201C45.3894 82.6582 45.9696 85.0617 45.7579 87.4619C45.3226 92.7593 45.1482 102.407 48.8697 107.505L48.9568 107.624L48.8523 107.728C48.7805 107.8 43.6048 112.846 36.3851 112.846Z" fill="#CCCCCC"/>
<path d="M34.9934 73.0208C39.6548 73.0208 43.4336 69.2352 43.4336 64.5655C43.4336 59.8957 39.6548 56.1101 34.9934 56.1101C30.332 56.1101 26.5532 59.8957 26.5532 64.5655C26.5532 69.2352 30.332 73.0208 34.9934 73.0208Z" fill="#A0616A"/>
<path d="M24.655 64.0075C24.7761 64.4988 24.7883 65.0107 24.6905 65.5073C24.5928 66.0038 24.3875 66.4728 24.0893 66.8813C23.791 67.2898 23.407 67.6278 22.9642 67.8715C22.5215 68.1152 22.0308 68.2587 21.5267 68.2918L18.27 80.1534L14.0652 75.3447L17.8024 64.818C17.8029 63.966 18.1154 63.1437 18.6807 62.507C19.2459 61.8704 20.0247 61.4635 20.8693 61.3636C21.714 61.2637 22.5659 61.4777 23.2636 61.9649C23.9613 62.4522 24.4564 63.179 24.655 64.0075Z" fill="#A0616A"/>
<path d="M11.8529 90.144C11.3301 90.142 10.8154 90.0145 10.3519 89.7722C9.88841 89.5299 9.48965 89.1799 9.18903 88.7514C8.8884 88.3229 8.69467 87.8285 8.62407 87.3095C8.55347 86.7906 8.60805 86.2623 8.78324 85.7688L14.9743 68.342C15.1212 67.9357 15.4141 67.5988 15.7957 67.3973C16.1774 67.1957 16.6203 67.1441 17.038 67.2524L21.5497 68.449C21.7819 68.5106 21.9987 68.6201 22.1861 68.7706C22.3736 68.9211 22.5275 69.1092 22.6381 69.3229C22.7487 69.5365 22.8134 69.7709 22.8282 70.0111C22.843 70.2513 22.8075 70.4919 22.7239 70.7176L18.745 81.4619L25.494 79.3113C26.0715 79.1273 26.6807 79.0651 27.2833 79.1285C27.8859 79.192 28.4688 79.3798 28.9954 79.6801C29.522 79.9803 29.9808 80.3866 30.343 80.8733C30.7052 81.3599 30.9628 81.9164 31.0997 82.5077C31.2366 83.0991 31.2498 83.7124 31.1385 84.3091C31.0271 84.9057 30.7937 85.4728 30.4528 85.9747C30.1119 86.4765 29.6709 86.9022 29.1578 87.2249C28.6446 87.5477 28.0702 87.7604 27.4709 87.8499L12.3453 90.1071C12.1823 90.1316 12.0177 90.144 11.8529 90.144Z" fill="#CCCCCC"/>
<path d="M36.3681 63.219C40.7616 63.219 44.3232 61.0782 44.3232 58.4374C44.3232 55.7966 40.7616 53.6558 36.3681 53.6558C31.9747 53.6558 28.4131 55.7966 28.4131 58.4374C28.4131 61.0782 31.9747 63.219 36.3681 63.219Z" fill="#2F2E41"/>
<path d="M60.5836 115.657C60.0961 115.524 59.6436 115.286 59.258 114.959C58.8724 114.632 58.5631 114.224 58.3518 113.764C58.1405 113.305 58.0324 112.804 58.0351 112.298C58.0378 111.792 58.1512 111.293 58.3673 110.835L49.604 102.217L55.8429 100.874L63.2082 109.264C63.9512 109.679 64.5166 110.352 64.7971 111.156C65.0777 111.961 65.0539 112.84 64.7304 113.628C64.4069 114.416 63.806 115.058 63.0418 115.432C62.2775 115.806 61.4028 115.886 60.5836 115.657Z" fill="#A0616A"/>
<path d="M56.5384 110.968C56.3037 110.969 56.0718 110.917 55.8593 110.817C55.6469 110.718 55.4591 110.572 55.3096 110.391L45.7431 98.7636L38.2555 84.3582C38.0212 83.6342 37.9634 82.8645 38.087 82.1135C38.2106 81.3625 38.512 80.6521 38.966 80.0418C39.4014 79.4489 39.9732 78.97 40.6329 78.6457C41.2925 78.3215 42.0206 78.1615 42.7551 78.1793C43.1264 78.1872 43.4961 78.2296 43.8595 78.3061C44.6029 78.4733 45.2928 78.824 45.8665 79.3261C46.4403 79.8283 46.8797 80.466 47.145 81.1815L53.4878 96.1097L61.0895 105.716C61.3488 106.046 61.4682 106.464 61.4219 106.881C61.3755 107.299 61.1671 107.681 60.8417 107.945L57.5338 110.617C57.2519 110.845 56.9005 110.969 56.5384 110.968Z" fill="#CCCCCC"/>
<path d="M299.656 154.271H224.399C224.307 154.271 224.22 154.235 224.156 154.17C224.091 154.105 224.055 154.018 224.055 153.927C224.055 153.835 224.091 153.748 224.156 153.683C224.22 153.619 224.307 153.582 224.399 153.582H299.656C299.748 153.582 299.835 153.619 299.899 153.683C299.964 153.748 300 153.835 300 153.927C300 154.018 299.964 154.105 299.899 154.17C299.835 154.235 299.748 154.271 299.656 154.271Z" fill="#CCCCCC"/>
<path d="M233.465 86.0163V86.4517H160.029V85.9961L160.424 85.4358L183.706 52.5084C183.814 52.3587 183.955 52.2368 184.119 52.1528C184.283 52.0687 184.465 52.0249 184.649 52.0249C184.833 52.0249 185.015 52.0687 185.179 52.1528C185.343 52.2368 185.485 52.3587 185.592 52.5084L201.204 74.5882L212.318 59.0088C212.425 58.8599 212.567 58.7386 212.731 58.655C212.894 58.5714 213.075 58.5279 213.259 58.5279C213.443 58.5279 213.624 58.5714 213.788 58.655C213.951 58.7386 214.093 58.8599 214.201 59.0088L233.07 85.4594L233.465 86.0163Z" fill="#4A90E2"/>
<path d="M159.877 64.1082C164.597 64.1082 168.424 60.2744 168.424 55.5453C168.424 50.8161 164.597 46.9824 159.877 46.9824C155.156 46.9824 151.329 50.8161 151.329 55.5453C151.329 60.2744 155.156 64.1082 159.877 64.1082Z" fill="#4A90E2"/>
<path d="M279.421 86.7958H112.754C111.205 86.7941 109.72 86.1769 108.625 85.0798C107.53 83.9826 106.914 82.4951 106.912 80.9434V45.4847C106.914 43.9331 107.53 42.4455 108.625 41.3484C109.72 40.2512 111.205 39.6341 112.754 39.6323H279.421C280.97 39.6341 282.454 40.2512 283.55 41.3484C284.645 42.4455 285.261 43.9331 285.263 45.4847V80.9434C285.261 82.4951 284.645 83.9826 283.55 85.0798C282.454 86.1769 280.97 86.7941 279.421 86.7958ZM112.754 40.3208C111.387 40.3224 110.077 40.8669 109.111 41.835C108.144 42.8031 107.601 44.1157 107.599 45.4847V80.9434C107.601 82.3125 108.144 83.6251 109.111 84.5932C110.077 85.5612 111.387 86.1058 112.754 86.1073H279.421C280.787 86.1058 282.098 85.5612 283.064 84.5932C284.03 83.6251 284.574 82.3125 284.575 80.9434V45.4847C284.574 44.1157 284.03 42.8031 283.064 41.835C282.098 40.8669 280.787 40.3224 279.421 40.3208H112.754Z" fill="#3F3D56"/>
</g>
<defs>
<clipPath id="clip0_441_583">
<rect width="300" height="182" fill="white" transform="translate(0 0.5)"/>
</clipPath>
</defs>
</svg>
