<svg width="300" height="163" viewBox="0 0 300 163" fill="none" xmlns="http://www.w3.org/2000/svg">
<g clip-path="url(#clip0_441_900)">
<path d="M19.0021 135.797L18.0664 140.494C17.9959 140.853 17.9222 141.219 17.842 141.581C17.0599 141.419 16.249 141.464 15.4898 141.713C16.0921 142.574 16.6319 143.477 17.105 144.415C16.5153 146.233 15.65 147.913 14.2015 149.128C13.2341 149.922 12.0786 150.452 10.8465 150.669C9.61439 150.886 8.34725 150.781 7.16726 150.366L7.20892 150.18C5.65144 147.156 6.49748 143.344 8.43311 140.552C9.42035 139.174 10.5901 137.937 11.9102 136.875C13.2177 135.785 14.631 134.807 16.0314 133.842C16.3459 133.625 16.7178 133.508 17.0995 133.504C17.4812 133.5 17.8555 133.61 18.1743 133.82C18.4932 134.03 18.7423 134.33 18.8898 134.682C19.0372 135.035 19.0763 135.423 19.0021 135.797Z" fill="#E4E4E4"/>
<path d="M7.50056 161.667C7.1067 158.796 6.70163 155.89 6.97787 152.988C7.22335 150.412 8.00882 147.896 9.6086 145.832C10.4577 144.739 11.4909 143.802 12.6617 143.064C12.9671 142.872 13.2478 143.356 12.944 143.548C10.9183 144.828 9.3514 146.72 8.46933 148.949C7.49511 151.428 7.33872 154.13 7.50793 156.763C7.60952 158.356 7.82455 159.937 8.0415 161.518C8.05897 161.589 8.04847 161.665 8.01213 161.729C7.97579 161.793 7.91636 161.84 7.84602 161.862C7.77447 161.881 7.69819 161.872 7.63375 161.835C7.5693 161.798 7.5219 161.738 7.50184 161.667L7.50056 161.667Z" fill="#F2F2F2"/>
<path d="M10.8806 17.6954C24.6086 17.4566 38.338 17.4223 52.0689 17.5925C65.7979 17.7637 79.5222 18.1403 93.2419 18.7223C100.941 19.049 108.636 19.4403 116.329 19.8962C116.947 19.9328 116.945 18.9709 116.329 18.9344C102.623 18.123 88.9065 17.5159 75.1805 17.113C61.4563 16.7112 47.7283 16.5149 33.9962 16.524C26.2906 16.5291 18.5854 16.599 10.8806 16.7336C10.2626 16.7443 10.2607 17.7062 10.8806 17.6954Z" fill="#E6E6E6"/>
<path d="M106.552 11.6645L112.554 11.2176C113.168 11.1719 113.173 10.2097 112.554 10.2558L106.552 10.7027C105.938 10.7484 105.933 11.7106 106.552 11.6645Z" fill="#E6E6E6"/>
<path d="M106.552 17.4353L112.554 16.9883C113.168 16.9427 113.173 15.9805 112.554 16.0265L106.552 16.4735C105.938 16.5191 105.933 17.4813 106.552 17.4353Z" fill="#E6E6E6"/>
<path d="M106.1 14.7999L114.635 15.5756C115.251 15.6315 115.247 14.6694 114.635 14.6137L106.1 13.838C105.484 13.7821 105.488 14.7442 106.1 14.7999Z" fill="#E6E6E6"/>
<path d="M14.4332 10.3709C14.0158 10.3683 13.6068 10.4887 13.2573 10.7171C12.9078 10.9454 12.6332 11.2717 12.4677 11.6551C12.2827 12.0304 12.2255 12.4559 12.3051 12.8668C12.3846 13.2776 12.5965 13.6511 12.9083 13.93C13.2014 14.1795 13.5529 14.3505 13.93 14.4272C14.3071 14.5038 14.6975 14.4836 15.0646 14.3683C15.4401 14.2371 15.7657 13.9927 15.9966 13.6687C16.2275 13.3447 16.3524 12.9571 16.354 12.5592C16.3708 12.1178 16.2512 11.6819 16.0116 11.3108C15.772 10.9397 15.424 10.6515 15.0149 10.4852C14.892 10.4518 14.7608 10.4684 14.6501 10.5313C14.5393 10.5942 14.4579 10.6984 14.4236 10.8211C14.3933 10.944 14.4112 11.0738 14.4736 11.1838C14.5361 11.2939 14.6383 11.3758 14.7593 11.4127C14.8431 11.4451 14.6828 11.3715 14.761 11.4141C14.7932 11.4317 14.8259 11.4475 14.8575 11.4662C14.8844 11.4821 14.9101 11.4995 14.9362 11.5166C15.0259 11.5752 14.8924 11.4736 14.9498 11.5263C14.9995 11.5719 15.0488 11.6165 15.094 11.6669C15.1111 11.686 15.1781 11.7389 15.126 11.7019C15.0862 11.6736 15.1107 11.6802 15.126 11.703C15.1376 11.7203 15.15 11.7371 15.1615 11.7544C15.1989 11.8112 15.233 11.8701 15.2635 11.9309C15.2705 11.9449 15.277 11.9593 15.2842 11.9733C15.2976 11.9996 15.3172 12.0064 15.2855 11.9736C15.2553 11.9422 15.2745 11.9443 15.2853 11.9745C15.2925 11.9944 15.3002 12.014 15.3071 12.0339C15.3297 12.0988 15.3486 12.1649 15.3638 12.2318C15.3709 12.2628 15.3765 12.2939 15.3826 12.3251C15.4041 12.4355 15.3795 12.2564 15.3846 12.3385C15.389 12.407 15.394 12.4747 15.3928 12.5435C15.3923 12.5749 15.3909 12.6064 15.3887 12.6378C15.3876 12.6534 15.3859 12.669 15.3849 12.6847C15.3799 12.7602 15.3797 12.6571 15.3903 12.6501C15.3683 12.7141 15.3537 12.7805 15.3468 12.8479C15.3382 12.8778 15.328 12.907 15.3184 12.9366C15.285 13.0398 15.3498 12.8804 15.3142 12.9509C15.2848 13.0115 15.252 13.0703 15.216 13.1271C15.2003 13.1509 15.1412 13.2047 15.1895 13.1673C15.2419 13.1267 15.162 13.1966 15.145 13.2146C15.1231 13.2377 15.1004 13.26 15.0768 13.2815C15.0618 13.2962 15.0458 13.31 15.0292 13.3229C15.0261 13.3214 15.1095 13.2672 15.0645 13.2959C15.0074 13.3323 14.9533 13.3713 14.8931 13.403C14.8861 13.4067 14.8092 13.4424 14.8095 13.4437C14.8062 13.4307 14.9084 13.4076 14.8382 13.4303C14.8235 13.4351 14.809 13.4409 14.7943 13.4458C14.7304 13.4673 14.6652 13.4847 14.5991 13.4978C14.5839 13.5009 14.5679 13.5024 14.553 13.5063C14.5033 13.5191 14.6005 13.4987 14.6034 13.5004C14.5667 13.4988 14.5299 13.5021 14.494 13.5101C14.4258 13.514 14.3574 13.514 14.2892 13.5101C14.2735 13.5092 14.2577 13.5076 14.2419 13.5067C14.2053 13.5045 14.1784 13.4781 14.2272 13.5068C14.2648 13.5289 14.2617 13.5128 14.2283 13.5066C14.2128 13.5037 14.1971 13.5013 14.1815 13.4984C14.114 13.4857 14.0473 13.4694 13.9815 13.4494C13.9462 13.4386 13.9115 13.4261 13.8767 13.4139C13.8615 13.4095 13.8467 13.4038 13.8324 13.3968C13.8322 13.3929 13.9223 13.4399 13.8748 13.4143C13.8147 13.3819 13.7526 13.3548 13.694 13.3194C13.6627 13.3005 13.6327 13.28 13.6022 13.2597C13.5888 13.2517 13.5761 13.2426 13.5642 13.2325C13.5652 13.2284 13.6387 13.2966 13.6001 13.2598C13.5513 13.2133 13.4991 13.1716 13.4529 13.122C13.4423 13.1107 13.4323 13.0988 13.4218 13.0875L13.4116 13.0758C13.3855 13.044 13.385 13.0441 13.4101 13.0763C13.4356 13.0838 13.4344 13.1118 13.4103 13.0754C13.4016 13.0625 13.3925 13.0499 13.3839 13.037C13.3448 12.9813 13.3116 12.9218 13.2845 12.8595C13.2869 12.8576 13.3262 12.9752 13.2961 12.8865C13.2904 12.8697 13.2841 12.8532 13.2785 12.8364C13.2674 12.8031 13.2577 12.7694 13.2493 12.7354C13.241 12.7016 13.2368 12.6668 13.2284 12.6332C13.2142 12.5766 13.2366 12.6779 13.2341 12.6754C13.2261 12.6674 13.2295 12.6183 13.2289 12.6066C13.225 12.5311 13.2336 12.4579 13.235 12.3829C13.236 12.3248 13.2302 12.4282 13.2289 12.4251C13.2292 12.4077 13.2323 12.3905 13.2381 12.374C13.2468 12.3345 13.2549 12.295 13.2655 12.2558C13.2777 12.2111 13.2918 12.1668 13.3076 12.1231C13.3136 12.1068 13.3208 12.0907 13.3263 12.0742C13.3466 12.0138 13.2863 12.1471 13.3195 12.0927C13.3653 12.0177 13.3993 11.9367 13.4479 11.8627C13.4594 11.8451 13.5293 11.7474 13.4922 11.7967C13.4552 11.8459 13.5302 11.7528 13.5444 11.7369C13.6034 11.6713 13.6727 11.6173 13.7338 11.5544C13.7699 11.5172 13.7085 11.5728 13.7049 11.5754C13.7238 11.5618 13.7423 11.5478 13.7615 11.5346C13.7949 11.5116 13.8291 11.4898 13.8641 11.4693C13.9035 11.4462 13.9481 11.429 13.9863 11.4045C14.0315 11.3756 13.9518 11.4172 13.9503 11.4181C13.971 11.4078 13.9925 11.3996 14.0147 11.3935C14.052 11.3803 14.2139 11.3104 14.2478 11.3323C14.2463 11.3313 14.1249 11.3421 14.223 11.3358C14.2462 11.3343 14.2693 11.332 14.2925 11.331C14.3395 11.3291 14.3863 11.3303 14.4332 11.3327C14.5605 11.3319 14.6823 11.2809 14.7722 11.1909C14.8622 11.1009 14.9131 10.9791 14.9139 10.8518C14.9112 10.7251 14.8597 10.6044 14.7701 10.5148C14.6806 10.4252 14.5599 10.3736 14.4332 10.3709Z" fill="#E6E6E6"/>
<path d="M21.163 10.3709C20.7455 10.3683 20.3366 10.4887 19.987 10.7171C19.6375 10.9454 19.3629 11.2717 19.1975 11.6551C19.0124 12.0304 18.9553 12.4559 19.0348 12.8668C19.1144 13.2776 19.3262 13.6511 19.638 13.93C19.9311 14.1795 20.2826 14.3505 20.6597 14.4272C21.0368 14.5038 21.4272 14.4836 21.7944 14.3683C22.1699 14.2371 22.4955 13.9927 22.7264 13.6687C22.9573 13.3447 23.0821 12.9571 23.0837 12.5592C23.1005 12.1178 22.981 11.6819 22.7414 11.3108C22.5018 10.9397 22.1538 10.6515 21.7446 10.4852C21.6217 10.4518 21.4906 10.4684 21.3798 10.5313C21.269 10.5942 21.1876 10.6984 21.1533 10.8211C21.123 10.944 21.1409 11.0738 21.2034 11.1838C21.2658 11.2939 21.3681 11.3758 21.4891 11.4127C21.5728 11.4451 21.4125 11.3715 21.4908 11.4141C21.5229 11.4317 21.5557 11.4475 21.5873 11.4662C21.6141 11.4821 21.6398 11.4995 21.6659 11.5166C21.7557 11.5752 21.6221 11.4736 21.6795 11.5263C21.7292 11.5719 21.7785 11.6165 21.8237 11.6669C21.8408 11.686 21.9078 11.7389 21.8557 11.7019C21.8159 11.6736 21.8404 11.6802 21.8557 11.703C21.8674 11.7203 21.8797 11.7371 21.8912 11.7544C21.9287 11.8112 21.9627 11.8701 21.9932 11.9309C22.0003 11.9449 22.0067 11.9593 22.0139 11.9733C22.0274 11.9996 22.0469 12.0064 22.0152 11.9736C21.985 11.9422 22.0043 11.9443 22.0151 11.9745C22.0222 11.9944 22.03 12.014 22.0369 12.0339C22.0594 12.0988 22.0783 12.1649 22.0935 12.2318C22.1006 12.2628 22.1063 12.2939 22.1123 12.3251C22.1338 12.4355 22.1092 12.2564 22.1144 12.3385C22.1187 12.407 22.1238 12.4747 22.1226 12.5435C22.122 12.5749 22.1207 12.6064 22.1185 12.6378C22.1174 12.6534 22.1156 12.669 22.1146 12.6847C22.1096 12.7602 22.1094 12.6571 22.12 12.6501C22.098 12.7141 22.0835 12.7805 22.0766 12.8479C22.0679 12.8778 22.0577 12.907 22.0481 12.9366C22.0147 13.0398 22.0795 12.8804 22.0439 12.9509C22.0146 13.0115 21.9818 13.0703 21.9457 13.1271C21.93 13.1509 21.871 13.2047 21.9193 13.1673C21.9717 13.1267 21.8918 13.1966 21.8747 13.2146C21.8528 13.2377 21.8301 13.26 21.8066 13.2815C21.7915 13.2962 21.7756 13.31 21.7589 13.3229C21.7558 13.3214 21.8392 13.2672 21.7943 13.2959C21.7372 13.3323 21.6831 13.3713 21.6229 13.403C21.6159 13.4067 21.5389 13.4424 21.5392 13.4437C21.5359 13.4307 21.6382 13.4076 21.568 13.4303C21.5532 13.4351 21.5388 13.4409 21.5241 13.4458C21.4602 13.4673 21.395 13.4847 21.3288 13.4978C21.3137 13.5009 21.2977 13.5024 21.2827 13.5063C21.2331 13.5191 21.3302 13.4987 21.3331 13.5004C21.2964 13.4988 21.2596 13.5021 21.2238 13.5101C21.1556 13.514 21.0872 13.514 21.019 13.5101C21.0032 13.5092 20.9874 13.5076 20.9717 13.5067C20.935 13.5045 20.9082 13.4781 20.9569 13.5068C20.9945 13.5289 20.9914 13.5128 20.9581 13.5066C20.9425 13.5037 20.9268 13.5013 20.9113 13.4984C20.8437 13.4857 20.777 13.4694 20.7113 13.4494C20.6759 13.4386 20.6413 13.4261 20.6064 13.4139C20.5912 13.4095 20.5764 13.4038 20.5622 13.3968C20.562 13.3929 20.6521 13.4399 20.6045 13.4143C20.5445 13.3819 20.4824 13.3548 20.4237 13.3194C20.3924 13.3005 20.3624 13.28 20.332 13.2597C20.3186 13.2517 20.3059 13.2426 20.2939 13.2325C20.2949 13.2284 20.3684 13.2966 20.3299 13.2598C20.281 13.2133 20.2288 13.1716 20.1826 13.122C20.172 13.1107 20.162 13.0988 20.1515 13.0875L20.1413 13.0758C20.1152 13.044 20.1148 13.0441 20.1398 13.0763C20.1653 13.0838 20.1642 13.1118 20.14 13.0754C20.1314 13.0625 20.1222 13.0499 20.1136 13.037C20.0746 12.9813 20.0413 12.9218 20.0143 12.8595C20.0166 12.8576 20.0559 12.9752 20.0259 12.8865C20.0202 12.8697 20.0138 12.8532 20.0082 12.8364C19.9972 12.8031 19.9875 12.7694 19.9791 12.7354C19.9708 12.7016 19.9665 12.6668 19.9581 12.6332C19.944 12.5766 19.9664 12.6779 19.9638 12.6754C19.9558 12.6674 19.9592 12.6183 19.9586 12.6066C19.9548 12.5311 19.9634 12.4579 19.9647 12.3829C19.9657 12.3248 19.9599 12.4282 19.9587 12.4251C19.959 12.4077 19.9621 12.3905 19.9678 12.374C19.9765 12.3345 19.9846 12.295 19.9953 12.2558C20.0075 12.2111 20.0215 12.1668 20.0374 12.1231C20.0433 12.1068 20.0506 12.0907 20.0561 12.0742C20.0763 12.0138 20.016 12.1471 20.0493 12.0927C20.095 12.0177 20.1291 11.9367 20.1776 11.8627C20.1891 11.8451 20.2591 11.7474 20.222 11.7967C20.185 11.8459 20.26 11.7528 20.2741 11.7369C20.3331 11.6713 20.4025 11.6173 20.4635 11.5544C20.4996 11.5172 20.4383 11.5728 20.4347 11.5754C20.4536 11.5618 20.4721 11.5478 20.4912 11.5346C20.5246 11.5116 20.5588 11.4898 20.5938 11.4693C20.6332 11.4462 20.6778 11.429 20.716 11.4045C20.7612 11.3756 20.6815 11.4172 20.6801 11.4181C20.7007 11.4078 20.7223 11.3996 20.7445 11.3935C20.7817 11.3803 20.9436 11.3104 20.9776 11.3323C20.976 11.3313 20.8546 11.3421 20.9528 11.3358C20.9759 11.3343 20.999 11.332 21.0223 11.331C21.0692 11.3291 21.1161 11.3303 21.163 11.3327C21.2902 11.3319 21.412 11.2809 21.502 11.1909C21.5919 11.1009 21.6428 10.9791 21.6437 10.8518C21.641 10.7251 21.5894 10.6044 21.4999 10.5148C21.4103 10.4252 21.2896 10.3736 21.163 10.3709Z" fill="#E6E6E6"/>
<path d="M27.8928 10.3709C27.4754 10.3683 27.0664 10.4887 26.7169 10.7171C26.3674 10.9454 26.0928 11.2717 25.9273 11.6551C25.7423 12.0304 25.6851 12.4559 25.7647 12.8668C25.8442 13.2776 26.0561 13.6511 26.3679 13.93C26.661 14.1795 27.0125 14.3505 27.3896 14.4272C27.7667 14.5038 28.1571 14.4836 28.5242 14.3683C28.8997 14.2371 29.2253 13.9927 29.4562 13.6687C29.6871 13.3447 29.812 12.9571 29.8136 12.5592C29.8304 12.1178 29.7108 11.6819 29.4712 11.3108C29.2316 10.9397 28.8836 10.6515 28.4745 10.4852C28.3516 10.4518 28.2204 10.4684 28.1097 10.5313C27.9989 10.5942 27.9175 10.6984 27.8832 10.8211C27.8529 10.944 27.8708 11.0738 27.9332 11.1838C27.9957 11.2939 28.0979 11.3758 28.2189 11.4127C28.3027 11.4451 28.1424 11.3715 28.2206 11.4141C28.2528 11.4317 28.2855 11.4475 28.3171 11.4662C28.344 11.4821 28.3697 11.4995 28.3958 11.5166C28.4855 11.5752 28.352 11.4736 28.4093 11.5263C28.4591 11.5719 28.5084 11.6165 28.5536 11.6669C28.5707 11.686 28.6376 11.7389 28.5856 11.7019C28.5458 11.6736 28.5702 11.6802 28.5856 11.703C28.5972 11.7203 28.6095 11.7371 28.621 11.7544C28.6585 11.8112 28.6926 11.8701 28.7231 11.9309C28.7301 11.9449 28.7366 11.9593 28.7438 11.9733C28.7572 11.9996 28.7768 12.0064 28.7451 11.9736C28.7149 11.9422 28.7341 11.9443 28.7449 11.9745C28.7521 11.9944 28.7598 12.014 28.7667 12.0339C28.7893 12.0988 28.8082 12.1649 28.8234 12.2318C28.8305 12.2628 28.8361 12.2939 28.8422 12.3251C28.8636 12.4355 28.8391 12.2564 28.8442 12.3385C28.8486 12.407 28.8536 12.4747 28.8524 12.5435C28.8519 12.5749 28.8505 12.6064 28.8483 12.6378C28.8472 12.6534 28.8455 12.669 28.8444 12.6847C28.8395 12.7602 28.8393 12.6571 28.8499 12.6501C28.8279 12.7141 28.8133 12.7805 28.8064 12.8479C28.7978 12.8778 28.7876 12.907 28.778 12.9366C28.7446 13.0398 28.8094 12.8804 28.7738 12.9509C28.7444 13.0115 28.7116 13.0703 28.6755 13.1271C28.6599 13.1509 28.6008 13.2047 28.6491 13.1673C28.7015 13.1267 28.6216 13.1966 28.6046 13.2146C28.5827 13.2377 28.56 13.26 28.5364 13.2815C28.5213 13.2962 28.5054 13.31 28.4887 13.3229C28.4857 13.3214 28.5691 13.2672 28.5241 13.2959C28.467 13.3323 28.4129 13.3713 28.3527 13.403C28.3457 13.4067 28.2688 13.4424 28.2691 13.4437C28.2658 13.4307 28.368 13.4076 28.2978 13.4303C28.2831 13.4351 28.2686 13.4409 28.2539 13.4458C28.19 13.4673 28.1248 13.4847 28.0587 13.4978C28.0435 13.5009 28.0275 13.5024 28.0126 13.5063C27.9629 13.5191 28.0601 13.4987 28.063 13.5004C28.0263 13.4988 27.9895 13.5021 27.9536 13.5101C27.8854 13.514 27.817 13.514 27.7488 13.5101C27.733 13.5092 27.7173 13.5076 27.7015 13.5067C27.6649 13.5045 27.638 13.4781 27.6868 13.5068C27.7244 13.5289 27.7212 13.5128 27.6879 13.5066C27.6723 13.5037 27.6567 13.5013 27.6411 13.4984C27.5736 13.4857 27.5068 13.4694 27.4411 13.4494C27.4058 13.4386 27.3711 13.4261 27.3363 13.4139C27.3211 13.4095 27.3063 13.4038 27.292 13.3968C27.2918 13.3929 27.3819 13.4399 27.3344 13.4143C27.2743 13.3819 27.2122 13.3548 27.1536 13.3194C27.1223 13.3005 27.0922 13.28 27.0618 13.2597C27.0484 13.2517 27.0357 13.2426 27.0238 13.2325C27.0248 13.2284 27.0983 13.2966 27.0597 13.2598C27.0109 13.2133 26.9587 13.1716 26.9125 13.122C26.9019 13.1107 26.8919 13.0988 26.8814 13.0875L26.8712 13.0758C26.8451 13.044 26.8446 13.0441 26.8697 13.0763C26.8952 13.0838 26.894 13.1118 26.8698 13.0754C26.8612 13.0625 26.8521 13.0499 26.8435 13.037C26.8044 12.9813 26.7712 12.9218 26.7441 12.8595C26.7465 12.8576 26.7858 12.9752 26.7557 12.8865C26.75 12.8697 26.7436 12.8532 26.7381 12.8364C26.727 12.8031 26.7173 12.7694 26.7089 12.7354C26.7006 12.7016 26.6963 12.6668 26.688 12.6332C26.6738 12.5766 26.6962 12.6779 26.6937 12.6754C26.6857 12.6674 26.6891 12.6183 26.6885 12.6066C26.6846 12.5311 26.6932 12.4579 26.6946 12.3829C26.6956 12.3248 26.6898 12.4282 26.6885 12.4251C26.6888 12.4077 26.6919 12.3905 26.6977 12.374C26.7064 12.3345 26.7145 12.295 26.7251 12.2558C26.7373 12.2111 26.7514 12.1668 26.7672 12.1231C26.7732 12.1068 26.7804 12.0907 26.7859 12.0742C26.8062 12.0138 26.7459 12.1471 26.7791 12.0927C26.8249 12.0177 26.8589 11.9367 26.9075 11.8627C26.919 11.8451 26.9889 11.7474 26.9518 11.7967C26.9148 11.8459 26.9898 11.7528 27.004 11.7369C27.063 11.6713 27.1323 11.6173 27.1934 11.5544C27.2295 11.5172 27.1681 11.5728 27.1645 11.5754C27.1834 11.5618 27.2019 11.5478 27.2211 11.5346C27.2545 11.5116 27.2886 11.4898 27.3237 11.4693C27.3631 11.4462 27.4077 11.429 27.4459 11.4045C27.4911 11.3756 27.4114 11.4172 27.4099 11.4181C27.4306 11.4078 27.4521 11.3996 27.4743 11.3935C27.5116 11.3803 27.6734 11.3104 27.7074 11.3323C27.7059 11.3313 27.5845 11.3421 27.6826 11.3358C27.7058 11.3343 27.7289 11.332 27.7521 11.331C27.7991 11.3291 27.8459 11.3303 27.8928 11.3327C28.0201 11.3319 28.1419 11.2809 28.2318 11.1909C28.3218 11.1009 28.3727 10.9791 28.3735 10.8518C28.3708 10.7251 28.3193 10.6044 28.2297 10.5148C28.1402 10.4252 28.0195 10.3736 27.8928 10.3709Z" fill="#E6E6E6"/>
<path d="M125.114 116.879H7.21248C5.7216 116.878 4.29225 116.284 3.23802 115.23C2.1838 114.175 1.59079 112.745 1.58911 111.254V6.12576C1.59078 4.63423 2.18378 3.20427 3.238 2.14959C4.29223 1.09492 5.72159 0.501673 7.21248 0.5H125.114C126.605 0.501673 128.035 1.09492 129.089 2.14959C130.143 3.20427 130.736 4.63423 130.738 6.12576V111.254C130.736 112.745 130.143 114.175 129.089 115.23C128.035 116.284 126.605 116.878 125.114 116.879ZM7.21248 1.14121C5.89152 1.14271 4.62509 1.66835 3.69103 2.60281C2.75697 3.53727 2.23155 4.80423 2.23005 6.12576V111.254C2.23158 112.575 2.75702 113.842 3.69108 114.777C4.62514 115.711 5.89155 116.237 7.21248 116.238H125.114C126.435 116.237 127.702 115.711 128.636 114.777C129.57 113.842 130.095 112.575 130.097 111.254V6.12576C130.095 4.80424 129.57 3.53727 128.636 2.60281C127.702 1.66835 126.435 1.14271 125.114 1.14121H7.21248Z" fill="#E6E6E6"/>
<path d="M7.01707 72.0287L48.4789 71.9025L89.7293 71.777L112.999 71.7062C113.123 71.7019 113.241 71.6493 113.328 71.5596C113.415 71.4699 113.463 71.35 113.463 71.2253C113.463 71.1006 113.415 70.9807 113.328 70.891C113.241 70.8013 113.123 70.7487 112.999 70.7444L71.5368 70.8706L30.2865 70.9961L7.01707 71.0669C6.89246 71.0712 6.7744 71.1238 6.68778 71.2135C6.60115 71.3032 6.55273 71.4231 6.55273 71.5478C6.55273 71.6725 6.60115 71.7924 6.68778 71.8821C6.7744 71.9718 6.89246 72.0244 7.01707 72.0287Z" fill="#E6E6E6"/>
<path d="M27.9339 71.2489L28.1903 56.1045C28.2008 55.4854 27.2394 55.4853 27.2289 56.1045L26.9725 71.2489C26.962 71.8681 27.9234 71.8682 27.9339 71.2489Z" fill="#E6E6E6"/>
<path d="M47.7502 71.4129L48.375 52.3772L48.5535 46.9384C48.5738 46.3193 47.6123 46.32 47.5921 46.9384L46.9673 65.9741L46.7888 71.4129C46.7684 72.032 47.7299 72.0312 47.7502 71.4129Z" fill="#E6E6E6"/>
<path d="M67.513 37.915C67.1361 44.6573 66.4388 64.5444 66.0619 71.2867C66.0274 71.9051 66.9889 71.9031 67.0233 71.2867C67.4002 64.5444 68.0975 44.6573 68.4744 37.915C68.5089 37.2966 67.5474 37.2985 67.513 37.915Z" fill="#E6E6E6"/>
<path d="M87.1806 64.5211L87.0627 71.0015C87.0515 71.6207 88.0129 71.6207 88.0241 71.0015C88.1633 63.3477 88.5203 63.5972 88.5595 61.437C88.5708 60.8179 87.6094 60.8178 87.5981 61.437C87.5981 61.437 87.3198 56.8673 87.1806 64.5211Z" fill="#E6E6E6"/>
<path d="M106.444 47.497L106.553 65.678L106.584 70.8841C106.589 71.0087 106.641 71.1268 106.731 71.2135C106.821 71.3002 106.94 71.3486 107.065 71.3486C107.19 71.3486 107.31 71.3002 107.399 71.2135C107.489 71.1268 107.541 71.0087 107.546 70.8841L107.437 52.703L107.406 47.497C107.402 47.3723 107.349 47.2542 107.259 47.1676C107.17 47.0809 107.05 47.0325 106.925 47.0325C106.8 47.0325 106.681 47.0809 106.591 47.1676C106.501 47.2542 106.449 47.3723 106.444 47.497Z" fill="#E6E6E6"/>
<path d="M7.09443 71.4877C6.29863 69.2999 8.09252 67.1957 9.93579 66.2502C12.1441 65.1174 14.6846 64.8606 16.9163 63.7686C20.2435 62.1406 22.6669 59.2187 24.8233 56.2941C27.0428 53.2838 29.0736 50.0531 31.8938 47.552C33.38 46.2046 35.1352 45.1884 37.0434 44.5706C39.4476 43.82 41.9974 43.7685 44.4817 44.071C49.6151 44.6961 54.3739 46.8173 59.327 48.1654C63.9969 49.4365 69.1422 50.1512 73.7259 48.1747C76.0547 47.1704 77.9591 45.4862 80.0045 44.0287C81.9841 42.6034 84.1974 41.5352 86.5447 40.8725C91.146 39.5925 96.1709 39.9343 100.455 42.0982C104.392 44.0617 107.51 47.3537 109.258 51.3933C111.289 56.2467 111.024 61.6705 110.361 66.779C110.189 68.0995 109.985 69.4156 109.779 70.731C109.684 71.3365 110.61 71.5974 110.706 70.9867C111.532 65.7189 112.356 60.2843 111.328 54.9834C110.439 50.3547 107.895 46.2086 104.172 43.3209C100.432 40.4253 95.784 38.9577 91.0608 39.1815C88.5856 39.2964 86.149 39.8385 83.8585 40.7839C81.4808 41.7678 79.4675 43.2262 77.4223 44.7606C75.3197 46.3383 73.1521 47.6433 70.5416 48.1579C68.0094 48.657 65.3752 48.4699 62.8541 47.9986C57.6521 47.0263 52.8034 44.7974 47.6456 43.6553C42.8669 42.5972 37.7103 42.4915 33.4311 45.1923C30.1394 47.2698 27.8135 50.495 25.5813 53.6094C23.3687 56.6964 21.1281 59.9975 17.8926 62.1063C15.919 63.3927 13.7003 63.8674 11.4925 64.5908C9.27889 65.3161 7.15384 66.5397 6.25128 68.8085C5.86228 69.7429 5.8324 70.7882 6.16736 71.7434C6.37727 72.3204 7.30671 72.0713 7.09443 71.4877Z" fill="#E6E6E6"/>
<path d="M27.6151 54.0105L27.6138 54.0111L27.6163 54.0105H27.6151Z" fill="#E6E6E6"/>
<path d="M29.282 53.1258C29.0598 52.7322 28.7053 52.43 28.2815 52.2731C27.8577 52.1162 27.392 52.1147 26.9672 52.2687C26.756 52.3458 26.5624 52.4646 26.3979 52.6178C26.2334 52.7711 26.1012 52.9558 26.0093 53.161C25.9909 53.2046 25.9801 53.2505 25.9651 53.2952C25.9443 53.3289 25.9192 53.3593 25.9006 53.3946C25.7013 53.7918 25.6468 54.2461 25.7463 54.6792C25.8458 55.1124 26.0932 55.4972 26.4459 55.7675C26.7985 56.0378 27.2343 56.1766 27.6783 56.16C28.1222 56.1434 28.5465 55.9725 28.878 55.6766C29.2264 55.3615 29.4565 54.9366 29.53 54.4725C29.6035 54.0085 29.516 53.5332 29.282 53.1258ZM28.0779 53.9426C28.0804 53.9892 28.0818 53.9669 28.0779 53.9426V53.9426ZM27.9555 53.6642C27.9508 53.6588 27.9514 53.6593 27.9555 53.6642V53.6642ZM27.416 53.8812C27.4081 53.8682 27.4088 53.8701 27.416 53.8812V53.8812ZM27.5439 53.9896C27.5623 53.9978 27.5744 54 27.5439 53.9896V53.9896ZM27.601 54.0169L27.6137 54.0111C27.6106 54.0113 27.6075 54.0107 27.6047 54.0093L27.6051 54.0092L27.615 54.0105L27.6169 54.0096L27.6111 54.0083C27.6161 54.0081 27.6165 54.0088 27.6169 54.0096C27.674 53.9834 27.6355 53.996 27.6023 54.0062L27.6001 54.0057C27.5794 53.9952 27.5571 53.9881 27.5342 53.9846C27.5321 53.9834 27.5295 53.9825 27.5278 53.9813C27.5094 53.9681 27.4163 53.8954 27.5026 53.9717C27.4839 53.9551 27.4653 53.9388 27.4476 53.9209C27.4372 53.9102 27.4278 53.8986 27.4194 53.8862C27.4081 53.8668 27.3971 53.8472 27.3865 53.8274L27.3849 53.8167C27.3835 53.8079 27.3824 53.8042 27.3812 53.7989C27.3818 53.7934 27.3827 53.7874 27.3835 53.7817C27.39 53.7644 27.3941 53.7463 27.3957 53.728L27.3995 53.7233C27.4133 53.704 27.4254 53.6815 27.4385 53.6615C27.3689 53.7673 27.4658 53.6498 27.473 53.6349C27.4743 53.6324 27.4721 53.6337 27.4726 53.632C27.4755 53.6304 27.4746 53.6315 27.478 53.6295C27.4996 53.6168 27.52 53.6026 27.542 53.5904C27.5681 53.576 27.6709 53.5467 27.5643 53.5772C27.5885 53.5703 27.6118 53.5616 27.6363 53.5552C27.6407 53.554 27.6766 53.549 27.6959 53.5455C27.7129 53.5451 27.7294 53.5446 27.7312 53.5446C27.7391 53.5447 27.7471 53.5457 27.7551 53.546C27.7374 53.5484 27.8158 53.5654 27.8391 53.5689C27.8425 53.5716 27.8442 53.5733 27.8488 53.5766C27.8685 53.591 27.8925 53.6038 27.9133 53.6173C27.8203 53.5572 27.9145 53.622 27.9322 53.6398C27.9429 53.6504 27.9526 53.6618 27.9626 53.6729C27.9718 53.6836 27.9801 53.6949 27.9874 53.7069C28.0026 53.7349 28.0188 53.7631 28.0349 53.7906L28.0393 53.7977C28.0392 53.7986 28.0392 53.7995 28.0392 53.8004C28.0475 53.845 28.0598 53.8887 28.076 53.9311C28.0768 53.9347 28.0774 53.9384 28.0778 53.942C28.0793 53.9664 28.0813 53.9908 28.0814 54.0153L28.0812 54.0203C28.0071 53.9817 27.925 53.9612 27.8415 53.9606C27.758 53.96 27.6756 53.9793 27.601 54.0169Z" fill="#E6E6E6"/>
<path d="M27.6181 54.0098C27.6194 54.0102 27.6178 54.0102 27.6178 54.0102L27.6181 54.0098Z" fill="#E6E6E6"/>
<path d="M27.6178 54.0103L27.6163 54.0105C27.6182 54.0107 27.6178 54.0103 27.6178 54.0103Z" fill="#E6E6E6"/>
<path d="M27.6169 54.0095L27.6176 54.0098L27.6169 54.0095Z" fill="#E6E6E6"/>
<path d="M48.1249 45.0334L48.1237 45.0341L48.1262 45.0334H48.1249Z" fill="#E6E6E6"/>
<path d="M49.7919 44.1488C49.5697 43.7551 49.2152 43.453 48.7914 43.2961C48.3676 43.1392 47.9019 43.1376 47.4771 43.2917C47.2659 43.3688 47.0723 43.4875 46.9078 43.6408C46.7432 43.794 46.6111 43.9787 46.5192 44.184C46.5008 44.2276 46.49 44.2735 46.475 44.3182C46.4542 44.3518 46.4291 44.3823 46.4105 44.4175C46.2112 44.8147 46.1566 45.269 46.2562 45.7022C46.3557 46.1353 46.6031 46.5202 46.9558 46.7905C47.3084 47.0608 47.7442 47.1995 48.1882 47.183C48.6321 47.1664 49.0564 46.9954 49.3879 46.6996C49.7363 46.3845 49.9664 45.9596 50.0399 45.4955C50.1134 45.0314 50.0258 44.5562 49.7919 44.1488ZM48.5878 44.9655C48.5903 45.0121 48.5917 44.9898 48.5878 44.9655V44.9655ZM48.4654 44.6871C48.4607 44.6817 48.4613 44.6823 48.4654 44.6871V44.6871ZM47.9259 44.9041C47.918 44.8912 47.9187 44.893 47.9259 44.9041V44.9041ZM48.0538 45.0126C48.0722 45.0208 48.0842 45.023 48.0538 45.0126V45.0126ZM48.1109 45.0398L48.1235 45.034C48.1204 45.0343 48.1173 45.0337 48.1146 45.0322L48.1149 45.0322L48.1249 45.0334L48.1267 45.0326L48.121 45.0312C48.126 45.0311 48.1264 45.0318 48.1267 45.0326C48.1839 45.0064 48.1453 45.0189 48.1122 45.0292L48.11 45.0287C48.0892 45.0182 48.067 45.011 48.044 45.0075C48.0419 45.0063 48.0394 45.0055 48.0376 45.0042C48.0192 44.9911 47.9262 44.9184 48.0125 44.9946C47.9937 44.978 47.9752 44.9617 47.9575 44.9438C47.9471 44.9331 47.9376 44.9215 47.9293 44.9091C47.918 44.8897 47.907 44.8701 47.8964 44.8503L47.8948 44.8397C47.8934 44.8308 47.8923 44.8271 47.8911 44.8218C47.8917 44.8163 47.8925 44.8104 47.8934 44.8047C47.8999 44.7874 47.904 44.7693 47.9056 44.7509L47.9093 44.7462C47.9231 44.7269 47.9352 44.7045 47.9484 44.6844C47.8787 44.7903 47.9756 44.6727 47.9829 44.6578C47.9841 44.6553 47.982 44.6567 47.9825 44.6549C47.9853 44.6534 47.9845 44.6544 47.9879 44.6524C48.0095 44.6397 48.0299 44.6255 48.0518 44.6134C48.078 44.5989 48.1808 44.5697 48.0741 44.6002C48.0984 44.5933 48.1216 44.5845 48.1461 44.5781C48.1506 44.577 48.1865 44.5719 48.2058 44.5685C48.2228 44.568 48.2393 44.5675 48.241 44.5675C48.249 44.5676 48.257 44.5686 48.265 44.569C48.2473 44.5713 48.3257 44.5883 48.349 44.5919C48.3524 44.5945 48.3541 44.5962 48.3587 44.5996C48.3784 44.614 48.4023 44.6268 48.4231 44.6402C48.3302 44.5801 48.4243 44.645 48.4421 44.6628C48.4527 44.6734 48.4625 44.6847 48.4725 44.6959C48.4817 44.7065 48.4899 44.7179 48.4973 44.7299C48.5125 44.7578 48.5287 44.7861 48.5447 44.8136L48.5492 44.8206C48.5491 44.8215 48.549 44.8225 48.549 44.8234C48.5574 44.868 48.5697 44.9117 48.5858 44.9541C48.5866 44.9577 48.5872 44.9613 48.5877 44.965C48.5891 44.9894 48.5912 45.0137 48.5912 45.0383L48.591 45.0432C48.517 45.0046 48.4349 44.9842 48.3514 44.9836C48.2679 44.983 48.1855 45.0023 48.1109 45.0398Z" fill="#E6E6E6"/>
<path d="M48.1277 45.0334L48.1262 45.0337C48.1281 45.0339 48.1277 45.0334 48.1277 45.0334Z" fill="#E6E6E6"/>
<path d="M48.127 45.0325L48.1276 45.0328L48.127 45.0325Z" fill="#E6E6E6"/>
<path d="M48.1279 45.033C48.1293 45.0334 48.1277 45.0334 48.1277 45.0334L48.1279 45.033Z" fill="#E6E6E6"/>
<path d="M67.9958 49.521L67.9965 49.5213L67.9958 49.521Z" fill="#E6E6E6"/>
<path d="M69.6609 35.172C69.4387 34.7783 69.0842 34.4762 68.6604 34.3193C68.2366 34.1624 67.7709 34.1608 67.3461 34.3149C67.1349 34.392 66.9413 34.5107 66.7768 34.664C66.6123 34.8172 66.4801 35.0019 66.3882 35.2072C66.3698 35.2508 66.359 35.2967 66.344 35.3413C66.3232 35.375 66.2981 35.4055 66.2795 35.4407C66.0802 35.8379 66.0257 36.2922 66.1252 36.7254C66.2247 37.1585 66.4721 37.5434 66.8248 37.8137C67.1774 38.0839 67.6133 38.2227 68.0572 38.2061C68.5011 38.1896 68.9254 38.0186 69.2569 37.7227C69.6053 37.4077 69.8354 36.9828 69.9089 36.5187C69.9824 36.0546 69.8949 35.5794 69.6609 35.172ZM68.4568 35.9887C68.4593 36.0353 68.4608 36.013 68.4568 35.9887V35.9887ZM68.3344 35.7103C68.3297 35.7049 68.3303 35.7055 68.3344 35.7103V35.7103ZM67.795 35.9273C67.787 35.9144 67.7877 35.9162 67.795 35.9273V35.9273ZM67.9228 36.0358C67.9412 36.044 67.9533 36.0462 67.9228 36.0358V36.0358ZM67.9799 36.063L67.9926 36.0572C67.9895 36.0575 67.9863 36.0569 67.9836 36.0554L67.984 36.0554L67.9939 36.0566L67.9957 36.0558L67.99 36.0544C67.995 36.0543 67.9954 36.055 67.9957 36.0558C68.0529 36.0296 68.0143 36.0421 67.9812 36.0524L67.979 36.0519C67.9583 36.0414 67.936 36.0342 67.9131 36.0307C67.9109 36.0295 67.9084 36.0287 67.9067 36.0274C67.8882 36.0143 67.7952 35.9416 67.8815 36.0178C67.8627 36.0012 67.8442 35.9849 67.8265 35.967C67.8161 35.9563 67.8067 35.9447 67.7983 35.9323C67.787 35.9129 67.776 35.8933 67.7654 35.8735L67.7638 35.8629C67.7624 35.854 67.7613 35.8503 67.7601 35.845C67.7607 35.8395 67.7616 35.8336 67.7624 35.8279C67.7689 35.8106 67.773 35.7925 67.7746 35.7741L67.7783 35.7694C67.7922 35.7501 67.8042 35.7276 67.8174 35.7076C67.7478 35.8135 67.8447 35.6959 67.8519 35.681C67.8531 35.6785 67.851 35.6799 67.8515 35.6781C67.8543 35.6766 67.8535 35.6776 67.8569 35.6756C67.8785 35.6629 67.8989 35.6487 67.9209 35.6366C67.947 35.6221 68.0498 35.5929 67.9432 35.6234C67.9674 35.6165 67.9906 35.6077 68.0151 35.6013C68.0196 35.6002 68.0555 35.5951 68.0748 35.5917C68.0918 35.5912 68.1083 35.5907 68.11 35.5907C68.118 35.5908 68.126 35.5918 68.134 35.5922C68.1163 35.5945 68.1947 35.6115 68.218 35.6151C68.2214 35.6177 68.2231 35.6194 68.2277 35.6228C68.2474 35.6372 68.2714 35.65 68.2921 35.6634C68.1992 35.6033 68.2934 35.6682 68.3111 35.6859C68.3217 35.6966 68.3315 35.7079 68.3415 35.7191C68.3507 35.7297 68.359 35.7411 68.3663 35.7531C68.3815 35.781 68.3977 35.8093 68.4137 35.8368L68.4182 35.8438C68.4181 35.8447 68.4181 35.8456 68.4181 35.8466C68.4264 35.8911 68.4387 35.9349 68.4549 35.9773C68.4557 35.9809 68.4563 35.9845 68.4567 35.9882C68.4582 36.0126 68.4602 36.0369 68.4603 36.0615L68.46 36.0664C68.386 36.0278 68.3039 36.0074 68.2204 36.0068C68.1369 36.0062 68.0545 36.0255 67.9799 36.063Z" fill="#E6E6E6"/>
<path d="M67.994 49.522L67.9927 49.5226L67.9952 49.522H67.994Z" fill="#E6E6E6"/>
<path d="M67.9967 49.522L67.9952 49.5222C67.9971 49.5224 67.9967 49.522 67.9967 49.522Z" fill="#E6E6E6"/>
<path d="M67.997 49.5215C67.9983 49.5219 67.9967 49.522 67.9967 49.522L67.997 49.5215Z" fill="#E6E6E6"/>
<path d="M89.8503 59.8585C89.6281 59.4648 89.2736 59.1627 88.8499 59.0058C88.4261 58.8489 87.9604 58.8473 87.5355 59.0014C87.3244 59.0785 87.1308 59.1972 86.9663 59.3505C86.8017 59.5037 86.6696 59.6884 86.5776 59.8937C86.5592 59.9373 86.5485 59.9832 86.5335 60.0279C86.5126 60.0616 86.4876 60.092 86.4689 60.1272C86.2697 60.5245 86.2151 60.9788 86.3147 61.4119C86.4142 61.845 86.6616 62.2299 87.0142 62.5002C87.3669 62.7705 87.8027 62.9093 88.2466 62.8927C88.6906 62.8761 89.1148 62.7051 89.4463 62.4093C89.7948 62.0942 90.0248 61.6693 90.0983 61.2052C90.1718 60.7411 90.0843 60.2659 89.8503 59.8585ZM88.6463 60.6753C88.6488 60.7219 88.6502 60.6995 88.6463 60.6753V60.6753ZM88.5239 60.3968C88.5192 60.3914 88.5197 60.392 88.5239 60.3968V60.3968ZM87.9844 60.6139C87.9765 60.6009 87.9772 60.6027 87.9844 60.6139V60.6139ZM88.1123 60.7223C88.1307 60.7305 88.1427 60.7327 88.1123 60.7223V60.7223ZM88.1694 60.7495L88.182 60.7437C88.1789 60.744 88.1758 60.7434 88.173 60.742L88.1734 60.7419L88.1833 60.7431L88.1852 60.7423L88.1795 60.741C88.1844 60.7408 88.1849 60.7415 88.1852 60.7423C88.2424 60.7161 88.2038 60.7286 88.1706 60.7389L88.1684 60.7384C88.1477 60.7279 88.1255 60.7207 88.1025 60.7172C88.1004 60.7161 88.0979 60.7152 88.0961 60.7139C88.0777 60.7008 87.9847 60.6281 88.071 60.7043C88.0522 60.6877 88.0336 60.6714 88.016 60.6535C88.0056 60.6428 87.9961 60.6312 87.9878 60.6189C87.9764 60.5994 87.9655 60.5798 87.9548 60.5601L87.9532 60.5494C87.9518 60.5405 87.9508 60.5368 87.9496 60.5315C87.9501 60.526 87.951 60.5201 87.9519 60.5144C87.9583 60.4971 87.9624 60.479 87.9641 60.4606L87.9678 60.4559C87.9816 60.4367 87.9937 60.4142 88.0069 60.3941C87.9372 60.5 88.0341 60.3825 88.0414 60.3676C88.0426 60.365 88.0404 60.3664 88.041 60.3646C88.0438 60.3631 88.0429 60.3642 88.0463 60.3622C88.0679 60.3494 88.0884 60.3353 88.1103 60.3231C88.1364 60.3086 88.2393 60.2794 88.1326 60.3099C88.1568 60.303 88.1801 60.2942 88.2046 60.2878C88.209 60.2867 88.2449 60.2817 88.2643 60.2782C88.2813 60.2777 88.2978 60.2772 88.2995 60.2773C88.3075 60.2774 88.3155 60.2783 88.3234 60.2787C88.3057 60.2811 88.3842 60.298 88.4075 60.3016C88.4108 60.3042 88.4126 60.3059 88.4171 60.3093C88.4368 60.3237 88.4608 60.3365 88.4816 60.3499C88.3886 60.2898 88.4828 60.3547 88.5006 60.3725C88.5112 60.3831 88.521 60.3944 88.531 60.4056C88.5401 60.4162 88.5484 60.4276 88.5557 60.4396C88.571 60.4675 88.5872 60.4958 88.6032 60.5233L88.6076 60.5303C88.6075 60.5313 88.6075 60.5322 88.6075 60.5331C88.6159 60.5777 88.6282 60.6214 88.6443 60.6638C88.6451 60.6674 88.6457 60.671 88.6461 60.6747C88.6476 60.6991 88.6497 60.7234 88.6497 60.748L88.6495 60.753C88.5755 60.7143 88.4933 60.6939 88.4098 60.6933C88.3264 60.6927 88.2439 60.712 88.1694 60.7495Z" fill="#E6E6E6"/>
<path d="M88.1834 39.5833L88.1821 39.5839L88.1847 39.5833H88.1834Z" fill="#E6E6E6"/>
<path d="M88.1861 39.5833L88.1847 39.5835C88.1865 39.5837 88.1861 39.5833 88.1861 39.5833Z" fill="#E6E6E6"/>
<path d="M88.1864 39.5828C88.1878 39.5832 88.1862 39.5832 88.1862 39.5832L88.1864 39.5828Z" fill="#E6E6E6"/>
<path d="M88.1854 39.5823L88.1861 39.5826L88.1854 39.5823Z" fill="#E6E6E6"/>
<path d="M108.758 45.1107C108.536 44.717 108.181 44.4149 107.758 44.258C107.334 44.1011 106.868 44.0995 106.443 44.2536C106.232 44.3307 106.038 44.4494 105.874 44.6027C105.709 44.7559 105.577 44.9406 105.485 45.1459C105.467 45.1895 105.456 45.2354 105.441 45.2801C105.42 45.3138 105.395 45.3442 105.377 45.3794C105.177 45.7767 105.123 46.231 105.222 46.6641C105.322 47.0972 105.569 47.4821 105.922 47.7524C106.275 48.0227 106.71 48.1615 107.154 48.1449C107.598 48.1283 108.023 47.9573 108.354 47.6615C108.702 47.3464 108.933 46.9215 109.006 46.4574C109.08 45.9933 108.992 45.5181 108.758 45.1107ZM107.554 45.9275C107.556 45.974 107.558 45.9517 107.554 45.9275V45.9275ZM107.432 45.649C107.427 45.6436 107.427 45.6442 107.432 45.649V45.649ZM106.892 45.8661C106.884 45.8531 106.885 45.8549 106.892 45.8661V45.8661ZM107.02 45.9745C107.038 45.9827 107.05 45.9849 107.02 45.9745V45.9745ZM107.077 46.0017L107.09 45.9959C107.087 45.9962 107.084 45.9956 107.081 45.9942L107.081 45.9941L107.091 45.9953L107.093 45.9945L107.087 45.9931C107.092 45.993 107.093 45.9937 107.093 45.9945C107.15 45.9683 107.112 45.9808 107.078 45.9911L107.076 45.9906C107.055 45.9801 107.033 45.9729 107.01 45.9694C107.008 45.9682 107.006 45.9674 107.004 45.9661C106.985 45.953 106.892 45.8803 106.979 45.9565C106.96 45.9399 106.941 45.9236 106.924 45.9057C106.913 45.895 106.904 45.8834 106.895 45.8711C106.884 45.8516 106.873 45.832 106.863 45.8123L106.861 45.8016C106.86 45.7927 106.858 45.789 106.857 45.7837C106.858 45.7782 106.859 45.7723 106.86 45.7666C106.866 45.7493 106.87 45.7312 106.872 45.7128L106.876 45.7081C106.889 45.6889 106.901 45.6664 106.915 45.6463C106.845 45.7522 106.942 45.6347 106.949 45.6198C106.95 45.6172 106.948 45.6186 106.949 45.6168C106.952 45.6153 106.951 45.6164 106.954 45.6144C106.976 45.6016 106.996 45.5875 107.018 45.5753C107.044 45.5608 107.147 45.5316 107.04 45.5621C107.065 45.5552 107.088 45.5464 107.112 45.54C107.117 45.5389 107.153 45.5339 107.172 45.5304C107.189 45.5299 107.205 45.5294 107.207 45.5295C107.215 45.5296 107.223 45.5305 107.231 45.5309C107.213 45.5332 107.292 45.5502 107.315 45.5538C107.319 45.5564 107.32 45.5581 107.325 45.5615C107.345 45.5759 107.369 45.5887 107.389 45.6021C107.296 45.542 107.391 45.6069 107.408 45.6247C107.419 45.6353 107.429 45.6466 107.439 45.6578C107.448 45.6684 107.456 45.6798 107.463 45.6918C107.479 45.7197 107.495 45.748 107.511 45.7755L107.515 45.7825C107.515 45.7835 107.515 45.7844 107.515 45.7853C107.524 45.8299 107.536 45.8736 107.552 45.916C107.553 45.9196 107.553 45.9232 107.554 45.9269C107.555 45.9513 107.557 45.9756 107.557 46.0002L107.557 46.0052C107.483 45.9665 107.401 45.9461 107.318 45.9455C107.234 45.9449 107.152 45.9642 107.077 46.0017Z" fill="#E6E6E6"/>
<path d="M107.091 45.9954L107.09 45.996L107.092 45.9954H107.091Z" fill="#E6E6E6"/>
<path d="M107.093 45.9944L107.094 45.9947L107.093 45.9944Z" fill="#E6E6E6"/>
<path d="M107.094 45.9946C107.095 45.9951 107.094 45.9951 107.094 45.9951L107.094 45.9946Z" fill="#E6E6E6"/>
<path d="M107.094 45.9951L107.092 45.9953C107.094 45.9955 107.094 45.9951 107.094 45.9951Z" fill="#E6E6E6"/>
<path d="M101.91 60.6881L87.009 61.5167C86.925 61.5214 86.8425 61.4936 86.7783 61.4392C86.7141 61.3848 86.6733 61.3078 86.6642 61.2241C86.6551 61.1404 86.6784 61.0565 86.7293 60.9895C86.7803 60.9225 86.855 60.8776 86.938 60.8641L102.168 58.3848L101.91 60.6881Z" fill="#3F3D56"/>
<path d="M120.846 93.8759L126.462 84.425L130.612 86.386C130.612 86.386 123.461 95.3218 123.233 95.5789C123.33 96.0132 123.294 96.4669 123.128 96.88C122.962 97.2931 122.675 97.6461 122.304 97.8924C121.933 98.1386 121.497 98.2664 121.052 98.2589C120.607 98.2515 120.175 98.1091 119.813 97.8505C119.45 97.592 119.175 97.2296 119.023 96.8111C118.871 96.3927 118.85 95.938 118.962 95.5072C119.074 95.0764 119.314 94.6897 119.651 94.3985C119.987 94.1072 120.404 93.9249 120.846 93.8759Z" fill="#FFB6B6"/>
<path d="M123.182 71.9221L132.279 76.6705C132.848 77.0802 133.325 77.6041 133.679 78.2087C134.034 78.8133 134.259 79.4853 134.339 80.1817C134.419 80.8781 134.353 81.5835 134.145 82.253C133.938 82.9225 133.592 83.5412 133.132 84.0696L126.86 91.2669L124.128 87.563L126.234 83.158L122.156 82.0823L123.182 71.9221Z" fill="#4A90E2"/>
<path d="M97.2573 60.8424L96.2327 71.7888L91.6428 71.7965C91.6428 71.7965 94.2761 60.6568 94.3719 60.3268C94.0977 59.9762 93.9363 59.5506 93.9091 59.1063C93.882 58.662 93.9903 58.2198 94.2197 57.8384C94.4492 57.457 94.789 57.1543 95.1941 56.9703C95.5993 56.7863 96.0508 56.7297 96.4888 56.8079C96.9269 56.8862 97.3308 57.0957 97.6473 57.4086C97.9638 57.7216 98.1778 58.1232 98.2611 58.5605C98.3444 58.9978 98.293 59.4501 98.1138 59.8576C97.9345 60.265 97.6359 60.6084 97.2573 60.8424Z" fill="#FFB6B6"/>
<path d="M106.394 83.2277L95.8296 81.2895C91.381 80.7543 89.5554 77.8261 90.3581 74.9699L92.9412 65.7781L96.9965 67.9531L96.9809 72.836L102.657 72.0596L106.394 83.2277Z" fill="#4A90E2"/>
<path d="M102.069 158.876H99.1646L97.7827 147.667H102.07L102.069 158.876Z" fill="#FFB6B6"/>
<path d="M102.172 161.908L93.2393 161.907V161.794C93.2393 160.872 93.6056 159.987 94.2577 159.335C94.9097 158.683 95.794 158.316 96.716 158.316L98.3479 157.078L101.392 158.316L102.172 158.316L102.172 161.908Z" fill="#2F2E41"/>
<path d="M122.623 158.876H125.527L126.909 147.667H122.622L122.623 158.876Z" fill="#FFB6B6"/>
<path d="M122.52 161.908L131.453 161.907V161.794C131.453 160.872 131.086 159.987 130.434 159.335C129.782 158.683 128.898 158.316 127.976 158.316L126.344 157.078L123.3 158.316L122.52 158.316L122.52 161.908Z" fill="#2F2E41"/>
<path d="M97.655 139.43C97.6979 138.79 98.039 135.253 98.039 135.253L98.856 127.752L100.296 107.867L101.58 102.641L107.933 105.117L113.088 102.645L119.216 104.604L123.987 106.394C123.987 106.394 123.996 107.16 124.032 108.086C124.081 109.298 124.167 110.783 124.371 111.17C124.712 111.852 124.627 115.516 124.627 115.516C124.627 115.516 124.966 122.97 125.393 123.788C125.82 124.605 125.905 126.307 125.777 126.648C125.648 126.99 126.204 135.942 126.204 135.942C126.204 135.942 127.629 151.784 126.735 154.173C125.84 156.561 122.46 154.997 122.46 154.997C122.46 154.997 122.623 154.359 121.643 154.059C120.662 153.758 117.676 131.295 117.676 131.295C117.676 131.295 117.12 126.689 116.61 125.369C116.099 124.049 115.629 120.34 115.629 120.34C115.629 120.34 112.476 114.202 112.435 112.837C112.435 112.837 112.022 111.56 111.632 112.966C111.242 114.372 110.092 117.739 110.092 117.739L108.971 121.875L107.651 128.054L106.797 133.257C106.797 133.257 105.519 140.161 105.315 140.46C105.11 140.758 105.315 147.066 105.315 147.066C105.315 147.066 104.326 152.438 102.929 153.376C101.532 154.314 97.8302 153.391 97.8302 153.391C97.8302 153.391 97.6121 140.07 97.655 139.43Z" fill="#2F2E41"/>
<path d="M102.405 85.8232L101.593 96.3448L100.373 97.6076C100.263 97.7215 100.177 97.8564 100.121 98.0042C100.064 98.1521 100.038 98.3099 100.043 98.4681C100.049 98.6263 100.087 98.7818 100.154 98.9251C100.221 99.0685 100.317 99.1968 100.435 99.3023L99.7626 100.455L99.5247 104.088C99.4569 104.37 99.4522 104.664 99.5111 104.949C99.57 105.234 99.691 105.502 99.8655 105.734C100.04 105.967 100.264 106.158 100.52 106.294C100.777 106.43 101.061 106.507 101.351 106.521L122.384 107.51C122.673 107.523 122.961 107.473 123.228 107.363C123.495 107.253 123.735 107.086 123.93 106.873C124.126 106.66 124.272 106.407 124.359 106.131C124.446 105.855 124.471 105.564 124.433 105.277L122.644 91.8076V90.8004L121.844 88.8553L122.255 82.3393L123.213 71.997L117.648 70.5592L114.632 68.4827L109.39 68.5662L106.21 71.1791L101.97 71.8435L98.7631 72.4812L98.3546 73.3693L99.1716 73.1917L102.133 84.7467L102.405 85.8232Z" fill="#4A90E2"/>
<path d="M111.894 67.0727C115.304 67.0727 118.068 64.3073 118.068 60.896C118.068 57.4847 115.304 54.7192 111.894 54.7192C108.484 54.7192 105.72 57.4847 105.72 60.896C105.72 64.3073 108.484 67.0727 111.894 67.0727Z" fill="#FFB6B6"/>
<path d="M110.405 66.6744L114.866 66.4468C115.438 66.4176 116.061 66.3671 116.477 65.9736C116.701 65.7306 116.873 65.4447 116.983 65.1332C117.395 64.1749 117.808 63.2165 118.209 62.2537C118.765 60.922 119.311 59.5158 119.169 58.0796C119.136 57.4237 118.861 56.8034 118.398 56.3384C118.161 56.1143 117.857 55.975 117.533 55.9421C117.209 55.9093 116.883 55.9848 116.606 56.1568C116.537 55.7025 116.366 55.2698 116.106 54.8915C115.845 54.5131 115.502 54.1989 115.103 53.9727C114.295 53.5265 113.373 53.331 112.455 53.4111C111.122 53.4971 109.849 53.9989 108.815 54.846C108.525 55.1143 108.214 55.3603 107.887 55.5821C107.722 55.6923 107.537 55.7677 107.342 55.8037C107.147 55.8398 106.947 55.8358 106.754 55.7918C106.562 55.7407 106.396 55.6219 106.285 55.4575C106.175 55.2932 106.127 55.0943 106.152 54.8976C105.838 55.1326 105.622 55.4763 105.548 55.8615C105.473 56.2468 105.545 56.6461 105.748 56.9815C105.517 57.0785 105.264 57.114 105.015 57.0845C104.765 57.055 104.528 56.9615 104.325 56.8131C104.108 56.9208 103.916 57.0726 103.761 57.2589C103.606 57.4452 103.492 57.6618 103.426 57.8949C103.359 58.1279 103.342 58.3723 103.376 58.6123C103.409 58.8523 103.492 59.0827 103.62 59.2887C103.747 59.4947 103.917 59.6717 104.117 59.8085C104.316 59.9453 104.543 60.0389 104.781 60.0831C105.019 60.1274 105.264 60.1214 105.5 60.0656C105.735 60.0097 105.957 59.9053 106.15 59.7589C106.42 60.1382 106.32 60.6538 106.284 61.1186C106.249 61.5834 106.374 62.161 106.822 62.2895C107.427 62.4631 107.918 61.6475 108.547 61.6562C108.703 61.6688 108.853 61.7196 108.984 61.8041C109.115 61.8886 109.223 62.0041 109.298 62.1404C109.447 62.4143 109.549 62.7111 109.599 63.0186L110.405 66.6491" fill="#2F2E41"/>
<path d="M284.337 122.213C284.337 121.257 284.016 120.48 283.622 120.479H176.155C175.759 120.48 175.44 121.257 175.438 122.213V161.586C175.438 161.675 175.405 161.761 175.345 161.826C175.285 161.892 175.204 161.933 175.115 161.942C174.827 161.97 174.538 161.996 174.25 162.019C174.243 162.019 174.236 162.021 174.228 162.021C174.071 162.035 173.915 162.046 173.758 162.059H173.756C173.675 161.909 173.595 161.759 173.516 161.607C173.49 161.556 173.476 161.499 173.476 161.441V119.963C173.476 119.699 173.486 119.433 173.504 119.171C173.53 118.81 173.574 118.452 173.638 118.096C173.939 116.439 174.621 115.316 175.395 115.312H284.38C284.493 115.313 284.605 115.337 284.708 115.382C284.86 115.449 284.998 115.546 285.113 115.666C285.27 115.829 285.403 116.012 285.511 116.21C285.955 117.095 286.211 118.063 286.262 119.053C286.262 119.063 286.264 119.074 286.264 119.085C286.289 119.374 286.301 119.668 286.299 119.963L286.324 123.787L286.34 126.068L286.389 133.223L286.406 135.764L286.485 161.853C286.485 161.948 286.447 162.039 286.38 162.106C286.314 162.173 286.223 162.21 286.128 162.21H284.694C284.599 162.21 284.509 162.173 284.442 162.106C284.375 162.039 284.337 161.948 284.337 161.853V122.213Z" fill="#E6E6E6"/>
<path d="M255.135 97.4187H243.555C243.392 97.419 243.235 97.4843 243.119 97.6003C243.003 97.7163 242.938 97.8736 242.938 98.0375V116.338H255.754V98.0375C255.754 97.9562 255.738 97.8757 255.707 97.8006C255.676 97.7255 255.63 97.6573 255.573 97.5998C255.515 97.5424 255.447 97.4968 255.372 97.4657C255.297 97.4346 255.216 97.4187 255.135 97.4187ZM249.384 107.817C249.022 107.815 248.675 107.67 248.419 107.414C248.163 107.158 248.019 106.811 248.017 106.449V104.338C248.017 103.975 248.161 103.627 248.417 103.371C248.674 103.114 249.022 102.97 249.384 102.97C249.747 102.97 250.095 103.114 250.351 103.371C250.608 103.627 250.752 103.975 250.752 104.338V106.449C250.75 106.811 250.605 107.158 250.349 107.414C250.093 107.67 249.746 107.815 249.384 107.817Z" fill="#CCCCCC"/>
<path d="M242.899 115.752V117.518C242.899 117.61 242.935 117.697 243 117.762C243.065 117.827 243.152 117.863 243.244 117.863H255.448C255.54 117.863 255.627 117.826 255.692 117.762C255.756 117.697 255.793 117.609 255.793 117.518V115.752H242.899Z" fill="#3F3D56"/>
<path d="M274.31 68.8589H224.811C224.386 68.8596 223.978 69.0289 223.677 69.3297C223.377 69.6306 223.207 70.0384 223.207 70.4638V103.88C223.207 104.306 223.376 104.714 223.677 105.015C223.978 105.316 224.386 105.485 224.811 105.485H274.31C274.735 105.485 275.143 105.316 275.444 105.015C275.745 104.714 275.914 104.306 275.914 103.88V70.4638C275.914 70.0384 275.744 69.6306 275.444 69.3297C275.143 69.0289 274.735 68.8596 274.31 68.8589Z" fill="#E6E6E6"/>
<path d="M273.897 70.0181H225.225C224.997 70.0186 224.779 70.1094 224.618 70.2706C224.457 70.4319 224.367 70.6504 224.367 70.8782V103.466C224.367 103.694 224.458 103.912 224.618 104.073C224.779 104.234 224.997 104.324 225.225 104.325H273.897C274.124 104.324 274.342 104.234 274.503 104.073C274.664 103.912 274.755 103.694 274.755 103.466V70.8782C274.755 70.6504 274.665 70.4319 274.504 70.2706C274.343 70.1094 274.125 70.0186 273.897 70.0181Z" fill="white"/>
<path d="M264.416 118.478H235.459C235.38 118.478 235.302 118.46 235.23 118.426C235.158 118.392 235.095 118.342 235.045 118.28C234.995 118.219 234.96 118.147 234.941 118.07C234.923 117.993 234.921 117.912 234.938 117.835L235.387 115.7C235.413 115.581 235.478 115.473 235.573 115.396C235.668 115.32 235.786 115.277 235.908 115.277H263.967C264.089 115.277 264.208 115.32 264.302 115.396C264.397 115.473 264.463 115.581 264.488 115.7L264.938 117.835C264.954 117.912 264.953 117.993 264.934 118.07C264.916 118.147 264.88 118.219 264.83 118.28C264.78 118.342 264.717 118.392 264.646 118.426C264.574 118.46 264.496 118.478 264.416 118.478Z" fill="#CCCCCC"/>
<path d="M236.849 115.661H236.27C236.184 115.661 236.114 115.731 236.114 115.818V116.04C236.114 116.127 236.184 116.197 236.27 116.197H236.849C236.936 116.197 237.006 116.127 237.006 116.04V115.818C237.006 115.731 236.936 115.661 236.849 115.661Z" fill="#E6E6E6"/>
<path d="M238.633 115.661H238.054C237.968 115.661 237.898 115.731 237.898 115.818V116.04C237.898 116.127 237.968 116.197 238.054 116.197H238.633C238.72 116.197 238.79 116.127 238.79 116.04V115.818C238.79 115.731 238.72 115.661 238.633 115.661Z" fill="#E6E6E6"/>
<path d="M240.417 115.661H239.838C239.751 115.661 239.681 115.731 239.681 115.818V116.04C239.681 116.127 239.751 116.197 239.838 116.197H240.417C240.503 116.197 240.573 116.127 240.573 116.04V115.818C240.573 115.731 240.503 115.661 240.417 115.661Z" fill="#E6E6E6"/>
<path d="M242.2 115.661H241.622C241.535 115.661 241.465 115.731 241.465 115.818V116.04C241.465 116.127 241.535 116.197 241.622 116.197H242.2C242.287 116.197 242.357 116.127 242.357 116.04V115.818C242.357 115.731 242.287 115.661 242.2 115.661Z" fill="#E6E6E6"/>
<path d="M243.984 115.661H243.405C243.319 115.661 243.249 115.731 243.249 115.818V116.04C243.249 116.127 243.319 116.197 243.405 116.197H243.984C244.071 116.197 244.141 116.127 244.141 116.04V115.818C244.141 115.731 244.071 115.661 243.984 115.661Z" fill="#E6E6E6"/>
<path d="M245.768 115.661H245.189C245.103 115.661 245.033 115.731 245.033 115.818V116.04C245.033 116.127 245.103 116.197 245.189 116.197H245.768C245.854 116.197 245.924 116.127 245.924 116.04V115.818C245.924 115.731 245.854 115.661 245.768 115.661Z" fill="#E6E6E6"/>
<path d="M247.552 115.661H246.973C246.886 115.661 246.816 115.731 246.816 115.818V116.04C246.816 116.127 246.886 116.197 246.973 116.197H247.552C247.638 116.197 247.708 116.127 247.708 116.04V115.818C247.708 115.731 247.638 115.661 247.552 115.661Z" fill="#E6E6E6"/>
<path d="M249.335 115.661H248.756C248.67 115.661 248.6 115.731 248.6 115.818V116.04C248.6 116.127 248.67 116.197 248.756 116.197H249.335C249.422 116.197 249.492 116.127 249.492 116.04V115.818C249.492 115.731 249.422 115.661 249.335 115.661Z" fill="#E6E6E6"/>
<path d="M251.119 115.661H250.54C250.454 115.661 250.384 115.731 250.384 115.818V116.04C250.384 116.127 250.454 116.197 250.54 116.197H251.119C251.205 116.197 251.276 116.127 251.276 116.04V115.818C251.276 115.731 251.205 115.661 251.119 115.661Z" fill="#E6E6E6"/>
<path d="M252.903 115.661H252.324C252.238 115.661 252.167 115.731 252.167 115.818V116.04C252.167 116.127 252.238 116.197 252.324 116.197H252.903C252.989 116.197 253.059 116.127 253.059 116.04V115.818C253.059 115.731 252.989 115.661 252.903 115.661Z" fill="#E6E6E6"/>
<path d="M254.687 115.661H254.108C254.021 115.661 253.951 115.731 253.951 115.818V116.04C253.951 116.127 254.021 116.197 254.108 116.197H254.687C254.773 116.197 254.843 116.127 254.843 116.04V115.818C254.843 115.731 254.773 115.661 254.687 115.661Z" fill="#E6E6E6"/>
<path d="M256.47 115.661H255.891C255.805 115.661 255.735 115.731 255.735 115.818V116.04C255.735 116.127 255.805 116.197 255.891 116.197H256.47C256.557 116.197 256.627 116.127 256.627 116.04V115.818C256.627 115.731 256.557 115.661 256.47 115.661Z" fill="#E6E6E6"/>
<path d="M258.254 115.661H257.675C257.589 115.661 257.519 115.731 257.519 115.818V116.04C257.519 116.127 257.589 116.197 257.675 116.197H258.254C258.34 116.197 258.41 116.127 258.41 116.04V115.818C258.41 115.731 258.34 115.661 258.254 115.661Z" fill="#E6E6E6"/>
<path d="M260.038 115.661H259.459C259.372 115.661 259.302 115.731 259.302 115.818V116.04C259.302 116.127 259.372 116.197 259.459 116.197H260.038C260.124 116.197 260.194 116.127 260.194 116.04V115.818C260.194 115.731 260.124 115.661 260.038 115.661Z" fill="#E6E6E6"/>
<path d="M261.821 115.661H261.242C261.156 115.661 261.086 115.731 261.086 115.818V116.04C261.086 116.127 261.156 116.197 261.242 116.197H261.821C261.908 116.197 261.978 116.127 261.978 116.04V115.818C261.978 115.731 261.908 115.661 261.821 115.661Z" fill="#E6E6E6"/>
<path d="M263.605 115.661H263.026C262.94 115.661 262.87 115.731 262.87 115.818V116.04C262.87 116.127 262.94 116.197 263.026 116.197H263.605C263.692 116.197 263.762 116.127 263.762 116.04V115.818C263.762 115.731 263.692 115.661 263.605 115.661Z" fill="#E6E6E6"/>
<path d="M236.828 116.554H236.249C236.163 116.554 236.093 116.624 236.093 116.71V116.933C236.093 117.019 236.163 117.089 236.249 117.089H236.828C236.915 117.089 236.985 117.019 236.985 116.933V116.71C236.985 116.624 236.915 116.554 236.828 116.554Z" fill="#E6E6E6"/>
<path d="M238.612 116.554H238.033C237.947 116.554 237.877 116.624 237.877 116.71V116.933C237.877 117.019 237.947 117.089 238.033 117.089H238.612C238.698 117.089 238.768 117.019 238.768 116.933V116.71C238.768 116.624 238.698 116.554 238.612 116.554Z" fill="#E6E6E6"/>
<path d="M240.396 116.554H239.817C239.73 116.554 239.66 116.624 239.66 116.71V116.933C239.66 117.019 239.73 117.089 239.817 117.089H240.396C240.482 117.089 240.552 117.019 240.552 116.933V116.71C240.552 116.624 240.482 116.554 240.396 116.554Z" fill="#E6E6E6"/>
<path d="M242.18 116.554H241.601C241.514 116.554 241.444 116.624 241.444 116.71V116.933C241.444 117.019 241.514 117.089 241.601 117.089H242.18C242.266 117.089 242.336 117.019 242.336 116.933V116.71C242.336 116.624 242.266 116.554 242.18 116.554Z" fill="#E6E6E6"/>
<path d="M243.963 116.554H243.384C243.298 116.554 243.228 116.624 243.228 116.71V116.933C243.228 117.019 243.298 117.089 243.384 117.089H243.963C244.05 117.089 244.12 117.019 244.12 116.933V116.71C244.12 116.624 244.05 116.554 243.963 116.554Z" fill="#E6E6E6"/>
<path d="M245.747 116.554H245.168C245.082 116.554 245.011 116.624 245.011 116.71V116.933C245.011 117.019 245.082 117.089 245.168 117.089H245.747C245.833 117.089 245.903 117.019 245.903 116.933V116.71C245.903 116.624 245.833 116.554 245.747 116.554Z" fill="#E6E6E6"/>
<path d="M247.531 116.554H246.952C246.865 116.554 246.795 116.624 246.795 116.71V116.933C246.795 117.019 246.865 117.089 246.952 117.089H247.531C247.617 117.089 247.687 117.019 247.687 116.933V116.71C247.687 116.624 247.617 116.554 247.531 116.554Z" fill="#E6E6E6"/>
<path d="M249.314 116.554H248.735C248.649 116.554 248.579 116.624 248.579 116.71V116.933C248.579 117.019 248.649 117.089 248.735 117.089H249.314C249.401 117.089 249.471 117.019 249.471 116.933V116.71C249.471 116.624 249.401 116.554 249.314 116.554Z" fill="#E6E6E6"/>
<path d="M251.098 116.554H250.519C250.433 116.554 250.363 116.624 250.363 116.71V116.933C250.363 117.019 250.433 117.089 250.519 117.089H251.098C251.184 117.089 251.254 117.019 251.254 116.933V116.71C251.254 116.624 251.184 116.554 251.098 116.554Z" fill="#E6E6E6"/>
<path d="M252.882 116.554H252.303C252.216 116.554 252.146 116.624 252.146 116.71V116.933C252.146 117.019 252.216 117.089 252.303 117.089H252.882C252.968 117.089 253.038 117.019 253.038 116.933V116.71C253.038 116.624 252.968 116.554 252.882 116.554Z" fill="#E6E6E6"/>
<path d="M254.665 116.554H254.087C254 116.554 253.93 116.624 253.93 116.71V116.933C253.93 117.019 254 117.089 254.087 117.089H254.665C254.752 117.089 254.822 117.019 254.822 116.933V116.71C254.822 116.624 254.752 116.554 254.665 116.554Z" fill="#E6E6E6"/>
<path d="M256.449 116.554H255.87C255.784 116.554 255.714 116.624 255.714 116.71V116.933C255.714 117.019 255.784 117.089 255.87 117.089H256.449C256.536 117.089 256.606 117.019 256.606 116.933V116.71C256.606 116.624 256.536 116.554 256.449 116.554Z" fill="#E6E6E6"/>
<path d="M258.233 116.554H257.654C257.568 116.554 257.498 116.624 257.498 116.71V116.933C257.498 117.019 257.568 117.089 257.654 117.089H258.233C258.319 117.089 258.389 117.019 258.389 116.933V116.71C258.389 116.624 258.319 116.554 258.233 116.554Z" fill="#E6E6E6"/>
<path d="M260.017 116.554H259.438C259.351 116.554 259.281 116.624 259.281 116.71V116.933C259.281 117.019 259.351 117.089 259.438 117.089H260.017C260.103 117.089 260.173 117.019 260.173 116.933V116.71C260.173 116.624 260.103 116.554 260.017 116.554Z" fill="#E6E6E6"/>
<path d="M261.8 116.554H261.221C261.135 116.554 261.065 116.624 261.065 116.71V116.933C261.065 117.019 261.135 117.089 261.221 117.089H261.8C261.887 117.089 261.957 117.019 261.957 116.933V116.71C261.957 116.624 261.887 116.554 261.8 116.554Z" fill="#E6E6E6"/>
<path d="M263.584 116.554H263.005C262.919 116.554 262.849 116.624 262.849 116.71V116.933C262.849 117.019 262.919 117.089 263.005 117.089H263.584C263.67 117.089 263.74 117.019 263.74 116.933V116.71C263.74 116.624 263.67 116.554 263.584 116.554Z" fill="#E6E6E6"/>
<path d="M251.633 117.624H244.811C244.725 117.624 244.655 117.694 244.655 117.781V118.003C244.655 118.09 244.725 118.16 244.811 118.16H251.633C251.72 118.16 251.79 118.09 251.79 118.003V117.781C251.79 117.694 251.72 117.624 251.633 117.624Z" fill="#E6E6E6"/>
<path d="M271.45 74.5079H225.908C225.86 74.5068 225.815 74.4873 225.782 74.4534C225.749 74.4195 225.731 74.3741 225.731 74.3267C225.731 74.2793 225.749 74.2338 225.782 74.2C225.815 74.1661 225.86 74.1466 225.908 74.1455H271.45C271.498 74.1466 271.543 74.1661 271.576 74.2C271.609 74.2338 271.627 74.2793 271.627 74.3267C271.627 74.3741 271.609 74.4195 271.576 74.4534C271.543 74.4873 271.498 74.5068 271.45 74.5079Z" fill="#CACACA"/>
<path d="M229.008 73.2203C229.594 73.2203 230.069 72.7343 230.069 72.1348C230.069 71.5353 229.594 71.0493 229.008 71.0493C228.422 71.0493 227.947 71.5353 227.947 72.1348C227.947 72.7343 228.422 73.2203 229.008 73.2203Z" fill="#CCCCCC"/>
<path d="M232.675 73.2203C233.261 73.2203 233.736 72.7343 233.736 72.1348C233.736 71.5353 233.261 71.0493 232.675 71.0493C232.088 71.0493 231.613 71.5353 231.613 72.1348C231.613 72.7343 232.088 73.2203 232.675 73.2203Z" fill="#CCCCCC"/>
<path d="M236.341 73.2203C236.927 73.2203 237.403 72.7343 237.403 72.1348C237.403 71.5353 236.927 71.0493 236.341 71.0493C235.755 71.0493 235.28 71.5353 235.28 72.1348C235.28 72.7343 235.755 73.2203 236.341 73.2203Z" fill="#CCCCCC"/>
<path d="M269.243 71.3186H266.638C266.587 71.3196 266.537 71.3409 266.501 71.3777C266.465 71.4146 266.445 71.4642 266.445 71.5159C266.445 71.5676 266.465 71.6172 266.501 71.6541C266.537 71.6909 266.587 71.7122 266.638 71.7132H269.243C269.294 71.7122 269.344 71.6909 269.38 71.6541C269.416 71.6172 269.436 71.5676 269.436 71.5159C269.436 71.4642 269.416 71.4146 269.38 71.3777C269.344 71.3409 269.294 71.3196 269.243 71.3186Z" fill="#CCCCCC"/>
<path d="M269.243 72.0591H266.638C266.586 72.0601 266.537 72.0814 266.501 72.1182C266.465 72.1551 266.445 72.2047 266.445 72.2564C266.445 72.308 266.465 72.3576 266.501 72.3945C266.537 72.4314 266.586 72.4526 266.638 72.4537H269.243C269.294 72.4526 269.343 72.4314 269.38 72.3945C269.416 72.3576 269.436 72.308 269.436 72.2564C269.436 72.2047 269.416 72.1551 269.38 72.1182C269.343 72.0814 269.294 72.0601 269.243 72.0591Z" fill="#CCCCCC"/>
<path d="M269.243 72.7986H266.638C266.587 72.7996 266.537 72.8208 266.501 72.8577C266.465 72.8946 266.445 72.9442 266.445 72.9959C266.445 73.0475 266.465 73.0971 266.501 73.134C266.537 73.1709 266.587 73.1922 266.638 73.1932H269.243C269.294 73.1922 269.344 73.1709 269.38 73.134C269.416 73.0971 269.436 73.0475 269.436 72.9959C269.436 72.9442 269.416 72.8946 269.38 72.8577C269.344 72.8208 269.294 72.7996 269.243 72.7986Z" fill="#CCCCCC"/>
<path d="M252.356 84.3792H246.665C246.238 84.3792 245.891 84.7258 245.891 85.1534C245.891 85.5811 246.238 85.9277 246.665 85.9277H252.356C252.784 85.9277 253.13 85.5811 253.13 85.1534C253.13 84.7258 252.784 84.3792 252.356 84.3792Z" fill="#4A90E2"/>
<path d="M256.032 87.4763H242.989C242.562 87.4763 242.215 87.823 242.215 88.2506C242.215 88.6782 242.562 89.0249 242.989 89.0249H256.032C256.46 89.0249 256.806 88.6782 256.806 88.2506C256.806 87.823 256.46 87.4763 256.032 87.4763Z" fill="#E6E6E6"/>
<path d="M256.032 90.5735H242.989C242.562 90.5735 242.215 90.9201 242.215 91.3478C242.215 91.7754 242.562 92.122 242.989 92.122H256.032C256.46 92.122 256.806 91.7754 256.806 91.3478C256.806 90.9201 256.46 90.5735 256.032 90.5735Z" fill="#E6E6E6"/>
<path d="M168.158 138.824L165.534 137.568L169.138 126.598L173.01 128.451L168.158 138.824Z" fill="#FFB6B6"/>
<path d="M185.746 137.055C185.555 137.175 185.364 137.292 185.172 137.41C184.788 137.645 184.401 137.876 184.013 138.104C183.819 138.217 183.622 138.331 183.428 138.443V138.449L183.416 138.451L183.412 138.453L183.115 138.526L182.69 137.4L182.493 136.882L182.216 136.147L181.707 134.803L179.028 127.728L183.193 126.701L183.349 127.339H183.351L183.428 127.655L184.883 133.558L185.179 134.765L185.189 134.801L185.368 135.522L185.522 136.147L185.694 136.845L185.746 137.055Z" fill="#FFB6B6"/>
<path d="M210.587 112.209C210.323 112.633 210.053 113.055 209.782 113.474C209.277 114.252 208.758 115.02 208.227 115.775C208.227 115.777 208.225 115.777 208.223 115.779C207.912 116.067 207.57 116.317 207.201 116.525C207.186 116.537 207.169 116.545 207.153 116.554C206.882 116.704 206.593 116.82 206.294 116.899C206.186 116.926 206.076 116.953 205.968 116.98C205.579 117.073 205.194 117.152 204.81 117.221C204.128 117.343 203.453 117.429 202.783 117.483C202.729 117.489 202.675 117.493 202.621 117.497C199.863 117.699 197.179 117.374 194.377 116.84C192.994 116.577 191.581 116.263 190.119 115.937C189.641 115.829 189.161 115.723 188.675 115.617C188.639 115.61 188.6 115.6 188.562 115.592C187.868 115.44 187.163 115.29 186.44 115.141C185.53 114.954 184.592 114.773 183.617 114.601L183.686 115.976C183.744 117.033 183.964 118.075 184.338 119.066C184.754 120.285 185.083 121.248 184.388 123.255L184.052 124.227C184.226 124.709 184.286 125.226 184.227 125.735C184.167 126.244 183.991 126.733 183.711 127.163L183.644 127.265L186.44 134.342L186.621 134.801H185.189L183.428 134.803H180.443L176.136 126.159L175.93 125.746V125.725L176.375 109.113C176.381 108.966 176.393 108.818 176.412 108.671C176.49 108.005 176.701 107.362 177.03 106.778C177.36 106.194 177.803 105.682 178.333 105.271C178.841 104.874 179.422 104.582 180.044 104.412C180.666 104.241 181.315 104.197 181.954 104.28L183.428 104.471L186.44 104.86L188.562 105.136L188.604 105.141L194.861 105.951L195.31 104.12L195.393 104.089L198.027 103.123L207.138 99.7822L207.161 99.7745L207.76 99.5547L207.832 99.6704C207.853 99.7051 207.874 99.7398 207.893 99.7745C208.486 100.837 208.968 101.957 209.333 103.117C209.946 105.013 210.451 106.942 210.845 108.895C210.863 108.98 210.878 109.057 210.892 109.126L210.897 109.148C210.903 109.18 210.907 109.202 210.909 109.207C211.09 110.218 210.978 111.259 210.587 112.209Z" fill="#2F2E41"/>
<path d="M210.972 106.087C210.943 105.963 210.906 105.838 210.868 105.717C210.562 104.797 210.205 103.895 209.8 103.014C209.345 102.011 208.8 100.938 208.151 99.7752C207.836 99.2123 207.499 98.6269 207.137 98.019C206.956 97.7144 206.768 97.404 206.572 97.0878C206.565 97.0733 206.556 97.0591 206.547 97.0454L206.491 96.9529L197.477 98.1597L194.12 98.6089L193.92 100.282L193.871 100.697C193.87 100.697 193.87 100.697 193.871 100.699L193.737 101.828V101.83L193.557 103.322L193.542 103.32L188.561 102.675L183.427 102.01L180.67 101.653C180.031 101.57 179.381 101.614 178.76 101.784C178.138 101.955 177.556 102.247 177.049 102.644C176.519 103.055 176.076 103.567 175.746 104.151C175.417 104.735 175.206 105.378 175.128 106.044C175.11 106.179 175.099 106.318 175.093 106.455L172.491 112.622C170.935 116.31 169.943 120.213 169.551 124.197L167.643 130.298L167.915 130.323L171.958 130.699L173.025 130.8L175.376 127.366C175.644 126.975 175.898 126.572 176.135 126.159C176.526 125.486 176.873 124.788 177.174 124.07L182.259 111.963C182.652 112.03 183.042 112.095 183.427 112.156C185.21 112.445 186.921 112.681 188.561 112.863C193.893 113.459 198.51 113.505 202.62 113C203.774 112.859 204.89 112.674 205.967 112.445C206.362 112.362 206.752 112.273 207.137 112.177C207.228 112.156 207.316 112.135 207.405 112.111C208.201 111.906 208.933 111.504 209.534 110.942C210.135 110.38 210.586 109.677 210.845 108.896C211.154 107.991 211.198 107.016 210.972 106.087Z" fill="#2F2E41"/>
<path d="M168.996 137.032L166.157 135.671L165.712 135.457L165.001 137.204L160.037 138.297C159.792 138.351 159.57 138.482 159.404 138.671C159.238 138.86 159.137 139.097 159.116 139.347C159.094 139.597 159.153 139.848 159.285 140.063C159.416 140.277 159.612 140.444 159.845 140.539L164.695 142.519L166.234 141.133L165.857 142.993L167.684 143.739L169.686 137.364L168.996 137.032Z" fill="#2F2E41"/>
<path d="M186.44 134.342L186.621 134.801H186.44V134.342Z" fill="#2F2E41"/>
<path d="M185.451 134.899L182.477 135.93L182.01 136.091L182.733 137.833L179.975 142.104C179.838 142.315 179.773 142.564 179.788 142.815C179.803 143.066 179.898 143.306 180.059 143.499C180.22 143.692 180.438 143.828 180.682 143.888C180.926 143.949 181.183 143.929 181.415 143.833L186.254 141.825L186.373 139.757L187.413 141.344L189.236 140.589L186.175 134.649L185.451 134.899Z" fill="#2F2E41"/>
<path d="M167.4 71.1128C167.541 71.3877 167.74 71.6283 167.984 71.8176C168.228 72.007 168.511 72.1405 168.812 72.2088C169.113 72.2771 169.426 72.2785 169.727 72.213C170.029 72.1474 170.313 72.0164 170.559 71.8292L176.813 75.9828L176.825 72.0802L170.884 68.7342C170.542 68.3421 170.069 68.089 169.553 68.0229C169.037 67.9567 168.515 68.0821 168.086 68.3753C167.656 68.6685 167.349 69.1091 167.223 69.6137C167.096 70.1182 167.159 70.6516 167.4 71.1128Z" fill="#FFB6B6"/>
<path d="M172.072 72.9165L174.99 69.5955L186.871 76.6518L202.621 75.2088C203.399 75.1375 204.184 75.2386 204.919 75.5048C205.654 75.7709 206.321 76.1958 206.874 76.749C207.426 77.3023 207.85 77.9705 208.116 78.7062C208.381 79.4418 208.481 80.2269 208.409 81.0057C208.278 82.4121 207.594 83.7089 206.507 84.6114C205.421 85.514 204.021 85.9486 202.615 85.8199L184.877 84.1774L172.072 72.9165Z" fill="#CCCCCC"/>
<path d="M208.627 72.9677L208.599 72.9333C206.384 72.7146 204.152 73.1436 202.175 74.1683C200.199 75.193 198.561 76.7694 197.462 78.7063L196.126 81.0618C191.802 86.3496 194.944 89.9962 195.132 90.5384L193.631 97.4608L193.968 99.7775L194.136 100.466L211.266 109.42C212.241 104.732 211.298 100.738 207.745 97.6859L211.183 86.9847C211.945 84.6186 212.11 82.1006 211.664 79.655C211.218 77.2094 210.175 74.9121 208.627 72.9677Z" fill="#CCCCCC"/>
<path d="M195.006 124.956H189.511C189.209 124.956 188.917 124.846 188.689 124.648C188.461 124.45 188.312 124.176 188.269 123.876C187.93 121.379 187.93 118.846 188.269 116.349C188.311 116.053 188.457 115.782 188.681 115.584C188.905 115.386 189.191 115.275 189.49 115.269C191.219 114.494 193.081 114.494 195.025 115.269C195.206 115.272 195.384 115.314 195.547 115.392C195.71 115.471 195.854 115.585 195.969 115.725C196.088 115.871 196.174 116.041 196.219 116.225C196.264 116.408 196.268 116.599 196.231 116.783C195.789 118.981 195.789 121.244 196.231 123.442C196.268 123.627 196.264 123.817 196.219 124.001C196.174 124.184 196.088 124.354 195.969 124.5C195.852 124.643 195.705 124.758 195.539 124.837C195.372 124.916 195.19 124.956 195.006 124.956Z" fill="#4A90E2"/>
<path d="M194.43 118.139H189.806C189.767 118.14 189.729 118.132 189.694 118.118C189.659 118.104 189.627 118.082 189.599 118.056C189.572 118.029 189.551 117.997 189.536 117.961C189.521 117.926 189.514 117.888 189.514 117.85C189.514 117.812 189.521 117.774 189.536 117.739C189.551 117.704 189.572 117.672 189.599 117.645C189.627 117.618 189.659 117.597 189.694 117.582C189.729 117.568 189.767 117.561 189.806 117.561H194.43C194.468 117.561 194.506 117.568 194.542 117.582C194.577 117.597 194.609 117.618 194.636 117.645C194.663 117.672 194.685 117.704 194.7 117.739C194.714 117.774 194.722 117.812 194.722 117.85C194.722 117.888 194.714 117.926 194.7 117.961C194.685 117.997 194.663 118.029 194.636 118.056C194.609 118.082 194.577 118.104 194.542 118.118C194.506 118.132 194.468 118.14 194.43 118.139Z" fill="white"/>
<path d="M194.43 120.453H189.806C189.767 120.453 189.729 120.446 189.694 120.432C189.659 120.417 189.627 120.396 189.599 120.369C189.572 120.342 189.551 120.31 189.536 120.275C189.521 120.24 189.514 120.202 189.514 120.164C189.514 120.125 189.521 120.088 189.536 120.052C189.551 120.017 189.572 119.985 189.599 119.958C189.627 119.931 189.659 119.91 189.694 119.896C189.729 119.881 189.767 119.874 189.806 119.875H194.43C194.468 119.874 194.506 119.881 194.542 119.896C194.577 119.91 194.609 119.931 194.636 119.958C194.663 119.985 194.685 120.017 194.7 120.052C194.714 120.088 194.722 120.125 194.722 120.164C194.722 120.202 194.714 120.24 194.7 120.275C194.685 120.31 194.663 120.342 194.636 120.369C194.609 120.396 194.577 120.417 194.542 120.432C194.506 120.446 194.468 120.453 194.43 120.453Z" fill="white"/>
<path d="M194.43 122.766H189.806C189.767 122.766 189.73 122.759 189.694 122.745C189.659 122.731 189.627 122.709 189.599 122.682C189.572 122.655 189.551 122.623 189.536 122.588C189.521 122.553 189.514 122.515 189.514 122.477C189.514 122.439 189.521 122.401 189.536 122.366C189.551 122.33 189.572 122.298 189.599 122.271C189.627 122.245 189.659 122.223 189.694 122.209C189.73 122.195 189.767 122.187 189.806 122.188H194.43C194.469 122.187 194.506 122.195 194.542 122.209C194.577 122.223 194.609 122.245 194.637 122.271C194.664 122.298 194.685 122.33 194.7 122.366C194.715 122.401 194.722 122.439 194.722 122.477C194.722 122.515 194.715 122.553 194.7 122.588C194.685 122.623 194.664 122.655 194.637 122.682C194.609 122.709 194.577 122.731 194.542 122.745C194.506 122.759 194.469 122.766 194.43 122.766Z" fill="white"/>
<path d="M168.407 73.0181H162.912C162.61 73.0179 162.318 72.9086 162.09 72.7103C161.862 72.512 161.713 72.238 161.67 71.9386C161.331 69.4409 161.331 66.9087 161.67 64.411C161.712 64.1152 161.858 63.8441 162.082 63.6463C162.306 63.4485 162.593 63.3369 162.891 63.3317C164.62 62.5564 166.482 62.5565 168.426 63.3316C168.607 63.334 168.785 63.376 168.948 63.4547C169.111 63.5334 169.255 63.6468 169.37 63.7871C169.489 63.933 169.575 64.1037 169.62 64.2868C169.666 64.4699 169.67 64.6608 169.632 64.8456C169.191 67.0431 169.191 69.3065 169.632 71.504C169.67 71.6888 169.666 71.8797 169.62 72.0628C169.575 72.2459 169.489 72.4166 169.37 72.5625C169.253 72.7053 169.106 72.8202 168.94 72.899C168.773 72.9778 168.591 73.0185 168.407 73.0181Z" fill="#4A90E2"/>
<path d="M167.831 66.2014H163.207C163.168 66.2017 163.131 66.1945 163.095 66.1801C163.06 66.1657 163.028 66.1445 163.001 66.1176C162.973 66.0907 162.952 66.0587 162.937 66.0235C162.923 65.9882 162.915 65.9504 162.915 65.9122C162.915 65.874 162.923 65.8362 162.937 65.801C162.952 65.7657 162.973 65.7337 163.001 65.7068C163.028 65.68 163.06 65.6587 163.095 65.6443C163.131 65.6299 163.168 65.6227 163.207 65.6231H167.831C167.87 65.6227 167.907 65.6299 167.943 65.6443C167.978 65.6587 168.01 65.68 168.037 65.7068C168.065 65.7337 168.086 65.7657 168.101 65.801C168.115 65.8362 168.123 65.874 168.123 65.9122C168.123 65.9504 168.115 65.9882 168.101 66.0235C168.086 66.0587 168.065 66.0907 168.037 66.1176C168.01 66.1445 167.978 66.1657 167.943 66.1801C167.907 66.1945 167.87 66.2017 167.831 66.2014Z" fill="white"/>
<path d="M167.831 68.5149H163.207C163.168 68.5152 163.131 68.508 163.095 68.4936C163.06 68.4792 163.028 68.458 163.001 68.4311C162.973 68.4042 162.952 68.3722 162.937 68.337C162.923 68.3017 162.915 68.2639 162.915 68.2257C162.915 68.1875 162.923 68.1497 162.937 68.1145C162.952 68.0792 162.973 68.0472 163.001 68.0203C163.028 67.9934 163.06 67.9722 163.095 67.9578C163.131 67.9434 163.168 67.9362 163.207 67.9365H167.831C167.87 67.9362 167.907 67.9434 167.943 67.9578C167.978 67.9722 168.01 67.9934 168.037 68.0203C168.065 68.0472 168.086 68.0792 168.101 68.1145C168.115 68.1497 168.123 68.1875 168.123 68.2257C168.123 68.2639 168.115 68.3017 168.101 68.337C168.086 68.3722 168.065 68.4042 168.037 68.4311C168.01 68.458 167.978 68.4792 167.943 68.4936C167.907 68.508 167.87 68.5152 167.831 68.5149Z" fill="white"/>
<path d="M167.831 70.8284H163.207C163.169 70.8287 163.131 70.8215 163.095 70.8071C163.06 70.7928 163.028 70.7715 163.001 70.7446C162.973 70.7177 162.952 70.6857 162.937 70.6505C162.922 70.6152 162.915 70.5774 162.915 70.5392C162.915 70.501 162.922 70.4632 162.937 70.4279C162.952 70.3926 162.973 70.3606 163.001 70.3337C163.028 70.3069 163.06 70.2856 163.095 70.2712C163.131 70.2569 163.169 70.2497 163.207 70.25H167.831C167.87 70.2497 167.908 70.2569 167.943 70.2712C167.978 70.2856 168.011 70.3069 168.038 70.3337C168.065 70.3606 168.086 70.3926 168.101 70.4279C168.116 70.4632 168.123 70.501 168.123 70.5392C168.123 70.5774 168.116 70.6152 168.101 70.6505C168.086 70.6857 168.065 70.7177 168.038 70.7446C168.011 70.7715 167.978 70.7928 167.943 70.8071C167.908 70.8215 167.87 70.8287 167.831 70.8284Z" fill="white"/>
<path d="M71.9461 87.1246H66.4513C66.1491 87.1243 65.8571 87.015 65.629 86.8167C65.4008 86.6184 65.2519 86.3444 65.2094 86.0451C64.8701 83.5473 64.8701 81.0152 65.2094 78.5174C65.2514 78.2217 65.3973 77.9505 65.6211 77.7527C65.8448 77.5549 66.1317 77.4434 66.4303 77.4381C68.1591 76.6628 70.0209 76.6629 71.965 77.438C72.1461 77.4404 72.3244 77.4824 72.4875 77.5611C72.6506 77.6398 72.7945 77.7533 72.9091 77.8935C73.0286 78.0394 73.1142 78.2101 73.1595 78.3932C73.2048 78.5763 73.2088 78.7672 73.1711 78.952C72.7297 81.1495 72.7297 83.4129 73.1711 85.6105C73.2088 85.7953 73.2048 85.9862 73.1595 86.1693C73.1142 86.3524 73.0286 86.5231 72.9091 86.669C72.7925 86.8117 72.6456 86.9266 72.479 87.0054C72.3124 87.0843 72.1304 87.125 71.9461 87.1246Z" fill="#4A90E2"/>
<path d="M71.3708 80.3081H66.746C66.7078 80.3084 66.6699 80.3012 66.6346 80.2868C66.5992 80.2724 66.567 80.2512 66.5399 80.2243C66.5128 80.1974 66.4913 80.1654 66.4766 80.1302C66.4619 80.0949 66.4543 80.0571 66.4543 80.0189C66.4543 79.9807 66.4619 79.9429 66.4766 79.9077C66.4913 79.8724 66.5128 79.8404 66.5399 79.8135C66.567 79.7867 66.5992 79.7654 66.6346 79.751C66.6699 79.7366 66.7078 79.7294 66.746 79.7297H71.3708C71.4089 79.7294 71.4468 79.7366 71.4822 79.751C71.5175 79.7654 71.5497 79.7867 71.5768 79.8135C71.6039 79.8404 71.6254 79.8724 71.6401 79.9077C71.6548 79.9429 71.6624 79.9807 71.6624 80.0189C71.6624 80.0571 71.6548 80.0949 71.6401 80.1302C71.6254 80.1654 71.6039 80.1974 71.5768 80.2243C71.5497 80.2512 71.5175 80.2724 71.4822 80.2868C71.4468 80.3012 71.4089 80.3084 71.3708 80.3081Z" fill="white"/>
<path d="M71.3708 82.6216H66.746C66.7078 82.6219 66.6699 82.6147 66.6346 82.6003C66.5992 82.5859 66.567 82.5647 66.5399 82.5378C66.5128 82.5109 66.4913 82.4789 66.4766 82.4437C66.4619 82.4084 66.4543 82.3706 66.4543 82.3324C66.4543 82.2942 66.4619 82.2564 66.4766 82.2211C66.4913 82.1859 66.5128 82.1539 66.5399 82.127C66.567 82.1001 66.5992 82.0789 66.6346 82.0645C66.6699 82.0501 66.7078 82.0429 66.746 82.0432H71.3708C71.4089 82.0429 71.4468 82.0501 71.4822 82.0645C71.5175 82.0789 71.5497 82.1001 71.5768 82.127C71.6039 82.1539 71.6254 82.1859 71.6401 82.2211C71.6548 82.2564 71.6624 82.2942 71.6624 82.3324C71.6624 82.3706 71.6548 82.4084 71.6401 82.4437C71.6254 82.4789 71.6039 82.5109 71.5768 82.5378C71.5497 82.5647 71.5175 82.5859 71.4822 82.6003C71.4468 82.6147 71.4089 82.6219 71.3708 82.6216Z" fill="white"/>
<path d="M71.3707 84.9348H66.7459C66.7077 84.9352 66.6698 84.928 66.6344 84.9136C66.599 84.8992 66.5669 84.878 66.5397 84.8511C66.5126 84.8242 66.4911 84.7922 66.4764 84.7569C66.4617 84.7217 66.4541 84.6838 66.4541 84.6456C66.4541 84.6074 66.4617 84.5696 66.4764 84.5343C66.4911 84.4991 66.5126 84.4671 66.5397 84.4402C66.5669 84.4133 66.599 84.3921 66.6344 84.3777C66.6698 84.3633 66.7077 84.3561 66.7459 84.3565H71.3707C71.4089 84.3561 71.4468 84.3633 71.4821 84.3777C71.5175 84.3921 71.5497 84.4133 71.5768 84.4402C71.604 84.4671 71.6255 84.4991 71.6402 84.5343C71.6549 84.5696 71.6625 84.6074 71.6625 84.6456C71.6625 84.6838 71.6549 84.7217 71.6402 84.7569C71.6255 84.7922 71.604 84.8242 71.5768 84.8511C71.5497 84.878 71.5175 84.8992 71.4821 84.9136C71.4468 84.928 71.4089 84.9352 71.3707 84.9348Z" fill="white"/>
<path d="M196.616 117.929C196.882 117.772 197.11 117.558 197.284 117.303C197.459 117.048 197.575 116.758 197.626 116.453C197.676 116.149 197.659 115.837 197.575 115.539C197.492 115.242 197.345 114.966 197.143 114.732L200.917 108.24L197.022 108.459L194.036 114.591C193.665 114.955 193.44 115.443 193.405 115.962C193.369 116.481 193.526 116.995 193.844 117.406C194.162 117.818 194.619 118.098 195.13 118.195C195.641 118.291 196.17 118.196 196.616 117.929Z" fill="#FFB6B6"/>
<path d="M198.138 113.156L194.652 110.439L200.988 98.1551L198.613 82.5121C198.496 81.7388 198.55 80.9493 198.772 80.1994C198.994 79.4495 199.379 78.7577 199.898 78.1731C200.417 77.5885 201.059 77.1254 201.777 76.8168C202.495 76.5081 203.273 76.3614 204.054 76.3872C205.465 76.4352 206.8 77.0414 207.765 78.0726C208.73 79.1038 209.247 80.4759 209.202 81.8878L208.615 99.6994L198.138 113.156Z" fill="#CCCCCC"/>
<path d="M29.6065 109.8C29.8261 109.579 29.9947 109.313 30.1003 109.02C30.2059 108.726 30.246 108.414 30.2178 108.104C30.1895 107.793 30.0936 107.493 29.9368 107.224C29.7801 106.955 29.5662 106.723 29.3103 106.546L32.7015 89.6948L28.9566 90.8977L26.2421 107.197C25.9725 107.647 25.8772 108.18 25.9743 108.695C26.0713 109.211 26.354 109.672 26.7687 109.993C27.1834 110.314 27.7013 110.472 28.2244 110.436C28.7474 110.4 29.2392 110.174 29.6065 109.8Z" fill="#9E616A"/>
<path d="M34.6138 74.1473L32.2902 72.3926C32.2902 72.3926 30.2405 72.2474 29.8775 75.9454C29.5144 79.6435 28.769 86.8503 28.769 86.8503L25.2135 103.325L30.1353 104.406L33.9435 86.6267L36.228 81.3469L34.6138 74.1473Z" fill="#CCCCCC"/>
<path d="M30.7832 101.049L43.8766 100.831L44.9678 91.8796H30.7832V101.049Z" fill="#9E616A"/>
<path d="M42.567 156.13H45.5897L47.0276 144.466L42.5664 144.466L42.567 156.13Z" fill="#9E616A"/>
<path d="M23.6306 156.41L26.6533 156.389L28.0095 144.715L24.0783 145.617L23.6306 156.41Z" fill="#9E616A"/>
<path d="M33.0845 84.1714L32.3997 85.9526L32.5365 87.7342L45.9407 92.3788L45.2757 84.5824L43.7689 82.8008L33.0845 84.1714Z" fill="#FFB6B6"/>
<path d="M38.8351 68.1395C41.4791 68.1395 43.6225 65.9952 43.6225 63.35C43.6225 60.7049 41.4791 58.5605 38.8351 58.5605C36.191 58.5605 34.0476 60.7049 34.0476 63.35C34.0476 65.9952 36.191 68.1395 38.8351 68.1395Z" fill="#9E616A"/>
<path d="M41.8173 154.638L46.5956 154.353V156.401L51.1383 159.54C51.3627 159.695 51.5317 159.918 51.6207 160.175C51.7096 160.433 51.7138 160.713 51.6326 160.973C51.5515 161.234 51.3892 161.461 51.1696 161.623C50.9499 161.785 50.6844 161.872 50.4117 161.872H44.7231L43.7425 159.846L43.3597 161.872H41.2148L41.8173 154.638Z" fill="#2F2E41"/>
<path d="M22.5967 154.925L27.3728 154.607L27.3871 156.655L31.9517 159.762C32.1772 159.915 32.3478 160.136 32.4385 160.394C32.5292 160.651 32.5353 160.931 32.456 161.192C32.3767 161.453 32.2161 161.681 31.9976 161.845C31.779 162.008 31.5141 162.097 31.2414 162.099L25.5529 162.138L24.5583 160.12L24.1896 162.148L22.0448 162.163L22.5967 154.925Z" fill="#2F2E41"/>
<path d="M22.6901 147.467L24.8911 129.867L27.5097 111.31C25.592 107.747 29.9102 96.6826 29.9102 96.6826L30.5197 96.7119L44.3159 99.3157L44.3129 99.3024C47.1347 107.002 48.0695 110.806 47.9149 119.005L47.359 148.48H47.5334C47.8228 148.48 48.1003 148.595 48.3049 148.8C48.5095 149.004 48.6245 149.282 48.6245 149.571C48.6245 149.861 48.5095 150.139 48.3049 150.343C48.1003 150.548 47.8228 150.663 47.5334 150.663H42.0778C41.9344 150.663 41.7923 150.635 41.6597 150.58C41.5271 150.526 41.4066 150.445 41.3051 150.344C41.2036 150.243 41.123 150.122 41.0681 149.99C41.0131 149.857 40.9848 149.715 40.9848 149.571C40.9848 149.428 41.0131 149.286 41.0681 149.153C41.123 149.021 41.2036 148.9 41.3051 148.799C41.4066 148.697 41.5271 148.617 41.6597 148.562C41.7923 148.508 41.9344 148.48 42.0778 148.48H42.2185L37.2109 113.384L32.9653 128.12L28.1644 147.332C29.9102 146.895 29.6391 147.907 29.6391 148.48C29.6391 148.769 29.5242 149.047 29.3195 149.252C29.1149 149.456 28.8374 149.571 28.548 149.571H23.0925C22.8387 149.572 22.5928 149.483 22.3972 149.322C22.2016 149.16 22.0684 148.935 22.0208 148.686C21.9731 148.437 22.0138 148.178 22.136 147.956C22.2582 147.733 22.4541 147.561 22.6901 147.467Z" fill="#2F2E41"/>
<path d="M28.8361 97.2558L29.2725 92.8895C29.3178 92.7114 29.4184 92.5522 29.5597 92.4348C29.701 92.3173 29.8759 92.2476 30.0592 92.2357C30.2411 90.1558 31.0062 81.1827 31.0519 80.7913L31.0537 80.7748L31.4016 73.3395C31.4142 73.0694 31.5258 72.8135 31.7151 72.6206C31.9044 72.4277 32.1581 72.3113 32.4278 72.2936L34.2654 72.1735C34.2906 72.1726 34.3145 72.162 34.332 72.1439C34.3496 72.1257 34.3594 72.1015 34.3594 72.0763C34.3594 71.8732 34.3993 71.6722 34.477 71.4846C34.5546 71.2971 34.6685 71.1266 34.812 70.9831C34.9555 70.8395 35.1258 70.7256 35.3133 70.648C35.5008 70.5703 35.7017 70.5303 35.9047 70.5303H41.3452C41.6976 70.5304 42.0378 70.6592 42.302 70.8925C42.5662 71.1258 42.7363 71.4475 42.7802 71.7973C42.7826 71.8214 42.794 71.8437 42.8121 71.8597C42.8302 71.8758 42.8537 71.8844 42.8779 71.8838H42.8786C43.4968 71.8711 44.099 72.0805 44.5761 72.474C45.0532 72.8675 45.3735 73.4191 45.4788 74.0286C46.2226 78.358 47.7132 88.1842 46.9762 93.6469C46.7197 95.5486 47.2727 94.0424 47.3697 95.6336C47.3794 95.7873 47.3586 95.9415 47.3086 96.0872C47.2586 96.2329 47.1803 96.3673 47.0783 96.4827C47.2871 96.5587 47.4576 96.714 47.5528 96.9149C47.6479 97.1159 47.6599 97.3462 47.5863 97.556L47.6819 97.5323C47.6539 97.6435 47.6043 97.7481 47.5359 97.8401C47.4674 97.9321 47.3816 98.0098 47.2832 98.0686C47.1848 98.1274 47.0757 98.1662 46.9623 98.1829C46.8489 98.1995 46.7333 98.1937 46.6222 98.1656L32.3884 100.095C31.9209 99.9772 28.7182 97.7235 28.8361 97.2558Z" fill="#CCCCCC"/>
<path d="M66.8706 79.5032C66.7814 79.8017 66.6279 80.077 66.4209 80.3097C66.2139 80.5424 65.9584 80.7268 65.6724 80.8501C65.3864 80.9733 65.0769 81.0323 64.7657 81.0229C64.4545 81.0135 64.1491 80.936 63.871 80.7957L58.3683 85.8197L57.6377 81.9533L62.9786 77.7876C63.2451 77.3359 63.6679 76.9977 64.1669 76.8371C64.666 76.6765 65.2066 76.7045 65.6863 76.916C66.166 77.1275 66.5516 77.5077 66.7698 77.9845C66.9881 78.4613 67.0239 79.0017 66.8706 79.5032Z" fill="#9E616A"/>
<path d="M47.7181 75.6631C47.7181 75.6631 45.7994 71.3251 43.376 72.1874C40.9525 73.0497 42.2038 77.2587 42.2038 77.2587L51.3086 90.9842C51.3086 90.9842 64.4411 82.5563 62.8442 82.4968C61.2473 82.4372 60.7696 79.5315 60.7696 79.5315L53.8288 83.0011L53.594 81.7659L53.2176 82.1425L52.2463 81.3777L47.7181 75.6631Z" fill="#CCCCCC"/>
<path d="M204.677 70.8977C208.369 70.8977 211.361 67.904 211.361 64.211C211.361 60.5179 208.369 57.5242 204.677 57.5242C200.986 57.5242 197.993 60.5179 197.993 64.211C197.993 67.904 200.986 70.8977 204.677 70.8977Z" fill="#FFB6B6"/>
<path d="M226.128 74.0504C225.357 75.1439 224.231 75.9368 222.942 76.2946C222.426 76.4482 221.894 76.5388 221.356 76.5642C221.289 75.9559 221.13 75.3614 220.884 74.8012C220.909 75.3975 220.826 75.9933 220.64 76.5601C219.832 76.5143 219.043 76.3027 218.321 75.9385C217.611 75.5815 216.995 75.064 216.52 74.4272C216.046 73.7903 215.726 73.0516 215.587 72.2696C215.304 70.4406 216.132 68.6446 216.432 66.8184C216.733 64.9922 216.168 62.6792 214.381 62.1993C213.02 61.8335 213.173 61.9916 212.042 62.8318C213.218 64.5725 208.872 70.9515 207.093 70.3952C206.088 70.0807 205.444 69.1576 205.236 69.1576C203.838 71.5668 206.471 75.6263 203.818 76.4693L204.036 76.2506C205.638 74.28 202.29 70.1092 203.892 68.1386C204.339 67.5871 204.814 66.9339 204.682 66.2367C204.557 65.5739 203.506 65.2232 203.198 65.7678C203.752 64.4985 202.934 62.8043 201.58 62.4784C200.377 62.1882 200.399 62.5458 199.192 62.7012C199.113 62.1794 198.966 61.6703 198.754 61.1871C198.776 61.7077 198.715 62.2285 198.574 62.73C198.147 62.7217 197.736 62.5728 197.402 62.3065C196.418 61.513 196.618 59.8463 197.496 58.9373C198.376 58.0284 199.683 57.7011 200.93 57.4893C201.292 54.9644 208.255 54.701 209.178 57.2239C209.572 55.3399 211.929 54.3622 213.761 54.9466C215.594 55.5311 216.865 57.2432 217.535 59.0474C218.204 60.8502 218.391 62.7906 218.803 64.669C219.216 66.5475 219.913 68.4604 221.348 69.7406C222.783 71.0195 225.121 71.4431 226.633 70.2549C226.853 70.8828 226.922 71.5535 226.834 72.213C226.746 72.8724 226.505 73.5019 226.128 74.0504Z" fill="#2F2E41"/>
<path d="M288.836 89.3098L287.9 94.0067C287.83 94.3658 287.756 94.7313 287.676 95.0935C286.894 94.9314 286.083 94.9767 285.324 95.225C285.926 96.0861 286.466 96.9893 286.939 97.9277C286.349 99.7455 285.484 101.425 284.036 102.641C283.068 103.434 281.913 103.965 280.68 104.182C279.448 104.398 278.181 104.294 277.001 103.878L277.043 103.692C275.485 100.669 276.331 96.8569 278.267 94.0644C279.254 92.6868 280.424 91.4497 281.744 90.3871C283.052 89.297 284.465 88.3192 285.865 87.3542C286.18 87.1378 286.552 87.0201 286.934 87.0162C287.315 87.0123 287.689 87.1224 288.008 87.3323C288.327 87.5422 288.576 87.8425 288.724 88.1948C288.871 88.547 288.91 88.9352 288.836 89.3098Z" fill="#E4E4E4"/>
<path d="M277.335 115.179C276.941 112.309 276.536 109.402 276.812 106.501C277.057 103.924 277.843 101.408 279.443 99.3446C280.292 98.2515 281.325 97.3148 282.496 96.5768C282.801 96.3845 283.082 96.8683 282.778 97.06C280.752 98.3408 279.185 100.232 278.303 102.461C277.329 104.94 277.173 107.643 277.342 110.276C277.443 111.868 277.659 113.45 277.875 115.03C277.893 115.102 277.882 115.177 277.846 115.241C277.81 115.305 277.75 115.353 277.68 115.375C277.608 115.394 277.532 115.384 277.468 115.348C277.403 115.311 277.356 115.25 277.336 115.179L277.335 115.179Z" fill="#F2F2F2"/>
<path d="M299.618 162.401L0.381571 162.5C0.280562 162.5 0.183793 162.459 0.112472 162.388C0.0411515 162.316 0.00109863 162.219 0.00109863 162.118C0.00109863 162.017 0.0411515 161.92 0.112472 161.849C0.183793 161.777 0.280562 161.737 0.381571 161.736L299.618 161.638C299.719 161.638 299.816 161.679 299.888 161.75C299.959 161.822 299.999 161.919 299.999 162.02C299.999 162.121 299.959 162.218 299.888 162.289C299.816 162.361 299.719 162.401 299.618 162.401Z" fill="#CACACA"/>
<path d="M33.2005 60.4177C32.4662 60.7702 31.6443 60.2398 31.0104 59.7143L31.2372 59.9102C30.1168 61.0007 29.593 62.5696 29.337 64.1141C29.0808 65.6569 29.0523 67.2347 28.7297 68.7665C28.4069 70.2967 27.7372 71.8342 26.4864 72.7714C24.8106 74.0268 22.4995 73.9462 20.443 73.5614C20.4156 73.5558 20.3901 73.5516 20.3627 73.546C20.916 71.9477 21.1409 70.2541 21.024 68.5667C20.4728 70.2577 19.5344 71.7964 18.2836 73.0604C16.9201 72.685 15.5893 72.1999 14.3041 71.6097C13.4725 71.2268 12.5771 70.7032 12.3463 69.8166C12.1149 68.9368 12.6522 68.0139 13.3707 67.4583C14.0891 66.9028 14.9709 66.6129 15.7893 66.2171C16.6065 65.8232 17.4151 65.2615 17.7422 64.4136C18.4969 62.463 16.3472 60.2248 17.185 58.3074C17.5981 57.3645 18.61 56.8517 19.5611 56.4563C21.0131 55.8543 22.504 55.3511 24.0238 54.9503C25.358 54.5983 26.7511 54.3246 28.1102 54.5554C29.4693 54.7862 30.8008 55.6133 31.29 56.9045C32.1062 57.1805 32.9727 57.4915 33.4965 58.1788C34.0201 58.8645 33.9779 60.045 33.2005 60.4177Z" fill="#2F2E41"/>
<path d="M39.7336 58.1574C37.6331 56.4984 35.9348 56.7816 34.6246 57.8123C34.4043 57.5671 33.467 58.2416 33.1497 58.1446L32.0018 60.3004C31.4111 61.3432 31.1688 62.4076 31.2643 63.0068C30.1778 66.055 32.7543 68.1134 35.8013 69.2003C37.0171 69.6371 38.3437 69.6563 39.5716 69.255L39.6091 68.7356L39.8398 69.1613C39.8398 69.1613 42.6253 74.8992 43.2836 75.1569C42.8842 74.1204 41.8308 69.1941 41.5367 68.1673C41.1336 66.7701 41.409 64.5505 41.6459 63.1895C41.7936 62.3505 41.8014 61.4928 41.6688 60.6513L41.6629 60.6145L42.3147 61.9307L43.7769 61.0108C43.2181 59.3823 43.2069 57.4342 39.7336 58.1574Z" fill="#2F2E41"/>
</g>
<defs>
<clipPath id="clip0_441_900">
<rect width="300" height="162" fill="white" transform="translate(0 0.5)"/>
</clipPath>
</defs>
</svg>
